<svg id="Слой_2" data-name="Слой 2" xmlns="http://www.w3.org/2000/svg" xmlns:xlink="http://www.w3.org/1999/xlink" viewBox="0 0 1233.45 1547.22"><defs><style>.cls-1,.cls-12,.cls-4{fill:#9ba9b9;}.cls-1,.cls-21,.cls-22,.cls-3{stroke:#505d6c;}.cls-1,.cls-12,.cls-3,.cls-8,.cls-9{stroke-miterlimit:10;}.cls-1,.cls-3,.cls-8,.cls-9{stroke-width:5px;}.cls-2,.cls-20,.cls-21,.cls-22{fill:#fff;}.cls-3,.cls-9{fill:none;}.cls-5{fill:#505d6c;}.cls-6{fill:#fc7d83;}.cls-7{fill:#ff486a;}.cls-12,.cls-8,.cls-9{stroke:#000;}.cls-10{fill:#333;}.cls-11{fill:#666;}.cls-13{fill:#ff0a43;}.cls-14{fill:#303c42;}.cls-15{fill:#f26722;}.cls-16{fill:url(#Безымянный_градиент_2);}.cls-17{fill:url(#Безымянный_градиент_2-2);}.cls-18{fill:url(#Безымянный_градиент_3);}.cls-19,.cls-20{isolation:isolate;}.cls-19{opacity:0.1;}.cls-20{opacity:0.2;}.cls-21{stroke-miterlimit:10;stroke-width:5px;}.cls-22{stroke-miterlimit:10;stroke-width:5px;}</style><linearGradient id="Безымянный_градиент_2" x1="54.8" y1="-1098.65" x2="139.78" y2="-1039.57" gradientTransform="translate(1893.2 1427.35) rotate(-81.38)" gradientUnits="userSpaceOnUse"><stop offset="0" stop-color="#fff" stop-opacity="0.2"/><stop offset="1" stop-color="#fff" stop-opacity="0"/></linearGradient><linearGradient id="Безымянный_градиент_2-2" x1="89.27" y1="-911.1" x2="131.23" y2="-882.65" xlink:href="#Безымянный_градиент_2"/><linearGradient id="Безымянный_градиент_3" x1="-37.04" y1="-1079.22" x2="257.27" y2="-868.48" gradientTransform="translate(1893.2 1427.35) rotate(-81.38)" gradientUnits="userSpaceOnUse"><stop offset="0" stop-color="#ee3124" stop-opacity="0.2"/><stop offset="0.1" stop-color="#f04421" stop-opacity="0.23"/><stop offset="0.4" stop-color="#f6761b" stop-opacity="0.32"/><stop offset="0.66" stop-color="#fa9a17" stop-opacity="0.4"/><stop offset="0.87" stop-color="#fcb014" stop-opacity="0.46"/><stop offset="1" stop-color="#fdb913" stop-opacity="0.5"/></linearGradient></defs><path class="cls-1" d="M928.79,1655.35c36.52,52.86,398.74-9.19,560.07-266.06,140.42-223.54,92-531.3-63-642.93C1382.21,714.92,1288.15,667,1258,691.48c-20.12,16.35-9.64,56.53,17.61,74.07,56.64,36.5,106.41,84.47,150.1,132.14,77.54,84.5,35.73,283.49-69.13,393.8-89.08,93.7-160.49,81.28-293.63,199C1011.75,1535.8,905.15,1621.12,928.79,1655.35Z" transform="translate(-341.05 -223.44)"/><path class="cls-2" d="M1477.05,791.26c-36.42-48.22-187.83-129.77-216-101.43-18,18.13-9.55,56,17.44,73.42,50.83,32.78,96.07,74.85,136.29,117.54a12.18,12.18,0,0,0,16.57.8l.4-.36a23.85,23.85,0,0,0-1.66-13.18,6.12,6.12,0,0,1-3.88-7.46,5.4,5.4,0,0,1,2.17-7.12c1.07-2.59,3.89-3.66,6.79-3.38a29.36,29.36,0,0,0,9.8-.75c-.09-.78-.17-1.57-.27-2.35a11.26,11.26,0,0,0-1.9-2.35c-3.61-3.48-1.1-8.4,2.56-9.61a6.31,6.31,0,0,1,4.39-1.11,21.4,21.4,0,0,0,8.54-.69c2.34-3.07,4.84-6.09,7.27-9.15-1.56-2-3.36-3.9-4.81-5.6a4.53,4.53,0,0,1-1.19-3.74c-.79-3.14.87-6.89,5.27-7,6.4-.15,10.6-3.3,14-7.5A10.58,10.58,0,0,0,1477.05,791.26Z" transform="translate(-341.05 -223.44)"/><path class="cls-3" d="M927.61,1655.39c36.52,52.87,398.74-9.18,560.07-266.05,140.42-223.54,92-531.31-63-642.93C1381,715,1287,667,1256.83,691.52c-20.12,16.36-9.64,56.54,17.61,74.08,56.64,36.49,106.41,84.47,150.1,132.14,77.54,84.49,35.73,283.49-69.13,393.8-89.08,93.7-160.49,81.28-293.63,199C1010.57,1535.85,904,1621.17,927.61,1655.39Z" transform="translate(-341.05 -223.44)"/><path class="cls-1" d="M1023.41,1764.79l-158.81,3.37c-138.35,0-407.56-120.77-407.56-268.35v.18c0-282.43,214.57-624.1,479.31-624.1h0c264.76,0,479.9,341.67,479.9,624.1l-.53-.18C1415.74,1647.39,1161.76,1764.79,1023.41,1764.79Z" transform="translate(-341.05 -223.44)"/><path class="cls-4" d="M1128,1000.44c21-7.14,41.35,3.59,69.21,5.27,21.79,1.32,8.37-45.77,122.44,17.72,44.33,24.68,99.83,71,132.2,100.3,30.39,27.53,49.61,68.19,54.77,97.61,19.34,110-37.92,130-108.76,144.35" transform="translate(-341.05 -223.44)"/><path class="cls-5" d="M1129,1003.68c14.58-4.83,29.74-.72,44.27,2.1,8,1.55,16.31,3.14,24.49,3.37a16.68,16.68,0,0,0,5.26-.73,23.94,23.94,0,0,0,8.36-5.29c1.18-1,2.37-2.1,3.55-3.1.61-.54,1.25-1,1.9-1.55s.23-.16-.17.11l.52-.37,1.18-.8c.77-.48,1.58-.93,2.37-1.34.37-.2.78-.36,1.18-.54l.67-.29c-1.18.52-.14.06.16,0a29.45,29.45,0,0,1,3.08-.91q.8-.2,1.62-.33l.8-.13c1.18-.19-.53,0,.34-.06a49.86,49.86,0,0,1,8.64,0c.84.07,1.68.16,2.51.26l.51.07,1.5.23c2,.33,4,.73,5.91,1.19a178.87,178.87,0,0,1,31.48,11.22,456.11,456.11,0,0,1,44.41,22.89c27.85,16.27,53.59,35.84,78.44,56q17.71,14.32,34.75,29.31c11,9.67,21.89,19.4,30.89,30.89,18,22.89,31.22,50.15,36,78.43,4.22,24.87,6,51.68-2.75,75.79a72.05,72.05,0,0,1-5.91,12.46c-1.18,2-2.36,3.86-3.72,5.71-.62.86-1.25,1.71-1.92,2.54-.16.23-.34.44-.52.67l-.07.09c-.42.51-.86,1-1.3,1.52a80.45,80.45,0,0,1-20.08,16.52c-16.76,10-35.64,15.31-55.06,19.76-5.11,1.12-10.24,2.24-15.36,3.3-4.45.9-2.57,7.39,1.89,6.48,20.5-4.16,41.2-8.89,60.25-17.51,17.32-7.86,32.59-19.61,42-35.68,12-20.45,14.05-44.81,12.48-67.75-1-14.59-3.06-29.39-7.34-43.48a193,193,0,0,0-18-40.71,181.75,181.75,0,0,0-29.94-38.76c-10.12-9.85-21.1-19-31.89-28.18-25.12-21.31-51.1-41.82-78.67-60.17a457,457,0,0,0-43.16-25.26,327.65,327.65,0,0,0-39.94-18,110.44,110.44,0,0,0-26.76-6.53,41.08,41.08,0,0,0-16.54,1.46,33.8,33.8,0,0,0-11,6.24c-1.18,1-2.36,2.11-3.54,3.17-.55.49-1.09,1-1.66,1.45l-.82.67c-.13.11-.29.21-.42.32-.52.45.8-.52.22-.15s-1.19.8-1.83,1.13l-.88.43c-.94.46.83-.23-.26.09-.7.22-1.42.34-2.13.52s1.06,0,.34,0h-.58c-.45,0-.89,0-1.34,0-16.47-.59-32.2-6.16-48.56-7.47a54.81,54.81,0,0,0-21.83,2.31c-4.28,1.41-2.45,7.92,1.88,6.48Z" transform="translate(-341.05 -223.44)"/><path class="cls-4" d="M820.23,387.24C739,339.54,687.61,315.16,603,272.66c-30.46-15.3-61-30.62-93.24-42.49-7.33-2.71-16-5.14-22.75-1.46-4.73,2.56-7.09,7.43-9.1,12a216.36,216.36,0,0,0-11,138c8.82,34.88,26.33,67.79,32.78,103.09,4.21,23.1,3.6,46.67,6.27,70,5.91,51.61,4.73,56.94,40.35,97.61" transform="translate(-341.05 -223.44)"/><path class="cls-5" d="M822.07,384.33q-36.92-21.66-74.65-42c-22.74-12.22-45.73-24-68.8-35.62Q640,287.29,601.39,268.07c-28-14.07-56.18-28-85.65-39.27-6.53-2.5-13.3-5.25-20.46-5.35a19.61,19.61,0,0,0-17,8.8c-3.73,5.48-5.91,12.2-8.14,18.31q-3.71,10.11-6.38,20.43a220,220,0,0,0-4.94,85.34A243.27,243.27,0,0,0,469,398.54c4.59,13.86,10,27.47,14.91,41.24s9.39,27.56,12.09,41.81c2.87,15.1,3.54,30.47,4.43,45.76.79,13.7,2.22,27.3,3.8,40.94a238.4,238.4,0,0,0,4.17,26.8,81.21,81.21,0,0,0,7.88,20.66A150.25,150.25,0,0,0,532,638c3.81,4.65,7.74,9.22,11.71,13.75,2.92,3.37,7.91-1.44,5-4.75-11.81-13.47-24.81-27.9-30.79-44.31a110.58,110.58,0,0,1-5.06-22c-1.6-10.84-2.77-21.76-3.87-32.66-1.51-15.06-1.83-30.18-3.15-45.25A219.81,219.81,0,0,0,498,460c-8-27.49-20.43-53.67-27.55-81.42a211.69,211.69,0,0,1-4.38-83,215.79,215.79,0,0,1,10.19-41c2.15-6,4.24-12.53,7.69-18a12.66,12.66,0,0,1,6.18-5.47,17.08,17.08,0,0,1,8.86-.43c7.17,1.3,14,4.38,20.74,7,7.09,2.81,14.18,5.79,21.09,8.88,14.1,6.25,28,13,41.77,19.79q39.12,19.42,78.12,39.08c22.73,11.38,45.42,22.86,67.89,34.71q35.73,18.82,70.7,39,9.62,5.52,19.15,11.13c3.9,2.25,7.47-3.53,3.55-5.81Z" transform="translate(-341.05 -223.44)"/><path class="cls-6" d="M766.41,403.06c-57.07-35.6-93.17-53.77-152.66-85.47-21.4-11.4-42.86-22.83-65.52-31.67-5.15-2-11.25-3.83-16-1-3.3,1.91-5,5.61-6.42,9a172.17,172.17,0,0,0-8,103.43c6.13,26.07,18.44,50.76,22.85,77.18,2.93,17.31,2.44,35,4.28,52.43,4.06,38.64,3.22,42.64,28.19,73.09" transform="translate(-341.05 -223.44)"/><path class="cls-5" d="M768.2,400.15q-26.33-16.39-53.31-31.83C698.55,359,682,350,665.41,341.17q-27.95-14.91-56-29.72c-10-5.36-20.15-10.65-30.41-15.63a317.18,317.18,0,0,0-31.63-13.77c-4.94-1.76-10.52-2.83-15.54-.72s-7.33,6.59-9.19,11.06a165,165,0,0,0-9.12,29.74,177,177,0,0,0-1.71,63.14c3.23,21.05,11.23,40.88,17.83,61.1a198.23,198.23,0,0,1,7.82,30.91c1.71,11,2,22.15,2.63,33.23.54,10,1.55,19.94,2.62,29.89a178.84,178.84,0,0,0,2.91,19.68c2.65,11.87,9,22,16.45,31.72,2.76,3.59,5.62,7.13,8.5,10.63,1.18,1.43,3.78,1.18,5,0a3.32,3.32,0,0,0,0-4.76,226.22,226.22,0,0,1-14-18.43,77.42,77.42,0,0,1-4.33-7.33c-.3-.57-.58-1.12-.85-1.73-.16-.3-.3-.62-.44-.92s0,.1.07.15c-.08-.18-.15-.36-.24-.53-.49-1.19-.95-2.38-1.38-3.59a66.6,66.6,0,0,1-2.09-7.59c-.29-1.39-.55-2.78-.79-4.17-.12-.66-.22-1.31-.32-2-.07-.4-.13-.79-.18-1.19a1.2,1.2,0,0,0-.08-.52v-.16c-1.07-8-1.84-16-2.62-24-1.09-10.87-1.31-21.79-2.07-32.69a179.33,179.33,0,0,0-5-32.21c-5.23-20.27-13.73-39.66-19-59.86a169.46,169.46,0,0,1,1.4-90.44q2.17-7.43,5.06-14.66c1.36-3.44,3-8,7.28-8.89s9.31,1.4,13.26,3c5.18,2.06,10.28,4.27,15.36,6.57,10.3,4.69,20.39,9.78,30.38,15,18.91,9.89,37.81,20,56.65,30,16.29,8.65,32.54,17.36,48.63,26.35q25.55,14.26,50.44,29.48,7,4.24,13.86,8.55c3.82,2.39,7.37-3.44,3.55-5.81Z" transform="translate(-341.05 -223.44)"/><path class="cls-7" d="M766.69,405.47C728.1,381.6,703.62,369.3,663.31,347.9c-14.49-7.7-29.07-15.36-44.43-21.48-3.54-1.38-7.64-2.64-11-.95-2.29,1.19-3.54,3.51-4.52,5.72a104.51,104.51,0,0,0-7,66.43c3.84,16.9,11.88,33,14.58,50,1.76,11.22,1.18,22.54,2.19,33.79,2.24,24.93,1.61,27.5,18.29,47.51" transform="translate(-341.05 -223.44)"/><path class="cls-4" d="M1051.71,413.32c77.29-53.28,126.62-81.2,207.74-129.54,29.18-17.39,58.44-34.79,89.66-48.93,7.09-3.21,15.56-6.25,22.59-3.06,4.88,2.25,7.67,6.9,10,11.38a217,217,0,0,1,21.76,136.89c-6.08,35.41-21,69.45-24.65,105.11-2.36,23.33,0,46.81-.8,70.21-1.89,51.86-.31,57.14-32.64,100.21" transform="translate(-341.05 -223.44)"/><path class="cls-5" d="M1053.49,416.26q34.26-23.62,69.5-46.08c21.06-13.38,42.38-26.39,63.79-39.21,23.79-14.25,47.69-28.32,71.51-42.51,26.23-15.62,52.44-31.37,80-44.78,6.47-3.15,13.06-6.74,20.08-8.74,6.32-1.85,12.46-1.43,16.61,3.93,4,5.13,6.54,11.53,9.15,17.33,2.8,6.19,5.26,12.52,7.43,18.93a214.61,214.61,0,0,1,11.07,81c-1.62,28.68-10.48,56-18.07,83.56a295.43,295.43,0,0,0-8.94,42.34c-1.82,15.05-1.52,30.22-1.18,45.33.29,14.14,0,28.21-.47,42.34-.31,8.81-.59,18.09-1.79,26.61a76.67,76.67,0,0,1-5.7,20.38,141.15,141.15,0,0,1-13.46,22.54c-3.46,5-7.09,9.83-10.63,14.67a3.26,3.26,0,0,0,1.27,4.6,3.71,3.71,0,0,0,4.85-1.2c11.28-15,23.48-30.75,28.46-48.92a117.17,117.17,0,0,0,3.45-23.68q1.14-17.34,1.35-34.79c.25-15.48-.66-31-.38-46.42a214.31,214.31,0,0,1,5.64-44.73c6.64-28.59,17.06-56.32,21.08-85.45a219.69,219.69,0,0,0-18.9-122.94c-2.73-5.85-5.4-12.17-9.83-17.08-4.72-5.16-11.41-6.86-18.33-5.85-7.41,1.12-14.29,4.74-20.93,7.85q-10.64,5-21,10.49c-13.74,7.2-27.17,14.89-40.53,22.72-25.42,14.92-50.7,30.08-76,45.14-22.15,13.16-44.24,26.4-66.15,40q-34.52,21.5-68.14,44.24-9.21,6.22-18.34,12.52a3.38,3.38,0,0,0-1.26,4.62,3.65,3.65,0,0,0,4.84,1.2Z" transform="translate(-341.05 -223.44)"/><path class="cls-6" d="M1106.6,425.35c54.14-39.52,88.73-60.17,145.58-96,20.44-12.88,41-25.81,62.88-36.2,5-2.37,10.91-4.6,15.87-2.18,3.45,1.7,5.45,5.22,7.09,8.58a172.62,172.62,0,0,1,16.09,102.57c-4.07,26.49-14.38,51.9-16.77,78.54-1.57,17.47.29,35.05-.17,52.58-1,38.82.1,42.78-22.44,74.88" transform="translate(-341.05 -223.44)"/><path class="cls-5" d="M1108.4,428.26q24.39-17.81,49.52-34.73c15.1-10.1,30.42-20,45.81-29.7,17.15-10.84,34.39-21.56,51.56-32.38,18.76-11.8,37.59-23.56,57.61-33.45,4.13-2,8.8-4.8,13.63-4.66,4.4.13,6.57,4.19,8.27,7.51a163.55,163.55,0,0,1,10.92,27.95,169.79,169.79,0,0,1,6.45,59.31c-1.43,20.84-7.67,40.82-12.65,61.05a215,215,0,0,0-5.66,31.29c-1,11.12-.63,22.31-.34,33.46.27,10.19.14,20.36-.13,30.54-.19,6.74-.34,13.47-1.18,20.2,0,.15-.13,1-.08.64s-.1.57-.12.77c-.12.7-.24,1.38-.37,2.08-.23,1.26-.52,2.5-.84,3.74a54.8,54.8,0,0,1-2.49,7.42c-.13.33-.27.67-.41,1-.26.58.1-.23-.16.34s-.63,1.37-1,2c-.69,1.38-1.42,2.75-2.18,4.09-1.72,3.09-3.54,6.09-5.53,9-2.36,3.62-4.84,7.19-7.33,10.75a3.28,3.28,0,0,0,1.62,4.5,3.65,3.65,0,0,0,4.5-1.14c7.91-11.28,16.39-23,19.82-36.42a91.77,91.77,0,0,0,2.36-17.68c.47-8.52.66-17.08.77-25.6.13-11.22-.56-22.55-.53-33.83a167.28,167.28,0,0,1,3.19-32.64c4.22-21.1,11.39-41.58,14.42-62.9a175.28,175.28,0,0,0-2.21-61.44,172.79,172.79,0,0,0-9.14-29.54,135,135,0,0,0-6.45-13.93c-2.36-4.22-5.91-8.14-11-9-5.55-1-10.91,1.12-15.8,3.36-5.1,2.42-10.12,5-15.08,7.64-10,5.33-19.64,11.07-29.23,17-18.44,11.34-36.7,23-55,34.48-15.87,9.95-31.71,20-47.34,30.24q-24.66,16.19-48.58,33.31-6.62,4.74-13.18,9.53a3.41,3.41,0,0,0-1.28,4.62c.88,1.41,3.32,2.31,4.86,1.2Z" transform="translate(-341.05 -223.44)"/><path class="cls-2" d="M1210.72,1429c0,292-112.79,305-255.35,305s-260.88-13-260.88-305S810.06,900.28,952.61,900.28,1210.72,1137,1210.72,1429Z" transform="translate(-341.05 -223.44)"/><path class="cls-7" d="M1106.51,427.78c36.62-26.52,60.08-40.51,98.6-64.69,13.86-8.68,27.76-17.4,42.65-24.54,3.38-1.62,7.42-3.18,10.84-1.71,2.36,1,3.78,3.24,5,5.37a104.77,104.77,0,0,1,12.14,65.73c-2.52,17.13-9.29,33.66-10.64,50.93-.88,11.22.58,22.56.45,33.86-.28,25,.53,27.53-14.54,48.65" transform="translate(-341.05 -223.44)"/><path class="cls-4" d="M763.88,1003.81c-21-7.14-41.35,3.59-69.21,5.27-21.78,1.31-8.36-45.78-122.44,17.72-44.31,24.67-99.83,71-132.2,100.29-30.38,27.54-49.61,68.2-54.77,97.62-19.34,110,37.92,130,108.76,144.35" transform="translate(-341.05 -223.44)"/><path class="cls-5" d="M764.82,1000.56c-15.19-5-31-1.26-46.21,1.73-8,1.58-16.19,3.21-24.38,3.45h-1.75c-.73,0,1,.23.17,0s-1.39-.33-2.07-.53c-1-.28.79.43-.21-.08-.33-.17-.68-.33-1-.52-.6-.33-1.18-.77-1.73-1.12.83.47.3.24-.21-.17l-.86-.71c-.58-.49-1.18-1-1.7-1.5a52.63,52.63,0,0,0-8.39-6.57c-10.47-6.21-23.62-4.77-35-2s-22.48,7.26-33.22,12.07a456,456,0,0,0-44.89,23.28c-28.35,16.73-54.55,36.74-79.87,57.32q-17.94,14.6-35.27,29.85c-5.27,4.64-10.63,9.25-15.58,14.18a172.69,172.69,0,0,0-16,18.27c-18.05,23.68-31,51.61-35.66,80.6-4.1,25.45-5.78,52.94,3.42,77.62a84,84,0,0,0,36.1,42.64c17.17,10.33,37.07,16,56.71,20.51q7.86,1.81,15.78,3.36c4.44.91,6.34-5.61,1.88-6.48-10.51-2.13-21-4.49-31.31-7.29a187,187,0,0,1-27.17-9.55,120.44,120.44,0,0,1-12.24-6.39,82.68,82.68,0,0,1-10.49-7.37,71.34,71.34,0,0,1-17.11-20.1c-11.19-19.46-12.73-43.2-11-65.37A172.86,172.86,0,0,1,411.23,1168a171.91,171.91,0,0,1,29.54-37c10.3-9.64,21.09-18.83,31.89-27.94,24.59-20.73,50-40.77,77-58.58a456.35,456.35,0,0,1,43-24.86,300,300,0,0,1,38.05-16.83,133.57,133.57,0,0,1,13.94-4.12c1.93-.45,3.88-.84,5.9-1.12.45-.08.9-.15,1.36-.21l.66-.1h0c.9-.1,1.67-.18,2.51-.24a48.29,48.29,0,0,1,8.67.11c-1.07-.1.42.07.95.17l1.78.37a31.31,31.31,0,0,1,3.13,1c.68.24.14,0-.07,0,.2.09.4.16.6.26.48.21,1,.43,1.43.67.81.42,1.6.87,2.36,1.36l1,.68.46.34c-1.11-.75-.26-.19,0,0,.64.51,1.28,1,1.89,1.55a81.14,81.14,0,0,0,7.39,6.18,16.59,16.59,0,0,0,9.82,2.82c16.31-.59,31.9-6,48-7.43a50.57,50.57,0,0,1,20.5,2c4.31,1.44,6.16-5.06,1.89-6.49Z" transform="translate(-341.05 -223.44)"/><path class="cls-1" d="M1058.83,1068.05H833.39c-167.87,0-303.95-129.24-303.95-288.69v-30.3c0-2.69,0-6.64.17-11.41,4.93-154.18,115.9-262.75,121.87-268.43A420.55,420.55,0,0,1,777.26,387.8a444.58,444.58,0,0,1,168.85-34.45h0c230.12,0,416.67,177.19,416.67,395.76V779.4C1362.78,938.81,1226.69,1068.05,1058.83,1068.05Z" transform="translate(-341.05 -223.44)"/><path class="cls-5" d="M935.48,353.35q-20.79,0-41.49,2c0,91.92,23.34,166.42,52.12,166.42s52.12-74.53,52.12-166.47h0q-20.09-1.89-40.77-1.93Z" transform="translate(-341.05 -223.44)"/><path class="cls-5" d="M842.26,396.31a266.9,266.9,0,0,0-7.49-26.48,418.14,418.14,0,0,0-79.37,28.31q1.29,7.65,3.09,15.51c13.39,58.34,43,101.81,66.16,97S855.66,454.69,842.26,396.31Z" transform="translate(-341.05 -223.44)"/><path class="cls-5" d="M1050.82,395.14a272.64,272.64,0,0,1,7.49-26.47A414.91,414.91,0,0,1,1137.68,397q-1.29,7.62-3.09,15.49c-13.39,58.35-43,101.81-66.16,97S1037.44,453.51,1050.82,395.14Z" transform="translate(-341.05 -223.44)"/><path class="cls-2" d="M994.54,1037.16H904.76c-43.39,0-117-22.74-117-64h0c0-74.05,29.85-132.47,107.86-132.47H996.55c78,0,104.31,61.71,104.31,135.84h0C1100.86,1017.79,1037.93,1037.16,994.54,1037.16Z" transform="translate(-341.05 -223.44)"/><path class="cls-8" d="M1013,906.18a73.4,73.4,0,0,1-21,6.51,6.26,6.26,0,0,1-6.56-3.11c-7.92.4-16.27-.6-22.74-5.29-6.17-4.48-10.32-11.38-13.84-18.12a56,56,0,0,1-3.74-8.33c-.06.15-.12.31-.19.46a4.79,4.79,0,0,1-.24.73c-.4,1-.81,2.1-1.18,3.13a4.85,4.85,0,0,1-.72,1.59c-.11.24-.25.47-.37.71a5.42,5.42,0,0,1-.76,5.26c-.93,1.22-1.88,2.4-2.87,3.56a15.33,15.33,0,0,1-4.87,6.91,21.44,21.44,0,0,1-3.62,2.12c-2.87,2.9-5.9,6.81-10.08,7.4a6.72,6.72,0,0,1-2.53-.1c-3.78,1.7-8.46,1.2-12.5.83a13.8,13.8,0,0,1-2-.23c-8.26.58-17-1.94-24.26-6.13,3.54,37.36,35.22,54.54,67.43,54.54,31.51,0,64-18,67.18-52.73Z" transform="translate(-341.05 -223.44)"/><path class="cls-9" d="M943.81,851.77c.74,3,5.28,23.3-8.69,40.68-2.23,2.79-13.32,16.61-31.82,17.59-17.33.92-34.39-9.77-42.84-26.93" transform="translate(-341.05 -223.44)"/><path class="cls-9" d="M948.24,851c-.74,3-5.27,23.29,8.68,40.67,2.24,2.8,13.33,16.61,31.83,17.6,17.33.92,34.39-9.79,42.83-26.93" transform="translate(-341.05 -223.44)"/><ellipse class="cls-10" cx="605.06" cy="612.11" rx="52.66" ry="27.76"/><ellipse class="cls-11" cx="971.17" cy="825.83" rx="6.13" ry="10.85" transform="translate(-568.97 1035.2) rotate(-60.22)"/><ellipse cx="450.02" cy="478.71" rx="69.44" ry="99.41"/><ellipse class="cls-2" cx="825.7" cy="685.66" rx="20.76" ry="38.23" transform="translate(-420.75 -114.11) rotate(-7.23)"/><ellipse class="cls-2" cx="757.27" cy="755.48" rx="10.54" ry="16.37" transform="translate(-570.22 118.37) rotate(-22.18)"/><ellipse cx="755.98" cy="479.83" rx="69.44" ry="99.41"/><ellipse class="cls-2" cx="1062.29" cy="686.68" rx="38.23" ry="20.76" transform="matrix(0.13, -0.99, 0.99, 0.13, -93.63, 1430.7)"/><ellipse class="cls-2" cx="1130.9" cy="756.72" rx="16.37" ry="10.54" transform="translate(-337.82 1294.8) rotate(-67.82)"/><path class="cls-12" d="M456.45,871.67" transform="translate(-341.05 -223.44)"/><path class="cls-4" d="M629.58,992.17c-30.06-20.2-42.93-24.76-83.36-21.26a228.32,228.32,0,0,0-107.6,37.16c-3.07,2.06-5.91-1.21-3.67-4.31l50.86-71.4c8.92-12.51,19.6-26.17,31.27-34.25,3.92-2.71,3.33-8.49-.91-8.47C479.89,889.92,440,904.5,405,930.43c-3.39,2.51-6.91-.64-4.9-4.4,35.88-67.14,129.06-154.78,129.06-168.25" transform="translate(-341.05 -223.44)"/><path class="cls-5" d="M631.37,989.27c-10.37-7-21-13.86-33-18.13-11-3.9-22.75-4.89-34.4-4.64a245.68,245.68,0,0,0-94,20.42,217.6,217.6,0,0,0-22.74,11.69q-2.76,1.62-5.46,3.37c-.64.4-5.24,3.36-5.23,3.36a3.77,3.77,0,0,1,.77.17,1.09,1.09,0,0,1,.43.62c-.27-.55,0-.23-.09.06.21-.66,0-.08.35-.73l.11-.15c2.36-3.44,4.86-6.83,7.29-10.24l30.28-42.51c8.4-11.79,16.46-24,25.9-35.08A99.51,99.51,0,0,1,518.86,901a9.24,9.24,0,0,0,4.33-8.45,7,7,0,0,0-7.47-6.28,161.5,161.5,0,0,0-45.05,7.06A211.6,211.6,0,0,0,425,913.14c-7.55,4.36-14.67,9.23-21.73,14.26a8.51,8.51,0,0,1-.9.57h.11c-.45.11-.49.11-.13,0,.1.08.72.48.24,0,.07.06.43.52.46.54l-.1-.32h0c0-.47-.26.43.09-.46a19.1,19.1,0,0,1,1-1.84q2.13-3.87,4.39-7.66c13-22,29-42.64,45.22-62.41,15.68-19.07,32.13-37.68,48.43-56.37,6.27-7.2,12.55-14.43,18.54-21.84,3.67-4.49,7.56-9.18,10.24-14.33a12.56,12.56,0,0,0,1.77-5.5c0-4.33-7.09-4.34-7.09,0,0,1.05.27-.78,0,0-.12.35-.19.7-.31,1s-.15.36-.21.54c-.23.64.46-.93,0-.14-.23.45-.46.91-.71,1.35a58.1,58.1,0,0,1-4.25,6.43q-1.5,2.06-3.08,4c-.55.71-1.11,1.42-1.67,2.12l-.88,1.13-.45.56c.6-.75-.1.12-.22.25-2.8,3.37-5.65,6.8-8.53,10.1-15.42,18-31.28,35.63-46.55,53.74-17.11,20.28-33.81,41-48.36,63.05-3.38,5.13-6.64,10.34-9.7,15.63a60.28,60.28,0,0,0-4.29,7.94,6.6,6.6,0,0,0,5.62,9.12c2.31.14,4.08-.9,5.84-2.18s3.54-2.55,5.3-3.77q5.17-3.57,10.54-6.85a220.2,220.2,0,0,1,22.53-12.08,186.58,186.58,0,0,1,45.15-14.44A144.08,144.08,0,0,1,513,893.11c.89,0,1.77-.06,2.66-.06h.45l.28.08c-.41-.18-.44-.17-.09,0l-.3-.21c.26.28.25.24,0-.09.15.81.07-.71.1.16s.09-.76,0,.2a5.61,5.61,0,0,1,0,.58h0c0,.06-.38,1-.09.37a4.56,4.56,0,0,1-.51.85c.3-.39-.7.6-.62.53-1.7,1.34-3.47,2.55-5.13,3.93-14.29,11.91-24.46,27.66-35.05,42.51L444.3,984.6l-10.81,15.16c-.54.77-1.18,1.53-1.65,2.33-2.28,3.47-1.33,8.66,3.28,9.83,2.28.57,4.3-.3,6.13-1.53s3.89-2.52,5.91-3.74a225.32,225.32,0,0,1,92.58-31.72c13.66-1.56,27.9-2.69,41.61-1l.41.06,1,.14,2,.33c1.39.26,2.77.54,4.15.86a72.67,72.67,0,0,1,7.68,2.25c.6.21,1.18.43,1.82.67l.35.14.91.37c1.18.51,2.43,1.05,3.64,1.61,2.66,1.26,5.24,2.62,7.78,4.06,5.78,3.27,11.31,6.89,16.79,10.58a3.63,3.63,0,0,0,4.84-1.21,3.33,3.33,0,0,0-1.26-4.6Z" transform="translate(-341.05 -223.44)"/><path class="cls-4" d="M1263,992.17c30.06-20.2,42.94-24.76,83.36-21.26a228.36,228.36,0,0,1,107.6,37.16c3.08,2.06,5.9-1.21,3.67-4.31l-50.81-71.4c-8.91-12.51-19.6-26.17-31.26-34.25-3.92-2.71-3.33-8.49.91-8.47,36.28.28,76.21,14.86,111.21,40.79,3.4,2.51,6.92-.64,4.92-4.4-35.89-67.14-129.06-154.84-129.06-168.3" transform="translate(-341.05 -223.44)"/><path class="cls-5" d="M1264.79,995.08c5.68-3.83,11.43-7.59,17.41-10.94,2.54-1.43,5.12-2.76,7.77-4,1.09-.5,2.2-1,3.33-1.45l.36-.15.91-.36,2.12-.76a73,73,0,0,1,7.7-2.25c1.28-.29,2.56-.55,3.85-.77l2-.31,1-.15c.42-.06.45-.06.07,0l.67-.08a125,125,0,0,1,18.76-.6c32.16,1,64.1,8,93,21.58a216.37,216.37,0,0,1,22.6,12.34c1.82,1.13,3.62,2.33,5.41,3.49a6.87,6.87,0,0,0,6.84.79c3.72-1.77,4.17-6.28,2.12-9.39s-4.15-5.84-6.23-8.75l-30.1-42.27c-8.14-11.42-16-23.16-24.81-34.1A120.88,120.88,0,0,0,1382,898.79c-1.37-1.13-3.14-2.32-4.34-3.28a5,5,0,0,1-.55-.47c-.71-.67.18.4-.32-.38,0-.07-.44-1-.22-.35-.07-.2-.22-1.35-.2-.6a6.17,6.17,0,0,1,0-.86c-.1.85,0,0,.13-.18l-.13.33c.21-.32.18-.31-.1,0,.58-.22-.28.33.13-.12l-.33.13c.39-.09.38-.1,0,0h1.18l3.11.08a163,163,0,0,1,44.69,8.32,207.68,207.68,0,0,1,44.64,21q5.35,3.38,10.52,6.9c3.28,2.25,7,6.33,11.54,5.17,4.82-1.24,5.72-6.38,3.8-10.16-1.26-2.48-2.69-4.9-4.1-7.31-13-22.44-29-43.2-45.53-63.41-15.86-19.48-32.53-38.34-49.08-57.29-6.2-7.1-12.47-14.3-18.38-21.69-.54-.65.46.59,0-.06L1378,774l-.87-1.13c-.61-.76-1.18-1.51-1.8-2.24-1-1.32-2-2.65-3-4a57.28,57.28,0,0,1-4.16-6.35c-.22-.4-.42-.82-.63-1.23-.33-.62.37.94.07.16-.07-.18-.14-.36-.2-.53s-.19-.64-.28-.95c-.25-.77,0,1.06,0,0,0-4.34-7.09-4.35-7.09,0a12.82,12.82,0,0,0,1.87,5.72,54,54,0,0,0,4.06,6.26c4.72,6.45,9.86,12.56,15,18.63,15.12,17.73,30.71,35.07,45.8,52.84,17,20,33.48,40.39,48,62.24q5.07,7.58,9.72,15.38c1.48,2.53,2.94,5.08,4.33,7.65a11.52,11.52,0,0,1,.77,1.63c0-.08-.14-.66,0,.25v-.2c-.13.39-.14.42,0,.09,0,0,.91-.39.1-.17,0,0,.87-.19.77-.08a17.67,17.67,0,0,1-2.36-1.45A223.94,223.94,0,0,0,1444,901.27a187.92,187.92,0,0,0-45.46-13.17q-5.91-.89-11.81-1.36a78.63,78.63,0,0,0-10.63-.45,7,7,0,0,0-6.75,6.84c-.18,3.73,2.22,6.32,5.12,8.42,6.53,4.71,12.09,10.67,17.2,16.73,4.3,5.09,8.27,10.45,12.11,15.86l6.86,9.64,30.16,42.34,11.43,16c.76,1.12,1.54,2.12,2.28,3.2a5.72,5.72,0,0,1,.32.48c-.1-.17.37.62,0,.18v-.22c-.12.41-.13.43,0,.09.25-.14.3-.4.63-.5.58-.18.71.25.22-.24a16.94,16.94,0,0,0-2.69-1.78c-.9-.58-1.81-1.12-2.72-1.73q-2.91-1.83-5.9-3.58A234.81,234.81,0,0,0,1350.73,968c-13.81-1.45-28-2.36-41.79-.42-11.11,1.56-21.42,5.7-31,11.14-5.77,3.27-11.3,6.89-16.78,10.59a3.36,3.36,0,0,0-1.27,4.6,3.64,3.64,0,0,0,4.84,1.21h.07Z" transform="translate(-341.05 -223.44)"/><path class="cls-5" d="M785,386.1a1.68,1.68,0,1,0-1.78-1.68A1.73,1.73,0,0,0,785,386.1Z" transform="translate(-341.05 -223.44)"/><ellipse class="cls-13" cx="605.06" cy="716.11" rx="36.03" ry="12.34"/><path class="cls-3" d="M1530.86,807.07c-89.2-22.92-265.52-24.78-476.07,110.12" transform="translate(-341.05 -223.44)"/><path class="cls-3" d="M363.72,801.46c80.93-20.68,265.53-24.78,476.07,110.12" transform="translate(-341.05 -223.44)"/><path class="cls-3" d="M343.06,1040.15c49.62-67.5,226.17-134.4,478-102.56" transform="translate(-341.05 -223.44)"/><path class="cls-3" d="M1554.62,1040.15c-65.7-70.87-226.19-134.4-478-102.56" transform="translate(-341.05 -223.44)"/><path class="cls-14" d="M961.67,942c-52,29.17-89.42,83.89-105.31,151.91-37,30-61.72,137.08-62.77,141.71a10.57,10.57,0,0,0,1.3,8.32A5.1,5.1,0,0,0,801,1246c21.64-7.86,46.07-15.5,55.84-17.08,3.55,20.56,7.79,38.69,11.81,50.57-31.62,20.11-39.55,69-39.89,71.29-.77,4.94,1.51,9.34,5.1,9.83,37.59,5.25,59.25-10.1,69.54-21,6.55,13.22,22.63,33.88,60.24,39.13,3.55.49,7.09-3.08,7.87-8,.36-2.25,7.59-51.29-16.62-79.19,10-13.62,23.63-37.69,36-64.34,6.27,7.14,17.26,11.88,33.76,14.18,3.54.5,7.09-3.08,7.87-8,.41-2.65,9.45-63.39-11.69-97.22,10.81-77-8.27-147.29-52.84-193.26A5,5,0,0,0,961.67,942Z" transform="translate(-341.05 -223.44)"/><path class="cls-15" d="M811.7,1224.71c7.7-29.58,22.87-77.78,40.67-103.73-3.26,25.8-1.46,59.47,2.54,90.35C843.22,1213.74,824.54,1220.05,811.7,1224.71Z" transform="translate(-341.05 -223.44)"/><path class="cls-15" d="M995,1210.07a404.06,404.06,0,0,0,18.07-51c7.09,21.31,6,48.87,4.73,63.17C999.5,1218.4,995.72,1211.85,995,1210.07Z" transform="translate(-341.05 -223.44)"/><path class="cls-16" d="M811.7,1224.71c7.7-29.58,22.87-77.78,40.67-103.73-3.26,25.8-1.46,59.47,2.54,90.35C843.22,1213.74,824.54,1220.05,811.7,1224.71Z" transform="translate(-341.05 -223.44)"/><path class="cls-17" d="M995,1210.07a404.06,404.06,0,0,0,18.07-51c7.09,21.31,6,48.87,4.73,63.17C999.5,1218.4,995.72,1211.85,995,1210.07Z" transform="translate(-341.05 -223.44)"/><path class="cls-15" d="M1006.2,1137.47c-8.2,53-51.47,135.62-65.23,150.12a11.74,11.74,0,0,0-2.87,6.22,15.88,15.88,0,0,0-.15,1.68c-.09,3,.89,5.72,2.62,7.18,17.58,15,18.44,44.52,17.58,59.7-38.56-8.28-44.82-36.66-45.12-38.15-.58-3.13-2.36-5.27-4.72-5.61s-4.73,1.25-6.35,4.1c-.63,1.12-15.16,26.78-54.72,24.19,3.82-14.76,13.68-42.93,34.89-52.39a9.46,9.46,0,0,0,4.72-6.16,11.91,11.91,0,0,0-.5-8.39c-8.79-17.64-25.24-108.54-17-161.57,11.08-71.68,45.59-130.28,94.92-161.57C1002,1000.25,1017.29,1065.81,1006.2,1137.47Z" transform="translate(-341.05 -223.44)"/><path class="cls-18" d="M1006.2,1137.47c-8.2,53-51.47,135.62-65.23,150.12a11.74,11.74,0,0,0-2.87,6.22,15.88,15.88,0,0,0-.15,1.68c-.09,3,.89,5.72,2.62,7.18,17.58,15,18.44,44.52,17.58,59.7-38.56-8.28-44.82-36.66-45.12-38.15-.58-3.13-2.36-5.27-4.72-5.61s-4.73,1.25-6.35,4.1c-.63,1.12-15.16,26.78-54.72,24.19,3.82-14.76,13.68-42.93,34.89-52.39a9.46,9.46,0,0,0,4.72-6.16,11.91,11.91,0,0,0-.5-8.39c-8.79-17.64-25.24-108.54-17-161.57,11.08-71.68,45.59-130.28,94.92-161.57C1002,1000.25,1017.29,1065.81,1006.2,1137.47Z" transform="translate(-341.05 -223.44)"/><path class="cls-19" d="M986.44,1134.78c-8.27,53-44.62,136.57-55.78,151.47a14.46,14.46,0,0,0-2.45,6.3c-.08.55-.14,1.12-.18,1.67-.16,3,.51,5.61,1.79,7,12.37,13.55,12.72,40.31,11.72,56a82.26,82.26,0,0,0,15.85,5.08c.77-15.19-.4-44.78-19.14-59.92a9,9,0,0,1-2.83-7.21,15.46,15.46,0,0,1,.15-1.67,11.22,11.22,0,0,1,3-6.22C953,1273,998,1190.63,1006.2,1137.58c11.09-71.66-5.68-137.42-46.07-181.19C988,998.29,997.52,1063.05,986.44,1134.78Z" transform="translate(-341.05 -223.44)"/><path class="cls-20" d="M869.32,1118.38c-8.27,53,6.49,143.69,14.6,161.24a12.51,12.51,0,0,1,.41,8.38c-.81,2.92-2.5,5.24-4.47,6.19-20.08,9.62-29.6,37.83-33.34,52.59a66.31,66.31,0,0,0,14.9-.79c3.67-15.33,11.7-41,26-50.75,1.49-1,2.81-3.37,3.54-6.33a16.48,16.48,0,0,0,0-8.31c-5.23-17.15-12.25-106.73-4.05-159.78,11.09-71.66,37.73-131.36,73.33-164.54C913.41,987.9,880.37,1046.7,869.32,1118.38Z" transform="translate(-341.05 -223.44)"/><path class="cls-14" d="M938.62,1101.75c-29.47-4.12-45-22.84-45.19-23-2.54-3.12-6.67-2.53-9.26,1.29s-2.63,9.46-.13,12.59c.73.91,18.23,22.31,51.83,27s56.82-11,57.8-11.7a10.55,10.55,0,0,0,4-7,11.38,11.38,0,0,0-.32-5.09c-1.32-4.38-5.12-6-8.5-3.72C988.64,1092.14,968.38,1105.9,938.62,1101.75Z" transform="translate(-341.05 -223.44)"/><path class="cls-14" d="M878.64,1115.7c-2.57,3.84-2.62,9.46-.11,12.6.72.91,18.22,22.31,51.81,27a89.82,89.82,0,0,0,42.23-4.24c2.79-1,4.9-4.15,5.46-7.78a12.54,12.54,0,0,0,.08-3.18c-.53-4.79-3.86-7.64-7.44-6.38a80,80,0,0,1-37.57,3.73c-29.53-4.12-45-22.84-45.18-23C885.38,1111.31,881.23,1111.89,878.64,1115.7Z" transform="translate(-341.05 -223.44)"/><path class="cls-14" d="M940.5,1047.26c1.52-9.86-3-18.65-10.06-19.63s-14.05,6.19-15.58,16,3,18.65,10.06,19.64S939,1057.16,940.5,1047.26Z" transform="translate(-341.05 -223.44)"/><path class="cls-4" d="M448.92,1357.58c12.91,6.52,30.31,12.5,45.25,14.44,108.65,14.09,205.14,4,307.82-28.55,44.19-14,86.46-35.61,109.86-69.56,24.34-35.31,43.21-61.85,43.31-102.46.06-20.66-.46-42.84-15.06-59.6-9.25-10.63-23.28-17.83-37.94-22.79-61.06-20.63-98.36,35.62-135.61,80.5-10.35,12.49-47.81,29.8-63.46,37.69-9.33,4.7-37.68,9.64-48.59,10.29-35.33,2.1-85.83-1-114.17-18.59" transform="translate(-341.05 -223.44)"/><path class="cls-5" d="M447.12,1360.48a163.55,163.55,0,0,0,28.63,11.08c10.63,3,21.41,4.28,32.34,5.5,22.54,2.51,45.2,4,67.88,4.41A672.83,672.83,0,0,0,705.79,1371c21.89-3.91,43.57-8.88,65-14.74,20.47-5.61,40.87-11.7,60.46-19.69,17.9-7.32,35.15-16.26,50.6-27.6a154.76,154.76,0,0,0,20.46-17.82,174.37,174.37,0,0,0,17.07-21.93c10.64-15.49,21.27-31.13,28.82-48.24s10.63-35.08,10.53-53.64c-.07-18.25-1.37-37.81-12.55-53.36s-30.25-24.91-48.79-29.83a76.33,76.33,0,0,0-46.71,2.05c-15,5.69-27.75,15.34-39,26.09-12.38,11.79-23.19,25-33.88,38.15-4.94,6.09-9.58,12.66-15.07,18.34-4.52,4.68-10.25,8.32-15.85,11.74-13.25,8.1-27.35,14.9-41.34,21.8a80.41,80.41,0,0,1-16.63,6.1q-11.77,2.89-23.81,4.62c-15.58,2.25-31.67,2.14-47.37,1.33-18.35-.94-36.86-3.37-54.34-8.84a95.8,95.8,0,0,1-21.27-9.43c-3.84-2.37-7.4,3.47-3.54,5.81,14.18,8.72,31.12,13.14,47.63,15.87a302.33,302.33,0,0,0,54.44,3.7,223.94,223.94,0,0,0,44.71-5.31c6.5-1.42,13.23-2.95,19.23-5.8s11.61-5.72,17.4-8.61c13.91-7,28.16-14.1,40.4-23.57,5.53-4.27,9.58-9.66,13.92-15,5.25-6.47,10.48-13,15.83-19.4,10.4-12.47,21.26-24.77,34-35.18,11.38-9.3,24.61-16.93,39.53-19.58,16.77-3,33.76,1.5,48.75,8.63,8.49,4,16.54,9.14,22.67,16s10,15.59,12,24.46c2,8.7,2.37,17.63,2.52,26.49a142.16,142.16,0,0,1-1.89,27.94c-3.25,17.22-10.76,33.14-20,48.25-5,8.17-10.37,16.09-15.79,24-5.17,7.52-10.32,14.93-16.69,21.62-12.44,13.07-27.54,23.56-43.64,32.21a310.24,310.24,0,0,1-53.49,22c-21.07,6.65-42.43,12.52-64,17.41a666.08,666.08,0,0,1-192.55,15.51q-17.06-1.12-34-3c-10.63-1.13-21.17-2.42-31.47-5.3a151.89,151.89,0,0,1-27.36-10.51c-4-2-7.62,3.79-3.54,5.81Z" transform="translate(-341.05 -223.44)"/><path class="cls-2" d="M938.91,1111.85c-9.25-10.63-23.27-17.83-37.93-22.79-57.88-19.54-93.32,29.88-128.57,73.34a5,5,0,0,1,2.07,4.26c-.15,13,16,17.72,26.29,22.18,6.36,2.76,12.33,5.83,17.3,10.6,5.28,5.08,8.53,11.64,13.62,16.83,6.16,6.31,15.9,8.07,23.79,11.86,9,4.34,17.45,9.67,26.16,14.51a83,83,0,0,1,18.53,13.75c4.26,4.13,9.19,9.84,15.67,10,21.79-31.69,38-57.22,38.14-95C954,1150.79,953.52,1128.61,938.91,1111.85Z" transform="translate(-341.05 -223.44)"/><path class="cls-5" d="M941.38,1109.46c-10.21-11.64-25.1-18.87-39.94-23.79a78.51,78.51,0,0,0-39.88-3c-25.73,5-45.88,23.64-62.36,42-10.47,11.63-20.08,23.93-29.89,36.06a3.23,3.23,0,0,0,.56,4.07,4.64,4.64,0,0,1,.66.59c.33.35-.17-.51.2.31-.07-.17.14.62.15.76a31.16,31.16,0,0,0,.43,4.19,16.59,16.59,0,0,0,2.68,6,30.73,30.73,0,0,0,11,9c9.2,4.86,19.81,7.38,28,14,4.92,4,8.12,9.11,11.82,14a38.19,38.19,0,0,0,6.26,6.83,35.68,35.68,0,0,0,7.73,4.67c5.47,2.47,11.22,4.15,16.54,6.81,6.38,3.19,12.49,6.82,18.64,10.38,5.58,3.21,11.29,6.2,16.33,10.1,4.73,3.66,8.55,8.09,13.09,11.9a24.28,24.28,0,0,0,7.9,4.69,13.24,13.24,0,0,0,4.46.77c2.48-.07,3.54-2.4,4.72-4.13,3.54-5.15,7-10.32,10.38-15.58a209.75,209.75,0,0,0,16.61-30.56,122.6,122.6,0,0,0,9-33,141.85,141.85,0,0,0,1-18.19c0-5.85-.13-11.68-.61-17.51-1-11.79-3.55-23.67-10-34a59.78,59.78,0,0,0-5.51-7.41,3.68,3.68,0,0,0-5,0,3.33,3.33,0,0,0,0,4.77c14.17,16.47,14.46,39.67,14,59.91a113.33,113.33,0,0,1-5.1,31.29,142.63,142.63,0,0,1-12,27.68c-6.11,10.89-13.17,21.32-20.27,31.62l3.06-1.67a12,12,0,0,1-6.33-2.66,68.08,68.08,0,0,1-6.4-6,89.44,89.44,0,0,0-15.36-12.18c-6.07-3.8-12.46-7.23-18.7-10.79a133.4,133.4,0,0,0-18.77-9.14c-5.25-2-11-3.79-15.11-7.52-4.72-4.28-7.82-10.1-11.92-14.9a48.53,48.53,0,0,0-15.75-11.71c-4.61-2.25-9.45-4-14.17-6.13a60.49,60.49,0,0,1-7.18-3.65c-.59-.37-1.19-.74-1.75-1.12l-.57-.39c.49.36-.27-.22-.35-.3a21.31,21.31,0,0,1-2.76-2.61c-.1-.11-.53-.66-.16-.18l-.57-.77a16.89,16.89,0,0,1-1-1.65c0-.09-.27-.58,0,0-.13-.29-.23-.59-.34-.9a15.43,15.43,0,0,1-.49-1.89c-.19-1,0,.36,0-.28v-1.23a13.27,13.27,0,0,0-.25-2.51,8,8,0,0,0-2.86-4.49l.55,4.07c16.29-20.08,32-41.39,52.79-57.71a103.85,103.85,0,0,1,14.55-9.63,70.49,70.49,0,0,1,15.62-6.37,67.81,67.81,0,0,1,35.57.11,109.66,109.66,0,0,1,23.26,9.11,67,67,0,0,1,19.16,14.59,3.68,3.68,0,0,0,5,0A3.34,3.34,0,0,0,941.38,1109.46Z" transform="translate(-341.05 -223.44)"/><path class="cls-5" d="M908.57,1165.77c7.46-6.55,14.54-13.25,19.54-21.76,2.51-4.28,4.72-8.76,6.92-13.19l7.09-14.11a3.37,3.37,0,0,0-1.28-4.61,3.65,3.65,0,0,0-4.84,1.21c-4.54,9-8.76,18.16-13.8,26.85a57.94,57.94,0,0,1-8.07,10.92c-3.32,3.53-7,6.73-10.63,9.93a3.24,3.24,0,0,0,.18,4.76,3.69,3.69,0,0,0,4.83,0Z" transform="translate(-341.05 -223.44)"/><path class="cls-5" d="M862.24,1139.48c6.4-7.15,11.11-15.35,15.64-23.65,4.38-8,8.67-16.29,14.63-23.41a3.34,3.34,0,0,0,0-4.75c-1.18-1.13-3.81-1.43-5,0-6.16,7.36-10.75,15.61-15.27,23.94-4.37,8-8.8,16.19-15,23.11a3.36,3.36,0,0,0,0,4.76,3.69,3.69,0,0,0,5,0Z" transform="translate(-341.05 -223.44)"/><path class="cls-4" d="M1432.42,1357.58c-12.91,6.52-30.31,12.5-45.27,14.44-108.68,14.07-205.12,3.94-307.81-28.55-44.2-14-86.45-35.61-109.86-69.56-24.34-35.31-43.21-61.85-43.31-102.46,0-20.66.46-42.84,15.07-59.6,9.24-10.63,23.26-17.83,37.93-22.79,61.05-20.63,98.37,35.56,135.61,80.5,10.36,12.49,47.8,29.8,63.46,37.69,9.34,4.7,37.68,9.64,48.58,10.29,35.35,2.1,85.85-1,114.18-18.59" transform="translate(-341.05 -223.44)"/><path class="cls-5" d="M1430.62,1354.69a152.75,152.75,0,0,1-28.62,10.88c-10.19,2.74-20.65,3.9-31.15,5-22,2.39-44.22,3.82-66.4,4.17a664.29,664.29,0,0,1-128.37-10.54c-21.43-3.88-42.66-8.76-63.62-14.49-20.08-5.5-40.28-11.43-59.52-19.34-17.41-7.16-34.33-15.84-49.35-26.93a149,149,0,0,1-20.08-17.67c-6.44-6.84-11.64-14.46-16.91-22.13-10.34-15.08-20.8-30.43-27.79-47.24a119.2,119.2,0,0,1-7.37-24.69,143.77,143.77,0,0,1-1.74-28c.24-17.7,2.19-36.84,15-50.74,6.39-6.94,14.6-12,23.27-16a99.67,99.67,0,0,1,26.16-8.26c32.28-5.07,58.76,15.32,79,36.7,11.49,12.16,21.81,25.25,32.33,38.14,4.31,5.31,8.35,10.56,13.89,14.79a162.8,162.8,0,0,0,19.09,12.22c12.53,7.07,25.52,13.72,38.63,19.79,6.21,2.88,13.17,4.41,19.87,5.85q11.27,2.43,22.73,3.87c15.84,2,32.27,1.63,48.18.6,18.11-1.18,36.47-3.7,53.67-9.4a101.61,101.61,0,0,0,21.26-9.54c3.82-2.35.26-8.18-3.54-5.82-14.48,8.88-31.78,13-48.61,15.62a301.57,301.57,0,0,1-54.88,2.92,205.91,205.91,0,0,1-43.87-6.37c-12.92-3.28-24.63-10.1-36.36-16.12-7.31-3.78-14.55-7.68-21.53-12-5.58-3.43-11.32-7.09-15.74-11.86-5.46-5.89-10.24-12.48-15.36-18.7-5.39-6.65-10.84-13.28-16.53-19.74-20.09-22.87-45.37-46.87-78.6-48.44-18-.84-36.62,5.38-51.8,14.25a66.08,66.08,0,0,0-21.52,19.26,65.1,65.1,0,0,0-9.92,25.53,160.78,160.78,0,0,0-2,28.05,135.48,135.48,0,0,0,2.59,28.12c3.67,17.45,11.63,33.66,21.06,48.93,5.12,8.29,10.63,16.37,16.19,24.43a169.88,169.88,0,0,0,17.09,21.76c12.82,13.31,28.43,24.1,44.89,32.9a319.28,319.28,0,0,0,54.83,22.44c21.37,6.74,43,12.67,65,17.62a672.87,672.87,0,0,0,195.9,15.39q17.29-1.11,34.52-3.12c10.76-1.22,21.37-2.57,31.76-5.61a163.39,163.39,0,0,0,27.78-10.83c4-2,.46-7.86-3.55-5.82Z" transform="translate(-341.05 -223.44)"/><path class="cls-2" d="M942.42,1111.85c9.24-10.63,23.26-17.83,37.94-22.79,57.88-19.54,93.32,29.88,128.56,73.34a5,5,0,0,0-2.06,4.26c.13,13-16,17.72-26.31,22.18-6.35,2.76-12.33,5.83-17.28,10.6-5.28,5.08-8.54,11.64-13.62,16.83-6.18,6.31-15.91,8.07-23.79,11.86-9,4.34-17.45,9.67-26.18,14.51a83.45,83.45,0,0,0-18.52,13.75c-4.25,4.13-9.19,9.84-15.67,10-21.79-31.69-38-57.22-38.14-95C927.3,1150.79,927.81,1128.61,942.42,1111.85Z" transform="translate(-341.05 -223.44)"/><path class="cls-5" d="M944.93,1114.22c9.64-11,23.62-17.84,37.67-22.35a77,77,0,0,1,19-3.72,63.26,63.26,0,0,1,17.31,1.25,69.24,69.24,0,0,1,15.92,5.48,97.73,97.73,0,0,1,15.21,9.21,148.46,148.46,0,0,1,13.81,11.68c4.72,4.49,9.16,9.15,13.47,14,10,11.14,19.11,22.8,28.5,34.38l.55-4.08c-2.65,2.07-3,5-3.14,8a10.55,10.55,0,0,1-2,5.07,7.59,7.59,0,0,1-.46.65c.33-.45,0,0,0,.07-.35.4-.73.8-1.11,1.18s-.8.76-1.18,1.12l-.52.43-.53.42h0a41.67,41.67,0,0,1-6.24,3.64c-4.18,2-8.57,3.64-12.84,5.52a60.76,60.76,0,0,0-16.83,10.25c-4.82,4.41-8,10-12.09,15a25,25,0,0,1-6.36,5.75,48.44,48.44,0,0,1-7.68,3.6l-8.86,3.37c-3.21,1.35-6.29,3-9.33,4.63-6.57,3.57-13,7.44-19.48,11.08a89.39,89.39,0,0,0-17.72,13c-2.37,2.25-4.59,4.65-7.09,6.73a18.25,18.25,0,0,1-3.55,2.39,9.06,9.06,0,0,1-3.82,1.13l3.06,1.67c-12.12-17.65-24.44-35.69-31.39-55.81a113.38,113.38,0,0,1-6.07-30.71,177.56,177.56,0,0,1,.93-32.27c1.44-11.32,5.16-22.74,12.9-31.7a3.36,3.36,0,0,0,0-4.76,3.66,3.66,0,0,0-5,0h0c-8.06,9.34-12.5,20.61-14.4,32.47a172.12,172.12,0,0,0-1.54,35.79,120.44,120.44,0,0,0,6.8,34.19,171.47,171.47,0,0,0,15,30.76c3.12,5.17,6.41,10.26,9.78,15.3,1.8,2.7,3.63,5.4,5.48,8.07,1.18,1.63,2.14,3.7,4.48,3.73a13.83,13.83,0,0,0,4.64-.83c5.74-2,9.71-6.5,13.89-10.51a81.5,81.5,0,0,1,14.41-11.14c6.05-3.64,12.27-7.09,18.42-10.55a120.47,120.47,0,0,1,17.18-8.33c5.76-2.14,11.57-4.25,16.33-8.13s8-9.59,11.82-14.43a41.25,41.25,0,0,1,14-11.22c4.54-2.35,9.31-4.15,14-6.15,8.37-3.57,18.17-8.79,19.91-18.21a26.37,26.37,0,0,0,.35-3.65c0-1.21-.09.07,0-.55,0-.11.32-.84.13-.42.16-.33.3-.46.86-.9a3.23,3.23,0,0,0,.56-4.07c-8.78-10.82-17.37-21.78-26.54-32.29-8.63-9.86-17.8-19.42-28.29-27.52-9.81-7.59-20.8-14-33.07-17.21a76.18,76.18,0,0,0-39.06.42,117.74,117.74,0,0,0-24.52,9.68,72,72,0,0,0-20.6,15.71,3.36,3.36,0,0,0,0,4.76A3.67,3.67,0,0,0,944.93,1114.22Z" transform="translate(-341.05 -223.44)"/><path class="cls-5" d="M977.77,1161c-3.64-3.2-7.29-6.4-10.63-9.93a57.09,57.09,0,0,1-8.07-10.92c-5.06-8.69-9.28-18-13.8-26.85a3.65,3.65,0,0,0-4.85-1.21h0a3.35,3.35,0,0,0-1.26,4.61l7.09,14.11c2.23,4.49,4.39,8.91,6.92,13.19,5,8.51,12.07,15.21,19.53,21.76a3.75,3.75,0,0,0,5,0,3.25,3.25,0,0,0,0-4.76Z" transform="translate(-341.05 -223.44)"/><path class="cls-5" d="M1024.08,1134.78c-6.21-6.92-10.64-15.09-15-23.11-4.53-8.33-9.11-16.59-15.28-24-1.18-1.42-3.77-1.12-5,0a3.32,3.32,0,0,0,0,4.76c5.91,7.11,10.24,15.37,14.62,23.4,4.53,8.31,9.25,16.51,15.66,23.66a3.68,3.68,0,0,0,5,0,3.34,3.34,0,0,0,0-4.76Z" transform="translate(-341.05 -223.44)"/><path class="cls-4" d="M773.54,1754.69c-13-2.09-56.78-18-151.32-19.84-20.19-.41-34.72.35-50,2.55-46.8,6.73-59.5,21.18-74.42,18.85-53.1-8.34-103.26-224.82-40.95-261.29" transform="translate(-341.05 -223.44)"/><path class="cls-5" d="M774,1753.06c-4.06-.65-8-1.78-12-2.76-6.87-1.7-13.78-3.36-20.73-4.8a571.28,571.28,0,0,0-71.27-10q-26-2.08-52.08-2.43a297.58,297.58,0,0,0-47.36,2.86,220.18,220.18,0,0,0-41.22,10.1c-7.58,2.71-15.05,6.35-23,8.1a22.05,22.05,0,0,1-14.57-1.67,42.69,42.69,0,0,1-12.54-9.89c-10.12-11-17.16-24.78-23-38.23A316.94,316.94,0,0,1,438.81,1650a346.56,346.56,0,0,1-8.59-58.86c-1-17.68-.63-35.7,3.1-53.1,2.8-13.06,7.62-26.93,17.72-36.53a37.17,37.17,0,0,1,6.76-5.11c1.94-1.12.15-4-1.78-2.91-11.93,7-18.8,19.48-22.91,31.84-5.41,16.29-6.86,33.72-6.85,50.71a324.27,324.27,0,0,0,5.91,59.27,347.2,347.2,0,0,0,15.54,57c5.7,15.38,12.55,30.76,22.26,44.28,6.29,8.75,14.93,18.73,26.44,21.09,6.46,1.33,12.79-.47,18.8-2.66,9.74-3.53,19.27-7.39,29.29-10.17a233.35,233.35,0,0,1,45.75-7.72c17.6-1.26,35.32-.73,52.92.06a631.55,631.55,0,0,1,83.39,8.86c14.08,2.53,27.88,6,41.77,9.25,1.59.37,3.17.73,4.73,1,2.23.36,3.19-2.88.94-3.25Z" transform="translate(-341.05 -223.44)"/><ellipse class="cls-21" cx="461.11" cy="1632.88" rx="101.31" ry="134.45" transform="translate(-666.08 -94.19) rotate(-11.83)"/><ellipse class="cls-6" cx="454.63" cy="1669.99" rx="48.85" ry="63.24" transform="translate(-709.6 -75.92) rotate(-13.17)"/><ellipse class="cls-6" cx="448.45" cy="1563.24" rx="19.23" ry="29.46" transform="translate(-764.06 -33.29) rotate(-16.4)"/><ellipse class="cls-6" cx="504.11" cy="1572.29" rx="25.59" ry="16.73" transform="translate(-1487.58 1388.84) rotate(-73.61)"/><ellipse class="cls-6" cx="402.76" cy="1583.95" rx="14.88" ry="28.76" transform="translate(-1294.47 448.44) rotate(-41.81)"/><path class="cls-5" d="M561.67,1525.4c-18.83,1.62-37.21-3.55-54.58-10-5.06-1.86-10.07-3.85-15.07-5.83a1.8,1.8,0,0,0-2.18,1.12,1.71,1.71,0,0,0,1.18,2.07c17.55,7,35.5,14,54.61,15.83a88.85,88.85,0,0,0,16,.09c2.26-.19,2.28-3.57,0-3.37Z" transform="translate(-341.05 -223.44)"/><path class="cls-4" d="M1098.77,1754.69c13-2.09,56.79-18,151.34-19.84,20.19-.41,34.71.35,50,2.55,46.79,6.73,59.49,21.18,74.42,18.85,53.16-8.34,103.26-224.82,41-261.29" transform="translate(-341.05 -223.44)"/><path class="cls-5" d="M1099.24,1756.37c4.11-.67,8.15-1.81,12.18-2.81,6.91-1.72,13.85-3.37,20.84-4.8a565.6,565.6,0,0,1,72.57-10c17.85-1.37,35.78-2.25,53.68-2.25a277.58,277.58,0,0,1,47.49,3.6,218.27,218.27,0,0,1,39.3,10.53c7.09,2.64,14.27,6.16,21.86,7.3,11.91,1.79,21.76-5.41,29.09-13.57,10.39-11.61,17.54-25.73,23.53-39.76a319.88,319.88,0,0,0,17.44-54.87,349.9,349.9,0,0,0,8.49-59.75c.92-18,.4-36.16-3.54-53.77-3-13.38-8.18-27.47-18.68-37.26a41.6,41.6,0,0,0-7.18-5.37c-2-1.13-3.74,1.77-1.8,2.9,11.37,6.73,17.83,19,21.66,31,5.15,16.17,6.45,33.36,6.34,50.18a322.66,322.66,0,0,1-6.07,58.46,347,347,0,0,1-15.56,56.25c-5.61,15-12.39,30-22,43.18a66.48,66.48,0,0,1-12.47,13.34,27.29,27.29,0,0,1-12.45,5.83,23,23,0,0,1-8.47-.5,80.08,80.08,0,0,1-10.07-3.3,285.82,285.82,0,0,0-31-10.35,244,244,0,0,0-45.81-6.92c-17.6-1-35.31-.42-52.91.45a634.37,634.37,0,0,0-81.51,9c-13.86,2.52-27.43,5.93-41.11,9.15-1.59.37-3.17.73-4.73,1-2.24.37-1.3,3.61.93,3.25Z" transform="translate(-341.05 -223.44)"/><ellipse class="cls-22" cx="1411.37" cy="1633.03" rx="134.45" ry="101.31" transform="translate(-817.41 2456.11) rotate(-78.17)"/><ellipse class="cls-6" cx="1411.18" cy="1670.29" rx="63.36" ry="48.94" transform="translate(-880.99 2433.97) rotate(-76.64)"/><ellipse class="cls-6" cx="1423.75" cy="1563.1" rx="29.46" ry="19.23" transform="translate(-818.71 2264.31) rotate(-73.6)"/><ellipse class="cls-6" cx="1368.08" cy="1572.62" rx="16.73" ry="25.59" transform="translate(-729.19 226.48) rotate(-16.39)"/><ellipse class="cls-6" cx="1469.61" cy="1584.11" rx="28.76" ry="14.88" transform="translate(-1031.9 1399.94) rotate(-48.19)"/><path class="cls-5" d="M1310.64,1528.76c19.12,1.65,37.88-3.57,55.52-10.1,5.06-1.87,10.07-3.84,15.06-5.84a1.72,1.72,0,0,0,1.24-2.07,1.78,1.78,0,0,0-2.17-1.12c-17.21,6.86-34.93,13.93-53.67,15.71a89,89,0,0,1-16,.09c-2.27-.2-2.26,3.18,0,3.37Z" transform="translate(-341.05 -223.44)"/></svg>