<svg id="Слой_2" data-name="Слой 2" xmlns="http://www.w3.org/2000/svg" viewBox="0 0 1398.7 1531.76"><defs><style>.cls-1,.cls-4{fill:#b6cfe0;}.cls-1,.cls-2,.cls-7{stroke:#292f86;}.cls-1,.cls-11,.cls-2,.cls-7,.cls-9{stroke-miterlimit:10;}.cls-1,.cls-11,.cls-2,.cls-9{stroke-width:10px;}.cls-2{fill:#fe7777;}.cls-3{fill:#b25476;}.cls-5{fill:#292f86;}.cls-6{fill:#fff;}.cls-7{fill:#4caf50;stroke-width:5px;}.cls-8{fill:#388e3c;}.cls-11,.cls-9{stroke:#000;}.cls-10{fill:#c9e7ff;}.cls-11{fill:none;}.cls-12{fill:#e2ecf3;}.cls-13{fill:#7c91e0;}</style></defs><g id="Слой_2-2" data-name="Слой 2"><ellipse class="cls-1" cx="1109.54" cy="272.5" rx="266.5" ry="261"/><ellipse class="cls-2" cx="1078.04" cy="295" rx="213" ry="204.5"/><path class="cls-3" d="M1356.2,328.42c66.39,27.38,113.27,94.1,113.27,172.07,0,102.36-80.81,185.35-180.5,185.35a176,176,0,0,1-59.1-10.18c-38.25-37-61.9-87.89-61.9-144.12C1168,426.64,1250.24,340.21,1356.2,328.42Z" transform="translate(-300.65 -231.62)"/><path class="cls-4" d="M1674.19,538.62c-1,8,9.7,28.93,11,31,8.11,12.8,12.73,31,7,45-10.07,24.69-30.51,29.85-56,22-4.59,20.57-8.93,25.28-8,46.34s-3.2,44.59-19.9,57.45c-13.17,10.14-32.79,10.92-46.71,1.85s-19.78-11-15.84-27.14c-2.66,10.15-.33,5.84-3,16-3.56,13.57-13.81,25.87-23.23,36.28-14.69,16.25-52.17,14-55.77,13.72-8.56-.58-21.67-19.48-22-21" transform="translate(-300.65 -231.62)"/><path class="cls-5" d="M1669.69,538.62c-.44,3.88.88,8.12,2.1,11.77a126.94,126.94,0,0,0,5.3,13.11c1.24,2.7,2.51,5.44,4,8,1.17,2,2.4,4,3.43,6.1.3.6.58,1.19.85,1.79.17.36.33.73.49,1.09.53,1.21-.32-.83.16.4.57,1.43,1.11,2.88,1.59,4.34a62,62,0,0,1,2.14,8.8c.06.39.12.79.17,1.18-.14-1.07,0,.25,0,.39.07.66.13,1.32.17,2a43.55,43.55,0,0,1,.08,4.71c0,.71-.07,1.42-.13,2.13l-.09,1c-.12,1.28.17-.93,0,.33a42.63,42.63,0,0,1-1,4.48c-.17.6-.37,1.21-.58,1.8-.12.36-.26.71-.39,1.07-.06.14-.56,1.3-.12.31-.55,1.26-1.13,2.51-1.77,3.74a53.06,53.06,0,0,1-4,6.36c-.64.89.62-.75-.07.09l-.59.72c-.33.4-.67.78-1,1.16a35.94,35.94,0,0,1-2.55,2.54c-.4.37-.81.72-1.22,1.06-.1.08-.46.46-.57.45l.45-.35-.46.35a33.75,33.75,0,0,1-2.88,1.87,29.25,29.25,0,0,1-2.78,1.44l-.52.23c-.92.42,1-.37,0,0-.58.22-1.16.44-1.74.64-1.14.38-2.3.7-3.47,1-.67.16-1.34.29-2,.41l-.58.09c-1.31.21.55,0-.28,0a51.6,51.6,0,0,1-7.86.26c-1.36-.06-2.71-.17-4.06-.33-.23,0-1.37-.13-.13,0a8.72,8.72,0,0,1-1.33-.2c-.68-.11-1.36-.22-2-.35a85.85,85.85,0,0,1-9.1-2.28,4.54,4.54,0,0,0-5.54,3.14c-2.82,12.59-7.56,24.72-8.21,37.72-.36,7,.32,14.08,0,21.12-.09,1.68-.21,3.36-.38,5-.08.8-.17,1.61-.27,2.41a5.35,5.35,0,0,1-.07.56c0-.16.13-1,0-.09-.07.43-.13.86-.2,1.29a79.08,79.08,0,0,1-2.15,9.74c-.46,1.58-1,3.14-1.54,4.67l-.39,1-.27.67c0,.08-.26.64,0,.13s-.2.46-.27.62c-.2.43-.4.87-.61,1.3a50.79,50.79,0,0,1-4.93,8.23l-.32.42s.48-.59.15-.21l-.78,1c-.54.63-1.09,1.25-1.66,1.85a44.81,44.81,0,0,1-3.4,3.21c-.32.27-.66.53-1,.8s.14-.11.19-.14l-.46.34c-.7.51-1.42,1-2.16,1.46a38.53,38.53,0,0,1-4.43,2.39l-.68.31s.69-.28.21-.09l-1,.4c-.81.31-1.64.59-2.47.84a43.83,43.83,0,0,1-4.91,1.18l-1.29.21h.27l-.56.06q-1.31.15-2.61.21a46.33,46.33,0,0,1-5,0l-1.12-.1-.74-.07c-.09,0-.72-.09-.14,0l-.7-.11-1.47-.26a38.82,38.82,0,0,1-4.87-1.3c-.76-.25-1.51-.55-2.27-.83-.48-.18.16.07.21.09l-.51-.22-1.35-.64a45.44,45.44,0,0,1-4.38-2.55c-2.51-1.63-5.07-3.21-7.55-4.89l-1.38-1c-.25-.18-.49-.37-.75-.55s.43.34.4.31l-.39-.31a21.6,21.6,0,0,1-2.34-2.14c-.18-.19-.34-.39-.51-.58-.48-.53,0-.14.17.24-.2-.42-.57-.81-.81-1.23-.12-.21-.24-.42-.34-.64s-.41-.89-.08-.13,0-.05-.07-.26-.15-.48-.22-.73c-.12-.46-.13-1-.29-1.44.21.57.11,1,0,.13v-2.62a4.18,4.18,0,0,1,.08-1c.08-.33.19-1.28.06-.61s.09-.54.12-.69l.18-1c.17-.85.36-1.69.56-2.53a4.5,4.5,0,1,0-8.68-2.39,49,49,0,0,0-1.6,8.33c0,.63-.07,1.26-.12,1.88v.49c-.08.81.13-.78,0-.43-.12.56-.19,1.15-.31,1.72a55.09,55.09,0,0,1-3.11,10.3c.29-.67-.12.26-.21.47l-.54,1.14c-.42.9-.87,1.78-1.34,2.65-.88,1.64-1.83,3.25-2.82,4.82s-2.07,3.13-3.17,4.66c-.55.76-1.11,1.52-1.68,2.27l-.39.52c0-.08.35-.46,0,0l-.94,1.19c-2.36,3-4.83,5.82-7.35,8.64-1,1.07-1.9,2.15-2.94,3.14q-.65.6-1.32,1.17a4,4,0,0,0-.64.51s.77-.56.37-.29l-.44.33a39.62,39.62,0,0,1-6.48,3.71l-.8.35c-.73.32.92-.36-.13,0l-1.78.68c-1.2.44-2.43.83-3.66,1.19a78,78,0,0,1-7.69,1.81c-1.25.24-2.52.44-3.78.63-.18,0-1.15.15-.41.06l-.55.07-1.84.21c-2.38.25-4.77.43-7.15.55-3.68.18-7.37.22-11,.11-1,0-2.07-.08-3.1-.14h-.63c-.68,0,.36,0,.54.09q-.59-.17-1.17-.27c-.2-.06-.39-.14-.59-.21-.64-.2.43.18.46.21a2.09,2.09,0,0,0-.4-.19,21.16,21.16,0,0,1-2.71-1.63l-.64-.46c-.63-.45.73.6,0,0q-.7-.57-1.38-1.17a61.72,61.72,0,0,1-5.36-5.49c-.79-.91-1.57-1.84-2.32-2.79l-.5-.63c-.61-.77.46.61,0,0-.32-.43-.64-.84-1-1.27a46.36,46.36,0,0,1-2.67-4c-.11-.18-.19-.36-.3-.53-.43-.69.41,1.17.27.64a4.53,4.53,0,0,0-5.53-3.14,4.58,4.58,0,0,0-3.15,5.53,12.77,12.77,0,0,0,1.89,3.55c1.32,2,2.77,3.88,4.24,5.75A59.68,59.68,0,0,0,1455,782.28a18.29,18.29,0,0,0,6.41,3.19,22.4,22.4,0,0,0,3.92.43c3.2.16,6.41.19,9.62.11,10.4-.23,21.16-1.38,31-4.92a44.32,44.32,0,0,0,14.83-8.42,82.25,82.25,0,0,0,6.79-7.42c2.69-3.14,5.29-6.36,7.74-9.69a73,73,0,0,0,11.19-21.07,52.47,52.47,0,0,0,2.11-9.59c.08-.69.11-1.39.15-2.09l.09-1c.07-.81-.13.78-.06.43s.1-.61.16-.91c.3-1.62.71-3.22,1.12-4.82l-8.68-2.39c-1.41,5.88-2.24,12.09.48,17.73,2.28,4.73,7.11,7.84,11.37,10.6,2.78,1.81,5.55,3.74,8.47,5.34a44,44,0,0,0,10.44,4.09,47.63,47.63,0,0,0,22.58,0c14.3-3.45,25.51-14,31.32-27.35s7.06-28.08,6.58-42.6a96.27,96.27,0,0,1,.24-11.52c.07-.74.15-1.47.23-2.21a3.86,3.86,0,0,1,.06-.49c0,.11-.15,1,0,.23.07-.42.13-.84.2-1.26.23-1.43.5-2.84.82-4.24,1.38-6.18,3.39-12.2,5-18.33q.78-3.06,1.47-6.14l-5.53,3.14c10.33,3.17,21.5,4.81,32.16,2.37,10.06-2.3,18.38-8.63,24.06-17.14a47.3,47.3,0,0,0,7.07-16.18,51.27,51.27,0,0,0-.14-19.94,67,67,0,0,0-6.57-18.38c-1.52-2.9-3.28-5.64-4.74-8.58-1-2-2-4.11-2.9-6.19-.24-.54-.47-1.07-.7-1.61-.13-.29-.62-1.05,0,0a6.67,6.67,0,0,1-.46-1.11c-.5-1.21-1-2.43-1.42-3.66a57.87,57.87,0,0,1-2.19-7c-.14-.57-.26-1.15-.36-1.72a4.27,4.27,0,0,0-.12-.7c-.16-.87.09,1.16,0,.3a15.56,15.56,0,0,1,0-2.73c.27-2.35-2.26-4.61-4.5-4.5-2.66.11-4.21,2-4.5,4.5Z" transform="translate(-300.65 -231.62)"/><path class="cls-4" d="M698.85,1695.12c50.73-24.25,92.07-29.81,120.63-30.33,15.65-.29,23.37,1,84.08,5.24,84,5.85,88.14,4.69,91.61,2.22,47.69-34,25.63-258.11-91.6-310.71-96.67-43.36-262.66,28.94-344.38,207.8" transform="translate(-300.65 -231.62)"/><path class="cls-5" d="M701.12,1699c25.66-12.23,52.83-21.44,80.9-26.22a239.89,239.89,0,0,1,46.81-3.45c13.67.4,27.33,1.75,41,2.77,27.32,2,54.65,4,82,5.53,11.93.67,24.12,1.74,36.09,1,5.2-.32,8.7-1.45,12.64-4.9,7.86-6.86,12.44-17.1,15.55-26.84,4.24-13.25,6-27.3,6.76-41.15a292.15,292.15,0,0,0-1.82-49.74,360.14,360.14,0,0,0-10.71-54.73,320.36,320.36,0,0,0-20.09-53.53,235,235,0,0,0-29.77-47,161.37,161.37,0,0,0-39.8-35.21,137.55,137.55,0,0,0-45-17.5,176.7,176.7,0,0,0-49.28-2.51,234.1,234.1,0,0,0-53.15,11,295.84,295.84,0,0,0-54.44,24.39,351.15,351.15,0,0,0-53.17,37.56,391.64,391.64,0,0,0-49.29,50.37,440.65,440.65,0,0,0-43.22,63.32q-9.63,17.08-17.75,34.94c-1,2.21-.63,4.85,1.61,6.16,1.94,1.13,5.14.6,6.16-1.62a457.73,457.73,0,0,1,38.64-68.51,406,406,0,0,1,45.44-55.29,362.31,362.31,0,0,1,50.12-42.66,319,319,0,0,1,53.12-30.34,267.06,267.06,0,0,1,26-10,246.41,246.41,0,0,1,26.07-6.92c4.32-.88,8.66-1.65,13-2.28l1.54-.21c.53-.08,0,0-.11,0l.88-.11c1.08-.14,2.17-.27,3.26-.39q3.12-.35,6.27-.6A184,184,0,0,1,852,1354c3.93.21,7.84.58,11.75,1.06a4.11,4.11,0,0,1,.6.08l1.38.19c1,.15,2,.3,3,.47,2,.33,3.9.69,5.84,1.1a137.67,137.67,0,0,1,21.51,6.3c.83.32,1.66.65,2.48,1l.86.36,1.21.52c1.91.85,3.81,1.74,5.68,2.68,3.8,1.91,7.52,4,11.12,6.28a131.41,131.41,0,0,1,20,15.3c13.29,12.18,23.64,25.48,33,40.69a269.82,269.82,0,0,1,23.53,49.36,345.06,345.06,0,0,1,14.62,53.69c1.71,9.07,2.91,17.11,3.85,25.76.91,8.43,1.51,16.89,1.75,25.37.21,7.8.12,15.61-.37,23.4-.22,3.63-.54,7.24-1,10.85-.09.84-.2,1.68-.3,2.52a3.85,3.85,0,0,1-.08.58c-.07.47-.13.94-.2,1.41-.24,1.66-.51,3.32-.8,5a125.37,125.37,0,0,1-4.51,18c-.44,1.31-.91,2.62-1.42,3.91l-.36.91c-.07.17-.5,1.2-.2.49l-.2.47-.45,1a59.51,59.51,0,0,1-3.47,6.56c-.62,1-1.29,2-2,3l-.41.55c-.65.9.41-.47,0,0s-.71.86-1.08,1.29a30.83,30.83,0,0,1-2.16,2.27c-.35.34-.71.67-1.08,1s-1.49,1.2-.82.69-.41.3-.73.5-.39.22-.57.35c-.95.62.57-.17.33-.12s-.61.21-.91.29-.74.18-1.11.25l-.64.1c-.74.16,1.47-.15.32,0-1.34.12-2.67.22-4,.27-4.79.16-9.58,0-14.37-.14-22.55-.77-45.08-2.44-67.58-4-20.94-1.46-41.87-3.17-62.81-4.58a253.85,253.85,0,0,0-32.4-.27,281.16,281.16,0,0,0-70,13.52,348.69,348.69,0,0,0-42.23,17c-2.2,1-2.77,4.18-1.62,6.16a4.6,4.6,0,0,0,6.16,1.61Z" transform="translate(-300.65 -231.62)"/><ellipse class="cls-1" cx="289.04" cy="266" rx="266.5" ry="261"/><path class="cls-1" d="M951.19,949.12h100c200.2,0,362.5,162.3,362.5,362.5h0c0,200.2-162.3,362.5-362.5,362.5h-100c-200.21,0-362.5-162.3-362.5-362.5h0C588.69,1111.42,751,949.12,951.19,949.12Z" transform="translate(-300.65 -231.62)"/><ellipse class="cls-2" cx="320.54" cy="288.5" rx="213" ry="204.5"/><path class="cls-4" d="M689.67,1399.09c-25.13-11.91-44.84-34.3-71.35-42.68-32.49-10.26-56.3-4.2-72.63,25.7-12.44,22.79-9.25,46.53-8,56,11.3,85.55,34,245.72,121,261,11.47,2-13.71,16.64,42.5-5.5,33-13,93.29-24.24,130.5-26.5,27-1.65,120.5,6.5,120,7" transform="translate(-300.65 -231.62)"/><path class="cls-5" d="M691.94,1395.2c-18.07-8.64-33-22.27-50-32.63-15.52-9.45-34.18-16-52.58-15.24a52.74,52.74,0,0,0-22.25,5.75,55.16,55.16,0,0,0-17.81,15.29c-12.45,16-18,35.76-17.39,55.9.42,12.78,2.78,25.61,4.56,38.26,2,14,4.13,28.06,6.58,42,5.27,30,11.84,60,21.5,89,9,27,20.65,53.87,38.85,76a104.45,104.45,0,0,0,27.79,24.23,82.7,82.7,0,0,0,16.49,7.32,74.87,74.87,0,0,0,8.61,2.19c.77.14,1.53.33,2.29.48.92.18-.72-.34-.41-.19a2.86,2.86,0,0,1,.54.3c.32.24-1.1-1-.44-.31s-.66-.94-.4-.53c.59.91-.39-1.38-.08-.2.28,1,0-1.41,0-.34v.78c.11,2.49.78,4.78,3.11,6.1,2.81,1.58,6.42.75,9.35,0a156.28,156.28,0,0,0,17.52-5.81c8.53-3.16,16.93-6.69,25.57-9.55,8.31-2.74,16.74-5.08,25.22-7.2,18.48-4.64,37.23-8.28,56.07-11.11,14.42-2.16,29.08-4.15,43.68-4.29,12.24-.13,24.51.51,36.74,1.19,23.92,1.32,47.86,3,71.69,5.4l3.48.38c1.31.14-1.17-.36-.15,0,.78.25-.14,0-.67-.37l-1.61-1.61h0v-4.55h0c-1,2.23-.66,4.83,1.61,6.16,1.9,1.11,5.19.63,6.16-1.61,2.55-5.94-2.89-6.76-6.84-7.19-3.48-.37-7-.69-10.45-1q-18-1.62-36-2.87c-13.91-1-27.83-1.87-41.77-2.45-10.77-.44-21.57-.81-32.33,0A580.46,580.46,0,0,0,720,1682.55c-15.93,4.7-31,11.63-46.83,16.65-2,.65-4.11,1.27-6.2,1.73l-1.21.24-.36.06c-.88.18.47-.24.53-.06a14.91,14.91,0,0,0-1.58.06c-.47.07,1.39.41.23,0a3,3,0,0,1,2,1.51c-.44-.73.47,1.45.21.44-.16-.6.06,1.57.08.43a9.37,9.37,0,0,0-1.24-5.25c-2.16-3.34-6.08-3.53-9.59-4.34a72.16,72.16,0,0,1-8.29-2.42l-2.19-.81c-.26-.11-2-.82-1.08-.43-1.43-.61-2.83-1.27-4.22-2a80.08,80.08,0,0,1-7.44-4.23c-1.16-.74-2.3-1.51-3.42-2.3-.59-.42-1.17-.85-1.75-1.28l-.79-.59c-.25-.2-.21-.16.13.09l-.63-.49A108.69,108.69,0,0,1,613.15,1667a120.18,120.18,0,0,1-11.07-14.37,218.22,218.22,0,0,1-19.38-36.48c-.39-.9-1.21-2.9-1.8-4.35l-2-5q-2-5.25-3.86-10.57-3.72-10.7-6.87-21.58c-4.27-14.7-7.86-29.6-11-44.58-5.79-27.61-10-55.51-13.79-83.47.13.94-.13-1-.17-1.25-.1-.81-.21-1.62-.32-2.42l-.57-4.35c-.37-2.76-.72-5.52-1-8.29a91.38,91.38,0,0,1,1.06-25.47,73.82,73.82,0,0,1,11.68-27.66,49.75,49.75,0,0,1,15.93-15.3,42.73,42.73,0,0,1,18.88-5.42c8.31-.43,16,.91,24.06,3.14,19,5.28,34.34,17.37,50.17,28.59A166.08,166.08,0,0,0,687.42,1403a4.62,4.62,0,0,0,6.16-1.61c1.15-2,.59-5.11-1.62-6.16Z" transform="translate(-300.65 -231.62)"/><path class="cls-4" d="M1335.36,1398.09c25.14-11.91,44.84-34.3,71.36-42.68,32.48-10.26,56.3-4.2,72.62,25.7,12.44,22.79,9.25,46.53,8,56-11.3,85.55-34,245.72-121,261-11.46,2,13.72,16.64-42.5-5.5-33-13-93.28-24.24-130.5-26.5-27-1.65-120.5,6.5-120,7" transform="translate(-300.65 -231.62)"/><path class="cls-5" d="M1337.63,1402c17.88-8.54,32.67-22,49.45-32.29,14.77-9.08,32.29-15.34,49.61-14.29a42.38,42.38,0,0,1,19.21,5.88,51.06,51.06,0,0,1,15.43,15.3c10.66,15.82,14,34.3,12.37,53.09-.25,2.82-.62,5.62-1,8.43-.18,1.39-.36,2.77-.55,4.16-.1.74-.2,1.48-.29,2.22a8,8,0,0,1-.14,1h0a5.9,5.9,0,0,1-.11.83q-1.27,9.51-2.64,19-3,21.15-6.84,42.2c-5.45,29.87-12.25,59.64-22.31,88.32-8.79,25.06-20.74,51.17-38.41,70.72A105.31,105.31,0,0,1,1398.1,1679c.71-.55-.77.58-1,.74l-1.6,1.15c-1.28.9-2.59,1.77-3.91,2.61a82.66,82.66,0,0,1-7.48,4.15c-.58.29-1.16.56-1.75.83l-1.06.48-.36.15c-1.31.55-2.65,1.06-4,1.53a71.59,71.59,0,0,1-8.5,2.42c-3.4.76-7.09,1.06-9.1,4.33a9.45,9.45,0,0,0-1.16,5.23c0,1.06.31-1.31.08-.47-.09.3-.3.52.12-.21.62-1.1-.87.57.69-1.06-.47.49,1.06-.73.64-.47-.63.39.61-.23.71-.27-1.22.46,1,.11,0,0h-1.05c-.88,0,.75-.12.57.08s-1.85-.33-2.13-.4c-2.2-.49-4.37-1.16-6.52-1.85-8.12-2.61-16.09-5.73-24-8.83a344.08,344.08,0,0,0-49.49-14.68q-28.08-6.37-56.66-10.1c-13.08-1.71-26.23-3.1-39.44-3-12.8.12-25.61.8-38.39,1.57-22.45,1.34-45,2.78-67.33,5.26-3.9.43-9,1.39-6.53,7.15,1,2.23,4.24,2.73,6.15,1.61,2.31-1.35,2.58-3.91,1.62-6.16h0v4.54h0l-1.62,1.61c-.54.38-1.44.61-.67.37,1-.32-1.56.17,0,0l3.56-.38c4.17-.42,8.35-.79,12.53-1.16q19.2-1.65,38.43-3c25.08-1.7,50.41-3.74,75.5-1.33a551.65,551.65,0,0,1,54.69,8.27,433.5,433.5,0,0,1,53.07,13.54c8.66,2.9,17.09,6.46,25.66,9.62a140.38,140.38,0,0,0,16.88,5.51c2.84.66,6.29,1.37,9-.2,2.31-1.35,2.92-3.64,3-6.12v-.78c0-.88-.39,1.49,0,.27.27-.88-.74,1.27-.07.27-.12.18-1,1.1-.39.55s-1,.74-.41.31a2.65,2.65,0,0,1,.55-.3c-1.75.74-.76.28-.38.2l3-.6a73.81,73.81,0,0,0,8.38-2.21,89.25,89.25,0,0,0,31.49-18.55c20.32-18.12,33.47-43.25,43.52-68.16,11.46-28.41,19-58.31,25.06-88.29,5.55-27.62,9.61-55.5,13.32-83.42a183.41,183.41,0,0,0,1.84-18.71,91.54,91.54,0,0,0-3.62-28.88c-5.08-16.86-16.19-34.2-32.41-42.21-15-7.42-32.22-6.13-47.94-1.67-19.34,5.5-35,17.48-51.18,28.95-7.94,5.65-16.06,11.06-24.87,15.27-2.19,1.05-2.77,4.18-1.61,6.16a4.59,4.59,0,0,0,6.15,1.61Z" transform="translate(-300.65 -231.62)"/><path class="cls-4" d="M732.69,1047.12c-14.22-9.5-26.2-.75-44-2-13.88-1-10-47.48-77,5-26,20.39-57.11,61.61-75,88-16.79,24.77-26.37,41.92-31,70-17.23,104.46,43,165,90,182" transform="translate(-300.65 -231.62)"/><path class="cls-5" d="M735,1043.23a31.15,31.15,0,0,0-17.06-5.09c-5.71,0-11.35,1.25-17,2a75.61,75.61,0,0,1-8.37.59c-1.32,0-2.72-.24-4-.14,1.27-.1,1,.19.17,0l-.41-.13c-.75-.18.44.06.57.26-.11-.18-.67-.35-.87-.47-.61-.38-.78-1,.09.12a9.32,9.32,0,0,0-.76-.65,16.67,16.67,0,0,1-1.41-1.5c-.23-.27-.44-.55-.67-.82-.55-.67.66.89.29.37l-.42-.55c-1-1.31-1.89-2.65-2.86-4a35.14,35.14,0,0,0-8.85-8.94c-11-7.18-24.94-2.31-35.53,3-10.82,5.48-20.77,12.73-30.23,20.27a215.7,215.7,0,0,0-24,22.92c-16.29,17.71-31,36.91-44.84,56.59-13.35,19-26.49,38.65-33.22,61.12-3.68,12.29-5.59,25.14-6.67,37.91A199,199,0,0,0,499,1262a170.63,170.63,0,0,0,16.9,60,154.23,154.23,0,0,0,31.41,42.56,139.29,139.29,0,0,0,37.48,25.86c3.16,1.46,6.39,2.8,9.66,4,2.28.83,4.93-.93,5.53-3.14a4.59,4.59,0,0,0-3.14-5.53q-2.25-.82-4.47-1.74c-1-.42.75.33-.29-.12l-1.1-.48c-.78-.34-1.56-.7-2.34-1.06-3.07-1.44-6.09-3-9-4.71q-4.65-2.67-9.08-5.7c-1.55-1.07-3.07-2.16-4.58-3.29l-1.11-.83a4.06,4.06,0,0,1-.46-.36l-2.34-1.86A146.46,146.46,0,0,1,545,1349c-1.4-1.58-2.77-3.19-4.09-4.83-.66-.81-1.3-1.62-1.94-2.44h0l-.36-.47-1.17-1.57q-3.89-5.25-7.28-10.82-3.54-5.76-6.54-11.83-1.56-3.15-3-6.38l-.69-1.59c-.29-.68.23.56,0-.13-.11-.27-.23-.53-.34-.8-.47-1.15-.93-2.31-1.37-3.47a162.5,162.5,0,0,1-8.07-28.78,148.78,148.78,0,0,1-2.11-15.46c-.5-5.63-.73-11.29-.73-17a209.57,209.57,0,0,1,3.25-36.58,135.91,135.91,0,0,1,9.69-32c4.93-10.75,11.24-20.8,17.8-30.62a602.82,602.82,0,0,1,40.59-54.31,331.13,331.13,0,0,1,23.83-25.72,191.35,191.35,0,0,1,26.88-21.35,129.33,129.33,0,0,1,13.45-7.9c.88-.44,1.77-.87,2.67-1.28l1.37-.62c.13,0,.86-.36.3-.13l.45-.18c1.67-.66,3.36-1.26,5.08-1.76a38.8,38.8,0,0,1,4.51-1c.22,0,1.23-.17.42-.07s.34,0,.5,0c.66-.06,1.33-.1,2-.11h1.76l.84.06c1,.07.27,0-.09,0a29.47,29.47,0,0,1,3.06.71c.31.1,1.62.65.81.27s.58.28.88.44a22,22,0,0,1,2.35,1.47c.89.61-.89-.79.19.16a14.49,14.49,0,0,1,1.09,1c.62.59,1.21,1.21,1.78,1.86.28.31.55.64.82,1s1.13,1.52.22.26c.5.69,1,1.36,1.51,2,1.11,1.54,2.2,3.09,3.38,4.59,2,2.56,4.49,5,7.74,5.8,4.52,1.16,9.84.45,14.4-.12,3-.38,6-.87,9-1.33a55,55,0,0,1,6.9-.68,32.9,32.9,0,0,1,3.71.1l.93.1c-.22,0-.7-.14.2,0,.62.13,1.24.24,1.86.4a21.61,21.61,0,0,1,7,3.21,4.5,4.5,0,1,0,4.55-7.77h0Z" transform="translate(-300.65 -231.62)"/><path class="cls-4" d="M1276.73,1048.12c14.23-9.5,26.21-.75,44-2,13.89-1,10-47.48,77,5,26,20.39,57.12,61.61,75,88,16.8,24.77,26.37,41.92,31,70,17.24,104.46-43,165-90,182" transform="translate(-300.65 -231.62)"/><path class="cls-5" d="M1279,1052a21.31,21.31,0,0,1,7.21-3.27c.61-.15,1.23-.27,1.85-.38.78-.13-.58.06.2,0l.93-.09a32.52,32.52,0,0,1,4-.06,53.61,53.61,0,0,1,6.92.74c3,.46,6,1,9.07,1.31,6.46.78,13.69,1.73,18.94-2.8,2.47-2.13,4.25-5,6.15-7.65l.72-1c.2-.26,1-1.39.49-.66s.29-.35.48-.59.58-.69.88-1c.57-.64,1.16-1.26,1.79-1.85a12.15,12.15,0,0,1,1-.86c.12-.11.44-.28.51-.42-.23.45-.92.66-.19.16a19.76,19.76,0,0,1,2.37-1.45l.62-.3c.7-.35.51.11-.27.1a5.53,5.53,0,0,0,1.36-.49c.48-.15,1-.28,1.45-.39l.75-.15c.22,0,1.31-.21.39-.08s.13,0,.32,0l.84,0h1.87a17.31,17.31,0,0,1,1.89.13c.21,0,1.19.14.38,0l.68.12a39.41,39.41,0,0,1,4.54,1.08c1.74.52,3.43,1.15,5.11,1.82.19.07.79.33-.08,0l.68.29,1.37.61c1,.45,1.92.91,2.87,1.39,20,10.14,37.29,25.36,52.39,41.79,15.75,17.12,29.8,35.39,43.15,54.37,13,18.43,26,37.51,32.44,58.86a174.62,174.62,0,0,1,6.5,36,199,199,0,0,1,0,34.86,167.57,167.57,0,0,1-5.65,30.29c-1.33,4.68-2.88,9.31-4.64,13.85-1,2.57-1.52,3.83-2.47,6s-2,4.27-3,6.37a152.31,152.31,0,0,1-13.86,22.59c-.31.42-.63.84-1,1.25l-.47.63c.1-.14.51-.66,0,0l-2.06,2.58c-1.34,1.63-2.7,3.23-4.1,4.82-2.69,3-5.5,5.94-8.42,8.73s-5.74,5.27-8.77,7.73c-.72.59-1.46,1.17-2.2,1.75-.16.12-.67.51.09-.07l-.55.43-1.25.93q-2.25,1.68-4.58,3.27a129.81,129.81,0,0,1-18.12,10.35l-2.2,1-1.1.48c-.7.31.85-.34-.29.12-1.43.58-2.88,1.15-4.33,1.68a4.6,4.6,0,0,0-3.14,5.53c.6,2.2,3.24,4,5.53,3.14a133.64,133.64,0,0,0,38.37-22.13,152.33,152.33,0,0,0,33.62-38.48,162.56,162.56,0,0,0,21.17-55.47c4.45-24,3.91-48.61-.21-72.62a143.37,143.37,0,0,0-10.46-34.54c-4.91-10.91-11.26-21.09-17.88-31a626.56,626.56,0,0,0-42-56.22,332.26,332.26,0,0,0-24.19-26.14,206.61,206.61,0,0,0-28.73-22.77c-7.8-5.16-16.16-10-25.18-12.69-5.56-1.65-11.69-2.39-17.36-.8-8.4,2.35-13,9.14-17.86,15.74l-.34.44c-.3.42.84-1,.29-.37l-.75.92a19.85,19.85,0,0,1-1.42,1.48c-.21.19-1.1.92-.3.29s-.13.07-.38.22a4.37,4.37,0,0,0-.77.41c.75-.77,1.16-.39.57-.26a2.07,2.07,0,0,0-.52.16c-.17,0-.29,0-.42.09-.71.24,1.06-.08.65-.08-1.51,0-3,.15-4.54.13a74.64,74.64,0,0,1-8.32-.67c-5.61-.79-11.25-2-16.94-1.93a31.16,31.16,0,0,0-16.59,5.09,4.6,4.6,0,0,0-1.61,6.16,4.54,4.54,0,0,0,6.16,1.61Z" transform="translate(-300.65 -231.62)"/><path class="cls-3" d="M643.69,321.92C577.3,349.3,530.41,416,530.41,494c0,102.36,80.82,185.35,180.5,185.35A176.13,176.13,0,0,0,770,669.16c38.25-37,61.89-87.89,61.89-144.12C831.91,420.14,749.65,333.71,643.69,321.92Z" transform="translate(-300.65 -231.62)"/><path class="cls-1" d="M981.58,408.62h37.36c233.25,0,422.35,189.08,422.36,422.34h0c0,155-125.65,280.65-280.65,280.65H839.88c-155,0-280.65-125.65-280.65-280.65h0c0-233.26,189.09-422.35,422.35-422.35Z" transform="translate(-300.65 -231.62)"/><ellipse cx="822.18" cy="731.68" rx="133.22" ry="85.42" transform="translate(-310.97 1219.98) rotate(-82.52)"/><ellipse class="cls-6" cx="853.17" cy="712.1" rx="44" ry="25.5" transform="translate(-301.65 1191.39) rotate(-79.62)"/><ellipse cx="1184.07" cy="726.7" rx="85.55" ry="133.42" transform="matrix(0.99, -0.13, 0.13, 0.99, -382.59, -77.04)"/><ellipse class="cls-6" cx="1146.51" cy="709.73" rx="25.41" ry="43.84" transform="translate(-410 -12.82) rotate(-10.41)"/><path class="cls-4" d="M325.69,532.12c1,8-9.69,28.93-11,31-8.1,12.8-12.72,31-7,45,10.08,24.69,30.52,29.85,56,22,4.6,20.57,8.94,25.28,8.06,46.34s3.2,44.59,19.9,57.45c13.17,10.14,32.79,10.92,46.71,1.85s19.77-11,15.83-27.14c2.67,10.15.34,5.84,3,16,3.57,13.57,13.82,25.87,23.23,36.28,14.7,16.25,52.18,14,55.77,13.72,8.57-.58,21.68-19.48,22-21" transform="translate(-300.65 -231.62)"/><path class="cls-5" d="M321.19,532.12a12.62,12.62,0,0,1,0,2.3l-.06.54c0,.59.22-1.26.06-.41-.1.55-.19,1.11-.31,1.67a52,52,0,0,1-1.76,6.11c-.39,1.13-.8,2.26-1.24,3.38-.18.47-.36.94-.55,1.4L317,548c-.12.28-.49,1.56-.13.31a41.78,41.78,0,0,1-2.64,5.87,75.5,75.5,0,0,1-3.83,7.36,67.3,67.3,0,0,0-7.67,17.76,53.53,53.53,0,0,0-1.88,19.26,46.32,46.32,0,0,0,5.89,18c5,9,12.87,16.16,22.78,19.41,11.44,3.75,24.09,2,35.36-1.49l-5.54-3.14c1.54,6.85,3.59,13.55,5.4,20.33a85.32,85.32,0,0,1,1.88,8.53c.06.37.11.74.16,1.11.13.87-.09-.79,0,.1s.19,1.69.26,2.54c.15,1.75.23,3.5.27,5.25.16,7.33-.43,14.61.18,22a86.4,86.4,0,0,0,4.2,21.29,57.56,57.56,0,0,0,10.51,18.75,44.35,44.35,0,0,0,18,12.52,45.56,45.56,0,0,0,21.61,2.55,44.81,44.81,0,0,0,10.94-2.64,57.57,57.57,0,0,0,9.93-5.27c4.53-2.91,9.78-5.7,13.21-10a16.7,16.7,0,0,0,3.51-6.93,26.09,26.09,0,0,0,.07-9.2c-.23-1.62-.56-3.22-.95-4.81l-8.66,2.48c.42,1.6.83,3.2,1.13,4.82,0,.27.08.54.14.81.15.75-.12-1.11-.05-.42,0,.37.07.73.09,1.1a43.18,43.18,0,0,0,.86,6.3,65.7,65.7,0,0,0,9.28,21.6,154.72,154.72,0,0,0,15,19,38.32,38.32,0,0,0,13.25,9.59c10.1,4.46,21.21,6.11,32.18,6.62,3.73.17,7.46.2,11.19.07,3.26-.11,6.24-.39,9.22-1.91,4.65-2.38,8.55-6.46,11.92-10.37a67,67,0,0,0,7.66-10.3,8.2,8.2,0,0,0,.84-1.89,4.5,4.5,0,1,0-8.68-2.39c-.14.55.68-1.28.29-.68-.11.18-.2.38-.31.57-.34.59-.72,1.16-1.1,1.73-.51.76-1,1.5-1.57,2.23l-.89,1.17c-.64.85.48-.62,0,0-.2.24-.39.49-.58.73a67.59,67.59,0,0,1-5,5.69c-.87.89-1.77,1.76-2.7,2.59-.42.37-.84.73-1.27,1.08a2.44,2.44,0,0,0-.43.35s.77-.58.38-.3-.49.37-.74.54a24,24,0,0,1-2.71,1.63l-.3.14c-.48.26,1-.35.46-.2l-.59.22c-.43.08-.85.18-1.27.3,1.08-.46.9-.1.4-.08h-.49l-1.32.07c-3.2.14-6.42.17-9.63.08-2.21-.06-4.41-.16-6.62-.33-1.24-.1-2.49-.21-3.73-.34l-1.7-.2c-.33,0-.67-.11-1-.12.87,0,.48.06-.1,0a76.87,76.87,0,0,1-15.13-3.63c-.56-.2-1.1-.41-1.65-.63l-.54-.22.41.18-.93-.41c-1.13-.52-2.23-1.08-3.31-1.69a35.94,35.94,0,0,1-3.17-2c-.14-.11-.86-.69-.31-.23s-.17-.13-.3-.24a17.36,17.36,0,0,1-1.42-1.25,92.55,92.55,0,0,1-6.57-7.29c-1.27-1.48-2.51-3-3.72-4.49l-.81-1s-.44-.58-.18-.23-.16-.23-.17-.24c-.62-.81-1.22-1.62-1.82-2.44a85,85,0,0,1-6-9.48c-.43-.81-.85-1.63-1.25-2.45-.19-.39-.36-.77-.54-1.15-.09-.19-.17-.39-.26-.58-.34-.75.06.19-.12-.27a49.11,49.11,0,0,1-1.79-5.11c-.48-1.64-.89-3.32-1.24-5-.11-.54-.2-1.08-.3-1.62-.14-.75.12,1.11,0,.42a1.91,1.91,0,0,0-.06-.58q-.18-2.77-.63-5.52c-.29-1.58-.69-3.14-1.1-4.69a4.53,4.53,0,0,0-5.53-3.14,4.6,4.6,0,0,0-3.15,5.53c.19.78.37,1.56.53,2.35.08.4.15.79.22,1.18,0,.2.25,1.36.12.69s.05.45.06.61a5.08,5.08,0,0,0,.07.87c0,.62.06,1.25,0,1.88v.76c0,.25-.15,1.22,0,.36s0,0,0,.2a4.57,4.57,0,0,1-.2.87c-.08.29-.48,1-.43,1.33,0-.3.48-1,.12-.31-.13.25-.25.5-.39.74-.23.4-.5.76-.75,1.15-.14.22.73-.86.18-.24l-.58.66a22.57,22.57,0,0,1-2.34,2.14c-.51.41-.38.19.11-.08-.26.15-.51.38-.75.55-.52.39-1.06.76-1.6,1.13-1.16.78-2.34,1.54-3.52,2.3a92.19,92.19,0,0,1-8.29,5.06l-1.18.56c-.32.14-1,.42-.3.14-.81.31-1.62.63-2.44.9a41.12,41.12,0,0,1-4.87,1.3c-.8.16-1.59.29-2.4.41.92-.14-.11,0-.47,0l-1.3.11a47.26,47.26,0,0,1-5.05,0,22.09,22.09,0,0,1-2.43-.19c-.38,0-1.1-.14-.29,0l-1.48-.23a43.14,43.14,0,0,1-4.9-1.18c-.77-.23-1.54-.49-2.3-.77l-1-.4c-.18-.07-.78-.36,0,0l-.68-.31a37,37,0,0,1-4.43-2.39c-.69-.43-1.36-.88-2-1.35-.26-.2-.89-.68-.27-.19l-1.13-.92a39.69,39.69,0,0,1-3.52-3.34c-.53-.56-1-1.13-1.54-1.72l-.67-.83c-.06-.06-.43-.53-.09-.1s-.29-.38-.29-.39a44.17,44.17,0,0,1-2.56-3.84c-.83-1.38-1.58-2.8-2.28-4.25-.34-.67-.67-1.38-1-2.13.36.84,0-.11-.17-.42l-.45-1.19a69.5,69.5,0,0,1-2.77-9.48c-.36-1.64-.66-3.28-.92-4.93-.07-.43-.13-.86-.2-1.29a1.31,1.31,0,0,1,0-.28c-.1-.87-.2-1.74-.29-2.6-.7-7-.34-13.91-.31-20.92a82.42,82.42,0,0,0-2.05-19.17c-1.4-6-3.32-11.84-4.84-17.8-.5-2-1-4-1.42-5.93a4.53,4.53,0,0,0-5.53-3.14c-2.66.81-5.35,1.52-8.07,2.08-1.24.25-2.48.47-3.73.66-.24,0-1.34.28-.13,0-.32.07-.67.08-1,.12l-2,.18a49.86,49.86,0,0,1-7.23.07c-.5,0-1-.07-1.51-.12l-.89-.1c-1.06-.12,1.06.17,0,0s-2.12-.36-3.16-.61-2.05-.53-3.05-.87c-.54-.18-1.08-.37-1.61-.58s-.71-.57,0,0a3.88,3.88,0,0,0-.78-.35,32.35,32.35,0,0,1-5.66-3.31l-.23-.17.22.17a3.94,3.94,0,0,1-.46-.36c-.45-.37-.9-.75-1.33-1.15a34,34,0,0,1-2.55-2.54c-.34-.38-.68-.76-1-1.16l-.59-.72c-.69-.84.57.8-.07-.09s-1.45-2-2.11-3.1a56.53,56.53,0,0,1-3.62-7c.43,1-.06-.17-.12-.31-.14-.36-.27-.71-.39-1.07-.21-.59-.41-1.2-.58-1.8a36.21,36.21,0,0,1-1-4.48c-.21-1.26.08,1,0-.33,0-.32-.07-.64-.09-1-.07-.71-.11-1.42-.13-2.13a43.55,43.55,0,0,1,.08-4.71,19.74,19.74,0,0,1,.17-2c0-.14.18-1.46,0-.39l.18-1.18q.38-2.28.93-4.53a66.55,66.55,0,0,1,2.8-8.61c.48-1.23-.37.81.16-.4.16-.36.32-.73.49-1.09.27-.6.55-1.19.85-1.79a45.55,45.55,0,0,1,2.22-4.11c1.41-2.4,2.73-4.81,3.94-7.32a147.39,147.39,0,0,0,6-14.27,55.88,55.88,0,0,0,2-6.81,20.58,20.58,0,0,0,.61-6.49c-.26-2.34-1.88-4.62-4.5-4.5-2.21.09-4.78,2-4.5,4.5Z" transform="translate(-300.65 -231.62)"/><path class="cls-4" d="M882.45,435.84c-4.36-30.55,6.14-62,24.1-87s42.9-44.42,69.27-60.43c18.26-11.09,41.68-20.75,60.07-9.88,16.46,9.73,20.82,33,14,50.87s-22.06,31.13-37.92,41.81a127,127,0,0,1,51.19-27.62c17.45-4.69,38.34-4.71,51,8.17,13.12,13.31,11.85,36.46.75,51.5s-29.59,23-48,26.29" transform="translate(-300.65 -231.62)"/><path class="cls-5" d="M886.79,434.67c-.2-1.39.09.91-.07-.48l-.15-1.27q-.12-1.05-.21-2.1c-.14-1.55-.24-3.09-.31-4.64-.13-3.09-.12-6.19,0-9.27.07-1.41.16-2.81.29-4.21.06-.77.14-1.54.22-2.31l.12-1.05c0-.17.25-1.88.11-.89.4-2.93.93-5.85,1.55-8.74a123.73,123.73,0,0,1,5.38-17.87c.51-1.32,1-2.64,1.58-4-.36.85.19-.44.22-.5l.51-1.17c.35-.78.7-1.56,1.06-2.33q1.89-4.06,4-8a146,146,0,0,1,10-15.8c.83-1.14,1.67-2.27,2.53-3.38-.55.72.3-.38.33-.42l.79-1,1.59-2q2.88-3.5,5.93-6.84c4.12-4.51,8.47-8.82,13-12.93q3.45-3.12,7-6.1c1.08-.91,2.17-1.8,3.27-2.69l1.65-1.32,1-.78.67-.52.21-.17.55-.43,1-.77,1.7-1.27c1.24-.93,2.5-1.85,3.76-2.76q3.78-2.71,7.65-5.33c5.08-3.42,10.25-6.73,15.51-9.86q3.88-2.31,7.9-4.4c1.39-.71,2.79-1.41,4.2-2.07.65-.3,1.3-.6,2-.88l1-.43.59-.25h.1a87.2,87.2,0,0,1,8.75-3.07c1.33-.38,2.66-.71,4-1,.66-.14,1.33-.28,2-.4.4-.08.8-.15,1.21-.21a7.39,7.39,0,0,0,1-.16l.6-.07,1.2-.11c.66-.06,1.32-.1,2-.13,1.45-.06,2.9,0,4.34,0,.72,0,1.43.13,2.15.19s-1.08-.19.15,0l1.16.2a35.13,35.13,0,0,1,4.17,1c.62.2,1.24.42,1.86.65.11,0,1.31.56.39.15.31.14.61.27.91.42a33.12,33.12,0,0,1,3.82,2.12c.46.3.91.61,1.35.94.18.13,1,.83.13.09l.51.41a34.47,34.47,0,0,1,2.72,2.55c.4.43.8.87,1.18,1.32.21.24,1.37,1.47.51.6a16.82,16.82,0,0,1,2,2.95,33.92,33.92,0,0,1,1.7,3.15,11.76,11.76,0,0,1,.68,1.49c-.36-1.13,0-.08,0,.14a4.53,4.53,0,0,0,.35.92,45.07,45.07,0,0,1,1.92,7.05c.1.55.19,1.1.28,1.65.18,1.14-.11-1,0,.14,0,.22.05.44.07.67.15,1.34.23,2.69.26,4a54.14,54.14,0,0,1-.35,7.09c-.13,1.16.17-1,0,.15a4.64,4.64,0,0,1-.14.83c-.1.62-.21,1.22-.34,1.83-.25,1.21-.55,2.41-.89,3.59s-.7,2.24-1.11,3.34c-.11.3-.23.6-.35.9,0,.1-.55,1.32-.15.39-.31.73-.63,1.45-1,2.16a64.82,64.82,0,0,1-4.25,7.54q-1.08,1.65-2.25,3.24l-.71.94c.1-.14.51-.64,0,0s-1,1.24-1.5,1.84c-1.87,2.24-3.86,4.38-5.94,6.43s-4.28,4-6.52,5.94q-1.55,1.29-3.12,2.55l-1,.74c-1,.8.42-.31-.2.16l-2.09,1.57c-2.26,1.67-4.55,3.28-6.88,4.85l5.46,7.07c1.48-1.32,3-2.61,4.54-3.85l1.16-.93.5-.39c-.57.44,0,0,.1-.08.79-.6,1.59-1.2,2.39-1.78,3.21-2.33,6.53-4.52,9.94-6.54a108.93,108.93,0,0,1,10.71-5.67c.83-.4,1.67-.78,2.51-1.15l1.37-.6.58-.25c-.59.25,0,0,.3-.12q2.76-1.12,5.56-2.13a113.5,113.5,0,0,1,11.14-3.39c1.68-.42,3.37-.8,5.08-1.11.86-.17,1.72-.31,2.58-.45l1.12-.16c.68-.11-.77.09-.08,0l.74-.09a70,70,0,0,1,10.64-.46c1.73.06,3.44.22,5.15.41-.82-.09-.16,0,.25.05s.83.13,1.25.21c.89.16,1.78.35,2.66.56a42.56,42.56,0,0,1,4.79,1.45l1,.38c.78.3.05,0-.09,0l.49.22c.81.36,1.6.75,2.38,1.17a37.55,37.55,0,0,1,4.19,2.67c.07,0,.54.42.11.08s.14.12.25.21c.32.26.64.54,1,.82.63.56,1.24,1.14,1.82,1.75s1.1,1.19,1.62,1.82c.26.31.59.81.15.17.26.38.53.74.79,1.12a34,34,0,0,1,2.39,4.14c.17.36.33.72.49,1.08s-.11-.26-.12-.29l.25.63c.29.75.55,1.5.79,2.26a37.3,37.3,0,0,1,1.11,4.67c0,.15.23,1.41.13.77s.07.6.08.78c.09.86.15,1.73.19,2.6a42.18,42.18,0,0,1-.1,4.9,6.74,6.74,0,0,1-.23,2.28c0-.08.16-1.06,0-.15a1.18,1.18,0,0,1-.08.52c-.08.47-.16.93-.25,1.4a44.48,44.48,0,0,1-1.2,4.81c-.23.73-.47,1.46-.73,2.18-.14.39-.29.78-.44,1.16-.06.17-.13.33-.2.5-.42,1.06.26-.54,0,.06-.7,1.5-1.4,3-2.23,4.42a45,45,0,0,1-2.71,4.12c-.11.16-.23.32-.35.47.5-.67.1-.12,0,0l-.86,1.05c-.58.69-1.17,1.36-1.79,2-1.22,1.32-2.51,2.57-3.85,3.76-.68.6-1.36,1.17-2.06,1.74-.17.14-1.19.92-.45.36-.41.31-.82.62-1.24.92a71,71,0,0,1-9.26,5.63q-2.44,1.25-5,2.31c.71-.3-.1,0-.37.15l-1.28.5c-.92.36-1.84.69-2.77,1a99.56,99.56,0,0,1-10.58,3c-1.77.41-3.56.77-5.36,1.1-2.32.42-3.84,3.37-3.14,5.53a4.63,4.63,0,0,0,5.53,3.15c15.51-2.81,30.92-8.78,42.73-19.46,11.2-10.12,18-24.79,17.22-40a40.4,40.4,0,0,0-6.51-20.66,38.73,38.73,0,0,0-17.88-14c-14.09-5.72-30.58-3.81-44.8.41a132.84,132.84,0,0,0-45.39,23.93c-1.6,1.29-3.17,2.63-4.71,4-3.79,3.36,1.2,9.94,5.46,7.07,19.8-13.38,39.66-31.42,42.82-56.45a49.45,49.45,0,0,0-5.84-30.66,38,38,0,0,0-11.14-12.1,38.56,38.56,0,0,0-17.63-6.34c-12.82-1.5-25.76,3-37.13,8.5s-22.19,12.7-32.52,20.06c-21.06,15-40.44,32.88-54.45,54.79s-22.62,48-21.29,74.13c.18,3.37.55,6.71,1,10,.33,2.34,3.43,3.83,5.53,3.15,2.57-.83,3.5-3,3.15-5.54Z" transform="translate(-300.65 -231.62)"/><path class="cls-4" d="M589.66,1531.14c-8.45-30.83-26.13-60.8-42.94-88-7.23-11.72-15.49-23.28-27.06-30.8-27.07-17.58-64.58-7.61-89.76,12.56-23.57,18.89-40.62,47.11-41.52,77.22-.84,28.13,11.93,54.68,24.4,79.93,17.71,35.84,41.59,67.57,65.89,99.33,67.29,87.94,138.18,97.15,171.27,47.71,2.23-3.33-3.19,4.15,0,0,14.51-18.9,7.17-29,5.58-41.14s-13.81-31.76-20.09-42.25" transform="translate(-300.65 -231.62)"/><path class="cls-5" d="M594,1530c-7.89-28.6-22.55-54.87-37.85-80.07-7.14-11.76-14.25-23.91-24.26-33.51a61.56,61.56,0,0,0-33.59-16.79c-25.13-3.7-50.75,5.86-70.42,21.22-19.91,15.54-35.57,37.77-41.45,62.51a98,98,0,0,0-.52,41.48c2.76,14.34,8.2,28,14.25,41.24s12.67,26.51,20,39.2,15.29,24.77,23.66,36.67,17.17,23.63,26,35.25c9.08,11.91,18.35,23.62,28.75,34.42,16.28,16.93,35.06,32.43,56.57,42.21,16.44,7.48,34.49,11.58,52.52,8.65a67.29,67.29,0,0,0,40.15-23.15c1.43-1.69,2.79-3.45,4.1-5.24a17.68,17.68,0,0,0,2.9-4.66,4.54,4.54,0,0,0-3.21-5.55,4.33,4.33,0,0,0-1.13-.15c-2.38.14-3.36,1.46-4.61,3.16a5.4,5.4,0,0,0-1.47,3.51c.14,3,3.85,6.1,6.77,3.89a13.06,13.06,0,0,0,2.64-2.91,60.39,60.39,0,0,0,3.92-5.73,41.34,41.34,0,0,0,4.45-10.31,37.76,37.76,0,0,0,0-17.56c-.53-2.51-1.19-5-1.71-7.51s-.79-5.17-1.48-7.71c-1.85-6.78-5-13.24-8.3-19.44-3.54-6.7-7.47-13.18-11.37-19.67a4.5,4.5,0,1,0-7.83,4.43l.06.11c3.2,5.34,6.43,10.67,9.45,16.12a115.54,115.54,0,0,1,8.37,17.8c1.65,4.81,2.18,9.88,3.35,14.81.26,1.1.51,2.19.75,3.29.12.59.24,1.17.34,1.75.08.39.36,2.36.2,1.07a32.4,32.4,0,0,1,.08,7.56c.13-1.16,0,.09-.06.28-.07.37-.14.75-.23,1.12-.17.79-.38,1.56-.61,2.33a22.25,22.25,0,0,1-2,4.75,49.11,49.11,0,0,1-3.36,5.51c-.34.5-.69,1-1,1.47-.06.09-1.3,1.69-.43.58-.42.53-1.32,1.29.27.09l6.77,3.88h0l-.62,2.27a7,7,0,0,1,.72-1c.16-.23.34-.44.49-.67.35-.5-.9,1-.33.45l-3.18,1.32h0l-4.34-5.69c.52-1.59.52-1.11.16-.59-.22.31-.42.63-.63.94-.59.87-1.19,1.72-1.81,2.56l-.89,1.17c.73-1-.22.27-.39.49-.64.78-1.29,1.56-2,2.32a69.19,69.19,0,0,1-8.24,8l-1,.75c1-.81-.17.13-.41.31-.76.56-1.54,1.11-2.33,1.64q-2.28,1.55-4.7,2.88c-1.6.88-3.25,1.67-4.92,2.42l-.54.23c1-.45.49-.2.26-.11l-1.24.49-2.66,1a69.24,69.24,0,0,1-10.81,2.53c-.27,0-.87.08.28,0l-.6.08-1.53.16c-.93.09-1.85.16-2.78.21-1.95.11-3.89.13-5.84.08s-4-.19-6-.41a9.55,9.55,0,0,1-1.31-.15c-.07,0-1.16-.15-.39,0s-.33,0-.4-.06c-1-.15-2-.32-3-.5a94.85,94.85,0,0,1-12.63-3.28c-2.19-.72-4.35-1.52-6.49-2.38-.19-.08-1.81-.75-.87-.35l-1.42-.62c-1.2-.52-2.4-1.07-3.58-1.64a140.42,140.42,0,0,1-13.25-7.25,177.74,177.74,0,0,1-26.87-20.41c-20.64-18.69-37.3-41-53.8-63.31-16.85-22.79-32.86-46.33-45.66-71.68-12.32-24.4-25.41-50.75-25.12-78.53a84.45,84.45,0,0,1,.58-9.13,7.16,7.16,0,0,1,.12-1c-.09.66.05-.37.08-.51.1-.73.22-1.46.35-2.19.25-1.46.55-2.91.87-4.35.69-3,1.54-6,2.53-9,.91-2.72,2-5.49,2.94-7.68A108.1,108.1,0,0,1,420,1440.31a104.32,104.32,0,0,1,27.86-21.78,87.37,87.37,0,0,1,16-6.79c2.77-.87,5.58-1.62,8.43-2.23,1.41-.29,2.82-.56,4.25-.79.26,0,1.8-.26,1.17-.18.86-.11,1.73-.2,2.6-.29a74.43,74.43,0,0,1,8.71-.31c1.33,0,2.65.1,4,.21.7.06,1.39.14,2.09.21h.18l1.38.21a58.5,58.5,0,0,1,8.34,2,42.43,42.43,0,0,1,7.33,3c11.08,5.64,19.25,15.14,26.07,25.32,7.82,11.66,15,23.9,21.8,36.15a309.52,309.52,0,0,1,18.43,38,195.26,195.26,0,0,1,6.64,19.3c1.54,5.58,10.22,3.21,8.68-2.39Z" transform="translate(-300.65 -231.62)"/><path class="cls-6" d="M935.69,960.12h128a62,62,0,0,1,62,62h0a62,62,0,0,1-62,62h-128a62,62,0,0,1-62-62h0A62,62,0,0,1,935.69,960.12Z" transform="translate(-300.65 -231.62)"/><path class="cls-7" d="M1057.41,1083.64a173.49,173.49,0,0,1-16.33-29.18c-17.65-5-29.75-19.37-37.28-36.41-4.12,10-10.23,18.81-19.56,24.67-4.8,6.7-10.88,12.06-19.22,14.39a4.59,4.59,0,0,1-5.66-2.64c-63,97.57-28.89,149.64-7.75,169.6,33.55,31.68,80.22,27.41,116.12-10.62C1113.07,1165.43,1076.87,1112.22,1057.41,1083.64Z" transform="translate(-300.65 -231.62)"/><path class="cls-8" d="M1033.68,1294.47a5.15,5.15,0,0,1-7.27.21h0c-22.24-21-57.18-126.91-29.25-215.5a5.14,5.14,0,1,1,9.81,3.09h0c-28.21,89.47,9,188.43,26.5,204.93A5.16,5.16,0,0,1,1033.68,1294.47Z" transform="translate(-300.65 -231.62)"/><path class="cls-4" d="M1435.38,1530c8.45-30.83,26.12-60.81,42.93-88,7.24-11.72,15.49-23.28,27.06-30.8,27.07-17.58,64.58-7.62,89.76,12.56,23.57,18.89,40.63,47.11,41.53,77.22.83,28.13-11.94,54.68-24.41,79.93-17.7,35.84-41.58,67.56-65.89,99.33-67.29,87.94-138.18,97.14-171.26,47.71-2.23-3.33,3.19,4.15,0,0-14.51-18.9-7.17-29-5.58-41.14s13.8-31.76,20.09-42.25" transform="translate(-300.65 -231.62)"/><path class="cls-5" d="M1439.72,1531.23c7.55-27.4,21.56-52.51,36.19-76.69,6.82-11.27,13.38-22.76,22.65-32a52.76,52.76,0,0,1,30.14-15.33l.92-.13c-.74.1.24,0,.42,0,.7-.08,1.39-.15,2.09-.21,1.47-.12,3-.19,4.43-.21a74.92,74.92,0,0,1,8.73.4l1.89.22c-.71-.09.29,0,.46.07l.94.15c1.51.24,3,.53,4.49.85,2.92.64,5.81,1.43,8.65,2.35a89,89,0,0,1,15.77,6.8A103.72,103.72,0,0,1,1592,1427c18.85,15.1,33.15,35.58,38.34,59.09a77.11,77.11,0,0,1,1.9,17.53,94.08,94.08,0,0,1-2.16,20c-2.93,13.73-8.2,26.81-14.11,39.49s-12.28,25.39-19.4,37.57-15,24.24-23.24,35.9-16.59,22.85-25.15,34.09a384.86,384.86,0,0,1-27.1,32.54c-15.89,16.68-33.15,31.16-54.08,41l-3,1.38c-.21.09-2,.84-1.06.46l-1.76.72c-2.08.83-4.19,1.6-6.31,2.29a96.45,96.45,0,0,1-12.62,3.22c-1,.18-2,.33-3,.48-.23,0-.88.11.21,0l-.66.08-1.64.19c-2,.2-4,.33-6,.37s-3.88,0-5.82-.1c-.93,0-1.86-.13-2.78-.22l-1.21-.22H1421c.75.1-.15,0-.31,0a63.36,63.36,0,0,1-10.8-2.58c-.84-.28-1.68-.58-2.51-.9l-1.1-.44c-.94-.36.72.33.12,0l-.81-.35c-1.67-.75-3.31-1.57-4.9-2.46s-3.09-1.82-4.57-2.83c-.74-.5-1.48-1-2.2-1.56l-.48-.37c-.82-.6.57.48.07.06s-.79-.63-1.18-1a68,68,0,0,1-8.09-7.92c-.63-.73-1.25-1.46-1.85-2.21l-.4-.51c-.68-.83.41.57,0,0s-.59-.78-.88-1.18c-.58-.79-1.16-1.6-1.71-2.42-.21-.31-.41-.64-.63-.94-.35-.47-.4-1.14.15.58l-4.34,5.7h0l-3.18-1.32c.57.53-.61-.84-.34-.45l.49.66a9.08,9.08,0,0,1,.72,1l-.61-2.27h0l6.77-3.88c1.48,1.12.83.6.42.1s.12.15.16.22l-1.11-1.49a52.26,52.26,0,0,1-3.45-5.38,26.58,26.58,0,0,1-3.22-8.37c-.06-.31-.13-.62-.18-.94s-.2-1.43-.06-.27c-.07-.6-.13-1.2-.16-1.79a28.34,28.34,0,0,1,.06-4.12,13.21,13.21,0,0,1,.18-1.65c-.17,1.32.08-.43.13-.75.23-1.27.5-2.54.79-3.8.53-2.29,1.12-4.57,1.54-6.88a69.59,69.59,0,0,1,1.56-7.57c.42-1.38.89-2.74,1.41-4.09.29-.75.58-1.5.89-2.24-.26.64,0-.06.07-.16.25-.55.49-1.11.74-1.66,1.43-3.15,3-6.23,4.63-9.28,3.36-6.25,7-12.32,10.7-18.41a4.5,4.5,0,0,0-7.78-4.54h0c-7.06,11.77-14.69,23.71-19,36.85a60.12,60.12,0,0,0-1.86,8.39c-.43,2.42-1,4.8-1.6,7.2-1.31,5.71-2,11.35-.94,17.17a37.07,37.07,0,0,0,4.19,11.23,51.73,51.73,0,0,0,4.12,6.34,16.46,16.46,0,0,0,3.21,3.66c2.91,2.21,6.62-.85,6.77-3.89a5.45,5.45,0,0,0-1.47-3.51c-1.25-1.7-2.23-3-4.62-3.16a4.54,4.54,0,0,0-4.49,4.59,4.18,4.18,0,0,0,.15,1.11,17.78,17.78,0,0,0,2.91,4.66c1.37,1.88,2.8,3.71,4.31,5.48a68.71,68.71,0,0,0,29.34,20.23c16,5.61,33.74,4.37,49.72-.74,21.14-6.76,39.93-19.62,56.36-34.29,21.57-19.27,38.85-42.53,56-65.68,17.32-23.4,33.78-47.6,46.79-73.71,12.93-25.94,26.5-53.75,25.53-83.49-.85-25.94-13-50.37-30.71-69-17.36-18.3-40.73-31.47-66.1-33.8a66.81,66.81,0,0,0-35.68,6.23c-12.23,6-21.44,16.44-29,27.53-4,5.78-7.56,11.82-11.19,17.82-3.78,6.24-7.5,12.52-11.07,18.89a328,328,0,0,0-19.56,40.33,195.46,195.46,0,0,0-6.77,20.11c-1.55,5.59,7.13,8,8.68,2.39Z" transform="translate(-300.65 -231.62)"/><ellipse class="cls-6" cx="712.04" cy="1232" rx="223" ry="196.5"/><path class="cls-9" d="M1000.36,737.1c-64.43,2.5-81.83,108.7-94.89,184.06-18,103.88,213.5,95.7,202.87,4.91C1099.94,854.38,1070.3,734.39,1000.36,737.1Z" transform="translate(-300.65 -231.62)"/><path class="cls-10" d="M958.93,850.89c-7.75-1.84-27.74,26.87-24,57.62C937,926,947.19,947,954,945.85,967.61,943.65,971.7,853.93,958.93,850.89Z" transform="translate(-300.65 -231.62)"/><path class="cls-11" d="M1000.69,987.12c1.54,5,5.14,19.3-1,35-6.59,16.87-23.14,32.1-44,33-22.81,1-44.59-15.47-51-40" transform="translate(-300.65 -231.62)"/><path class="cls-11" d="M1007.15,987.12c-1.54,5-5.14,19.3,1,35,6.59,16.87,23.14,32.1,44,33,22.82,1,44.59-15.47,51-40" transform="translate(-300.65 -231.62)"/><path class="cls-4" d="M1437.73,1379.12c-11.41,7-26.8,13.41-40,15.5-96.11,15.15-197.35,22.51-288.23-12.26-39.11-15-76.69-38.93-97.42-75.31-21.56-37.84-22.25-83.61-22.37-127.16-.06-22.14.38-45.92,13.29-63.9,8.18-11.39,20.57-19.13,33.55-24.44,54-22.15,96.23,25.41,129.21,73.57,9.17,13.38,33.15,44.56,47,53,8.27,5,33.35,10.31,43,11,31.27,2.23,76-1.16,101-20" transform="translate(-300.65 -231.62)"/><path class="cls-5" d="M1435.46,1375.23a120.88,120.88,0,0,1-25.6,11.78c-9.32,3-19,4.18-28.66,5.6-19.86,2.93-39.78,5.41-59.77,7.19-40.26,3.59-80.94,4.39-121.14-.27-38.17-4.43-76.59-13.9-111.2-30.89-31-15.23-59.59-37.38-75.72-68.58-17.54-34-18.89-73.51-19.14-110.92-.13-18-1-36.83,4.46-54.27a54.67,54.67,0,0,1,13-22.31c6.2-6.31,13.76-11,21.72-14.79,14.27-6.72,29.94-9.32,45.37-5.4,15,3.82,28.24,12.69,39.64,22.94,13,11.68,24.14,25.28,34.4,39.36,8.61,11.8,16.73,23.85,25.89,35.25,8.75,10.89,18,22.32,29.42,30.55,4.88,3.52,10.78,5.4,16.5,7.06a191.17,191.17,0,0,0,21.55,4.85c14.38,2.39,29.29,2.27,43.8,1.25,16.72-1.18,33.72-3.88,49.38-10.08A84.83,84.83,0,0,0,1359,1213c1.94-1.45,2.93-3.89,1.61-6.16-1.12-1.91-4.2-3.07-6.16-1.61-12.8,9.53-28.55,14.18-44.08,16.94a221.53,221.53,0,0,1-49,2.78,142.78,142.78,0,0,1-39.81-7.85,37.07,37.07,0,0,1-12.88-7.76,169.08,169.08,0,0,1-15.14-15.73c-21-24.25-37-52.41-59.29-75.58-11.54-12-24.79-23.07-40.13-29.8-15-6.57-31.26-8.56-47.27-4.75-17.52,4.17-35.36,14.09-46.42,28.5-11.62,15.13-14.44,34.6-15.05,53.15-.62,19.07-.31,38.34.82,57.38,1.16,19.51,3.67,39.14,9.53,57.84a143.11,143.11,0,0,0,26.71,49.29c11.31,13.52,25.11,24.88,39.94,34.34,32.38,20.66,70.11,32.94,107.67,40,40.43,7.6,81.79,9,122.81,6.87,20.6-1.08,41.15-3,61.62-5.58q15.39-1.92,30.77-4.21c9.78-1.45,19.48-2.77,28.88-6a132.55,132.55,0,0,0,25.92-12.08c4.94-3,.42-10.79-4.55-7.77Z" transform="translate(-300.65 -231.62)"/><path class="cls-12" d="M991.9,1140.35c1.91-9,5.12-17.56,10.53-25.09,8.17-11.39,20.57-19.13,33.54-24.45,40.84-16.74,74.94,6.38,103.41,39.46" transform="translate(-300.65 -231.62)"/><path class="cls-5" d="M996.24,1141.54a79.06,79.06,0,0,1,2.75-9.91c.23-.67.48-1.34.73-2,.16-.4.32-.79.47-1.19.52-1.29-.36.78.22-.49.7-1.55,1.43-3.09,2.25-4.59a45,45,0,0,1,2.43-4c.43-.66.88-1.31,1.34-1.94l.6-.82h0c.16-.21.33-.42.5-.62a57.53,57.53,0,0,1,6.38-6.68c1.1-1,2.24-1.93,3.39-2.85-.75.6.3-.23.37-.28l1-.72c.65-.48,1.31-.94,2-1.39a87.22,87.22,0,0,1,8.37-5c1.32-.69,2.66-1.35,4-2,.61-.29,1.23-.57,1.84-.84l1.12-.49.74-.33h0a82.59,82.59,0,0,1,8.8-3.08,69.9,69.9,0,0,1,8.61-1.89c.18,0,1.43-.2.28,0l1.1-.14,1.83-.18c1.45-.13,2.9-.2,4.35-.23a64.17,64.17,0,0,1,8.54.39l.7.08c1.19.14-1-.16.2,0l2.09.34c1.38.24,2.76.53,4.12.86a70,70,0,0,1,7.76,2.34c1.23.45,2.44.92,3.65,1.42-1-.43.07,0,.23.11l1,.44,2,.92a101.32,101.32,0,0,1,14.82,8.92c.62.44,1.23.88,1.84,1.34l.91.68.61.47h0c1.31,1,2.61,2.09,3.89,3.17,2.61,2.19,5.14,4.48,7.61,6.83a211.38,211.38,0,0,1,14.52,15.39,4.53,4.53,0,0,0,6.36,0,4.62,4.62,0,0,0,0-6.36c-16-18.6-35.56-36.56-59.68-43.53a72.06,72.06,0,0,0-35.9-1,92,92,0,0,0-18.84,6.8,89.62,89.62,0,0,0-17.16,10.6,62.22,62.22,0,0,0-15,17,73,73,0,0,0-8.39,22.19c-.49,2.3.68,5,3.14,5.54,2.27.51,5-.68,5.54-3.15Z" transform="translate(-300.65 -231.62)"/><path class="cls-4" d="M571.69,1378.12c11.42,7,26.81,13.41,40,15.5,96.11,15.15,197.35,22.51,288.23-12.26,39.11-15,76.69-38.93,97.42-75.31,21.56-37.84,22.25-83.61,22.36-127.16.06-22.14-.37-45.92-13.28-63.9-8.18-11.39-20.58-19.13-33.55-24.44-54-22.15-96.23,25.41-129.22,73.57-9.16,13.38-33.14,44.56-47,53-8.26,5-33.34,10.31-43,11-31.26,2.23-75.94-1.16-101-20" transform="translate(-300.65 -231.62)"/><path class="cls-5" d="M569.42,1382a130.77,130.77,0,0,0,26.66,12.32c9.41,3.14,19.17,4.41,29,5.85,20.51,3,41.09,5.65,61.75,7.52,40.92,3.71,82.29,4.56,123.16-.26,39.35-4.63,78.57-14.29,114.3-31.71,32-15.58,61.66-38.6,78.7-70.42,18.64-34.84,20.88-75.36,21.24-114.06.17-18.58,1-37.8-3.69-56a67.79,67.79,0,0,0-12.15-25.22A72,72,0,0,0,987,1092.3c-15-8.5-32.24-13.54-49.57-11.35-16,2-30.53,9.29-43.21,19-14.15,10.82-26.17,24.08-37.09,38.09-9.56,12.25-18,25.3-27.44,37.63-8.87,11.59-18.27,23.29-29.26,33a37.29,37.29,0,0,1-13,7.6,167.37,167.37,0,0,1-21.69,5.54c-1.63.32-3.27.62-4.91.89l-2.27.36c-1.25.19-.73.12-1.78.25-3.17.38-6.37.54-9.57.68q-12,.52-24.1-.13c-16.57-.91-33.31-3.44-48.9-9.3A78.33,78.33,0,0,1,655,1204.23c-2-1.45-5-.32-6.16,1.61-1.34,2.3-.34,4.7,1.61,6.16,12.81,9.54,28.72,14.54,44.24,17.48a227.85,227.85,0,0,0,49.47,3.62,163.31,163.31,0,0,0,41.45-6.82c5.6-1.66,11.27-3.57,16-7a106.8,106.8,0,0,0,14.59-13.45,355.15,355.15,0,0,0,27.88-34.39c9.57-13.28,18.69-26.77,29.44-39.15,20.06-23.09,47.19-46.28,79.94-42.34a74.74,74.74,0,0,1,23.18,7.19c8.06,3.86,15.65,8.74,21.82,15.25,12.44,13.11,15.72,31.4,16.53,48.83.42,9.24.3,18.5.23,27.74-.07,9.71-.25,19.42-.74,29.11-1,18.9-3.17,37.82-8.52,56a133.36,133.36,0,0,1-24.61,47.43,165.1,165.1,0,0,1-38.78,33.73c-31.67,20.21-68.41,32.07-105.12,39-39.49,7.46-80,8.71-120,6.66-20.19-1-40.33-2.92-60.4-5.37q-15-1.85-30-4.08c-9.65-1.43-19.26-2.69-28.55-5.79a120.26,120.26,0,0,1-24.5-11.41c-5-3-9.49,4.76-4.55,7.77Z" transform="translate(-300.65 -231.62)"/><path class="cls-12" d="M1016.84,1140.16c-1.91-9-5.12-17.56-10.52-25.09-8.18-11.39-20.58-19.12-33.55-24.44-40.84-16.74-74.94,6.37-103.4,39.46" transform="translate(-300.65 -231.62)"/><path class="cls-5" d="M1021.18,1139c-2.94-13.74-9.24-26.51-19.72-36a91.22,91.22,0,0,0-35.16-19.34,72.21,72.21,0,0,0-36.34-1.25c-11.53,2.59-22.35,8.06-32,14.85-11.9,8.42-22.31,18.71-31.81,29.73-1.53,1.78-1.88,4.63,0,6.36,1.69,1.55,4.73,1.9,6.37,0,4.17-4.84,8.51-9.54,13.08-14q3.24-3.18,6.68-6.19c1.07-1,2.16-1.87,3.26-2.78.59-.5,1.19-1,1.79-1.47.25-.2.5-.4.76-.59s1.24-1,.44-.36a110.65,110.65,0,0,1,14.64-9.58c1.17-.64,2.35-1.24,3.55-1.82l1.62-.77,1-.44c.19-.09,1.64-.71.57-.26a76.74,76.74,0,0,1,7.66-2.75,66.19,66.19,0,0,1,7.87-1.87c.69-.13,1.39-.23,2.08-.34,1.19-.18-1,.11.2,0l.71-.09c1.4-.15,2.82-.27,4.23-.33a65.75,65.75,0,0,1,8.65.18l1.83.18,1.1.14c-1.14-.16.1,0,.28,0,1.5.23,3,.51,4.47.83a76,76,0,0,1,8.72,2.51c1.42.5,2.83,1,4.23,1.62,1.24.51-.81-.36.41.18l1.12.49,2.22,1q4.23,2,8.26,4.37,2,1.18,3.94,2.49c.62.41,1.23.84,1.83,1.27l1,.71c.13.1,1.43,1.11.69.52a65.09,65.09,0,0,1,7.67,7.09c.55.6,1.07,1.2,1.59,1.82l.77.94h0l.48.64q1.65,2.23,3.08,4.62c.91,1.53,1.74,3.11,2.51,4.71l.45,1c.06.14.74,1.68.4.87.36.86.69,1.72,1,2.58a80.9,80.9,0,0,1,3.1,10.92,4.52,4.52,0,0,0,5.54,3.14,4.59,4.59,0,0,0,3.14-5.53Z" transform="translate(-300.65 -231.62)"/><path class="cls-5" d="M925.65,1120.71a88.58,88.58,0,0,0,11-28.82c.36-1.89-2.53-2.7-2.89-.8A86.3,86.3,0,0,1,923,1119.2a1.5,1.5,0,0,0,2.59,1.51Z" transform="translate(-300.65 -231.62)"/><path class="cls-5" d="M970.8,1122.69a60.66,60.66,0,0,0,5.09-27c-.08-1.93-3.08-1.94-3,0a57.15,57.15,0,0,1-4.68,25.48c-.76,1.75,1.82,3.28,2.59,1.51Z" transform="translate(-300.65 -231.62)"/><path class="cls-5" d="M1026.35,1095.19a38.18,38.18,0,0,0,17.19,21.7,1.5,1.5,0,0,0,1.51-2.59,35,35,0,0,1-15.8-19.91c-.57-1.84-3.46-1.06-2.9.8Z" transform="translate(-300.65 -231.62)"/><path class="cls-5" d="M1053.87,1089.9a126.75,126.75,0,0,0,13.63,21.65,1.51,1.51,0,0,0,2.12,0,1.53,1.53,0,0,0,0-2.12,123.49,123.49,0,0,1-13.16-21c-.85-1.73-3.44-.21-2.59,1.51Z" transform="translate(-300.65 -231.62)"/><path class="cls-13" d="M591.69,1679.12" transform="translate(-300.65 -231.62)"/></g></svg>