<svg id="Слой_1" data-name="Слой 1" xmlns="http://www.w3.org/2000/svg" viewBox="0 0 1358.43 1782.23"><defs><style>.cls-1,.cls-17,.cls-19,.cls-5{fill:#fff;}.cls-1,.cls-17,.cls-19,.cls-22,.cls-3{stroke:#1d1d1b;}.cls-1,.cls-12,.cls-20,.cls-21,.cls-22,.cls-23,.cls-24,.cls-3,.cls-7{stroke-miterlimit:10;}.cls-1,.cls-17,.cls-19,.cls-3{stroke-width:7px;}.cls-2,.cls-3,.cls-7{fill:#f9b233;}.cls-4,.cls-6,.cls-8{fill:#1d1d1b;}.cls-4,.cls-7,.cls-8{stroke:#27348b;}.cls-4{stroke-miterlimit:10;}.cls-23,.cls-7{stroke-width:0.75px;}.cls-8{stroke-miterlimit:10;}.cls-9{fill:#fd8081;}.cls-10{fill:#df4051;}.cls-11{fill:#312a3d;}.cls-12,.cls-20{fill:none;}.cls-12{stroke:#312a3d;}.cls-12,.cls-20,.cls-21,.cls-22{stroke-width:2px;}.cls-13{fill:#231300;}.cls-14,.cls-21{fill:#62547a;}.cls-15{fill:#ff6b6c;}.cls-16{fill:#b04b71;}.cls-17{stroke-miterlimit:10;}.cls-18{fill:#c3775e;}.cls-19{stroke-miterlimit:10;}.cls-20{stroke:#231300;}.cls-21,.cls-23,.cls-24{stroke:#4d3d4d;}.cls-22,.cls-23{fill:#e6332a;}.cls-24{fill:#be1622;}.cls-25{fill:#ea5b0c;}</style></defs><path class="cls-1" d="M1048.33,1692.41c39.47,70,447.24,23.92,579.94-222.85,53.82-100.1,87.85-277,16.68-351.18-26.21-27.22-73.47-64.32-88.2-51.3-9,7.78-1.56,44.07,1.28,59,16.61,87.35-185.63,184.11-316.57,300.78C1227.81,1439,1014,1631.35,1048.33,1692.41Z" transform="translate(-330.4 -93.36)"/><path class="cls-2" d="M1082.71,1654.49c36.87,65.53,382.91-48,489.05-220.94,55.57-90.54,135.1-246.22,68.6-315.6-24.54-25.55-68.68-60.12-82.45-48-8.4,7.43-.43,43.48,2.18,57.44,11,59-78,117.8-161.28,180.53-23.33,17.66-40.45,20.42-80.62,52.16a577.88,577.88,0,0,1-52.15,54.44C1253.28,1426,1050.58,1597.44,1082.71,1654.49Z" transform="translate(-330.4 -93.36)"/><path class="cls-3" d="M1317.61,1308.13c0,32,27.45,304.67-120.1,445.69-30.45,29.09-132.23,39.12-255.43,39.16-142.5,0-245.67-14.47-276.13-49.24C546.83,1608.29,564.22,1351,566.67,1308.17,578.33,1100.61,727,823.36,942.19,823.36,1149.48,823.32,1317.61,1040.37,1317.61,1308.13Z" transform="translate(-330.4 -93.36)"/><path class="cls-3" d="M1055,1081.67H831c-166.81,0-302-135.22-302-302V748c0-2.8,0-7,.2-11.94C534,574.73,644.29,461.17,650.2,455.22a416.87,416.87,0,0,1,125-85.17A421.87,421.87,0,0,1,943,334h0c228.66,0,414,185.36,414,414h0v31.65C1357,946.45,1221.78,1081.67,1055,1081.67Z" transform="translate(-330.4 -93.36)"/><ellipse class="cls-4" cx="1095.74" cy="705.44" rx="59.58" ry="96.57" transform="translate(-337.6 -82.04) rotate(-0.59)"/><ellipse class="cls-5" cx="1072.96" cy="716.45" rx="24.93" ry="42.82" transform="translate(-342.13 -75.48) rotate(-0.95)"/><path class="cls-3" d="M529.6,731.15c0,1.82-1.24,4.31-1.59,8-17.58,28.82-45.78,26.09-74.94,18.78-65.15-16.25,10,83.38,41.38,105.36,17.73,12.4,59.19,37.41,102.82,61.44" transform="translate(-330.4 -93.36)"/><path class="cls-3" d="M1354.71,701c0,1.83,1.24,4.32,1.59,8,17.58,28.81,45.78,26.09,75,18.78,65.14-16.26-10,83.38-41.38,105.36-17.74,12.4-59.2,37.45-102.83,61.48" transform="translate(-330.4 -93.36)"/><path class="cls-2" d="M1107.6,977.64c19-7.32,46.43-5.18,62.69,5.4s7.58-46.9,110.91,18.12c40.14,25.32,90.43,72.77,119.71,102.79,27.54,28.2,45,70,49.63,100,17.53,112.78-34.35,133.16-98.52,147.78" transform="translate(-330.4 -93.36)"/><path class="cls-6" d="M1108.34,980.36a74.54,74.54,0,0,1,43.75-1.87,71.52,71.52,0,0,1,17.07,7.23,11,11,0,0,0,4.51,1.48c5.84.35,9.69-5.68,13.77-8.9,8-6.38,18.47-6.62,28.23-4.63a126.72,126.72,0,0,1,29.79,10.73,330.18,330.18,0,0,1,41,23.76,607.05,607.05,0,0,1,71.17,57.76q16.06,14.82,31.51,30.22a216,216,0,0,1,27.92,32.47A195,195,0,0,1,1448.2,1208c3.66,25.24,5.17,52.38-2.88,77a77.34,77.34,0,0,1-31.11,40.87,160.39,160.39,0,0,1-48.88,19.64c-4.71,1.25-9.42,2.37-14.16,3.46-3.66.82-2.1,6.46,1.55,5.6,34.73-8,73.2-19.17,91.59-52.65,11-20.11,13.26-43.83,12.33-66.35a214.43,214.43,0,0,0-19.91-83.93A194,194,0,0,0,1412,1112a359.64,359.64,0,0,0-29.59-30.64,834.76,834.76,0,0,0-71.37-62.7c-23.6-18.24-49.47-35-77.47-45.77-12.83-4.9-28.5-9.3-41.88-3.89a35.15,35.15,0,0,0-10.23,6.61,44.64,44.64,0,0,1-5.91,5.25c-.9.47-1.13.55-1.67.47a26.26,26.26,0,0,1-5.53-3,76.93,76.93,0,0,0-41-7.77,71.86,71.86,0,0,0-20.65,4.2c-3.5,1.32-2,7,1.56,5.63Z" transform="translate(-330.4 -93.36)"/><path class="cls-2" d="M1148.43,972.23c-257.73-10.73-344.65-2.49-370.7,8.83-6.5,2.84-35.4,17.23-62.7,5.4-10.54-4.55-12.67-9.52-20.72-13.45-11.67-5.68-33.37-4.12-90.19,31.62-40.14,25.27-90.42,72.72-119.75,102.78-27.49,28.2-44.92,70-49.58,100-3.89,24.11-12,67,13.14,103.76s69.62,42.16,85.37,44.14c153.89,19.06,245.75-205.92,402.56-202,77.27,1.95,80.93,87.43,179.59,106.29,75,14.35,143.47-15.13,190.57-43.28" transform="translate(-330.4 -93.36)"/><path class="cls-6" d="M1148.43,969.31c-79.88-3.3-159.92-6-239.88-4.7-37.06.62-75.13,1-111.69,8a157.74,157.74,0,0,0-28.12,9.1c-19.44,7.58-43.24,10.27-61-2.84-8.28-6.11-14.85-11.4-25.43-11.32a82.92,82.92,0,0,0-31.11,8.13,333.9,333.9,0,0,0-53,29.32c-34.61,22.75-65.69,51.14-95.32,79.88-13.89,13.5-27.85,26.92-38.89,43a207.17,207.17,0,0,0-26.41,55,244,244,0,0,0-9.06,47.91,136.76,136.76,0,0,0,4.86,57.64c12,35.62,42.31,57.75,77.78,66.11a166.26,166.26,0,0,0,77.78.24c58.34-14.35,105.63-57.41,149.93-95.71,45.42-39.24,93.33-83,153.3-97.89,27.5-6.89,58.61-8.44,83.81,6.34,22.83,13.38,38.89,35.62,58,53.36a165,165,0,0,0,90.65,43.32c45.08,6.42,90.62-2.18,132.23-19.45a393.56,393.56,0,0,0,50.56-25.7,2.92,2.92,0,0,0-3-5c-35.54,21.2-74.24,37.84-115.39,44.1s-85.79,2.18-122-19.25c-24.46-14.5-42.19-36.21-62.22-55.77-19-18.47-40.8-31.46-67.87-32.43-60.16-2.22-112.78,31.11-158.05,67.28-47.52,38.07-90.69,83.46-144.63,112.78a175,175,0,0,1-80.12,22.91c-26.83.43-56-5.33-78.79-19.91a89.48,89.48,0,0,1-36.67-48.34,136.3,136.3,0,0,1-3.89-57.72c4.35-37.29,16.14-72.8,38.89-103.14,11.43-15.28,25.94-28.43,39.71-41.57,15.24-14.58,30.91-28.78,47.13-42.27a437.3,437.3,0,0,1,50.05-36.6,278.43,278.43,0,0,1,50.13-25.94c8.21-3,17.58-5.87,26.41-4.47a24,24,0,0,1,10.54,4.55c3.46,2.45,6.49,5.36,10.11,7.77a52.9,52.9,0,0,0,15.56,6.34c17.54,4.2,35.7,0,51.92-6.92a97.09,97.09,0,0,1,11.66-4.32,201.75,201.75,0,0,1,32.17-5.75c18.47-2.14,37.06-3.19,55.65-3.89,67.67-2.64,135.49-1,203.16,1.17q35.4,1.08,70.79,2.6c3.88,0,3.88-5.68,0-5.83Z" transform="translate(-330.4 -93.36)"/><path class="cls-5" d="M1177.37,1341.11c0,215.8-109.52,390.77-244.59,390.77s-244.58-175-244.58-390.77c0-96.18-7.35-249.14,7.78-324.82,18.86-94,161.86-65.92,236.72-65.92s247.43-19.44,259.25,75.06C1201.17,1098.62,1177.37,1244.35,1177.37,1341.11Z" transform="translate(-330.4 -93.36)"/><path class="cls-1" d="M1467.41,818.84c-3.65-3.07-9.52-3.15-20.1-2.56a132.93,132.93,0,0,0-57.52,16.92c-27.77,16.37-88.71,40.32-142.15,48.14-19.87,20-46.67,35.94-68.64,48a333.42,333.42,0,0,1-136.9,41.31c-61.52,4.39-124.45-7.55-184.49-18.52q-47.49-8.62-94.47-19.79c-16.45-3.89-32.82-8.75-49.51-11.67-14.35-2.53-28.89-3.89-43.28-6.14-22.91-3.66-47.21-9.18-62.23-27.42a43.65,43.65,0,0,1-2.84-3.89q-22-3.5-44.06-7.2c-22.17-3.69-43.79-7-64.6-15.55a10.92,10.92,0,0,1-6-5.17c-3-.78-5.44-1.48-7.11-2a222.36,222.36,0,0,0-27.65-6.49c-19-3.31-28.55-5-31.54-1.83-8.48,9,27.84,61,72.92,102.52,87,80.15,190.37,106.4,227.62,114.18,31.12,6.49,118.23,7.78,214.49,9,100.41,1.44,156-.42,182.78-5.36,31.93-5.92,188-65.77,279.82-132.23C1458.59,892.35,1485.34,833.82,1467.41,818.84Z" transform="translate(-330.4 -93.36)"/><path class="cls-5" d="M1400.75,853.26c-8.59-3.26-10.15-15-4.78-21.43a14.29,14.29,0,0,1-5,.9,19.64,19.64,0,0,1-2.17,0h-2.41c-33.65,19.68-124.45-65.34-163.35-24.93-77.78,81.44-152.64,21.47-157.7,16.45-70-69.26-57.83-130.4-62.22-212.58-2.69-51.8-16.3-108.58-56.12-108.58-38.43,0-54.45,58.34-56.74,113.6s5.36,80.62-21.43,148.1a212.55,212.55,0,0,1-33.14,55.73C793.2,872.67,701.31,816.63,629,805c-39.13-6.46-99,58.73-130.52,50.95a13.39,13.39,0,0,1-5.44,1.09h-.28a11.9,11.9,0,0,1-4.62,2.06l.27.58a12.73,12.73,0,0,1,2.41,4.75l.5,3.53a13.4,13.4,0,0,1-3.88,9.42,13.91,13.91,0,0,1-15.91,2.14c3,4.08,6,8.16,9.33,11.93a13.35,13.35,0,0,1,.82,17c28.74,21.47,57.56,42.78,87.15,63.2,20.27,9.64,40.92,18.66,61,28.74,18.48,9.25,35.78,20.3,53.59,30.72a273.18,273.18,0,0,1,33.22,21.2,42.48,42.48,0,0,0,7-.2,10.88,10.88,0,0,1,8.75,2.26c83.57,9.68,167.85,7.5,251.81,5.52,42.78-1,85.76-2.33,128.62-.89l21,.77a14.26,14.26,0,0,1,12.48-12.52c12.6-1.55,24.31-8.44,35.94-13.18s22.12-8.75,33.21-13c22.2-8.6,44.45-17,66.54-25.82l23.33-9.42c25.83-17,48.42-40.64,72.46-59.5,6-4.67,11.94-9.18,18-13.65a12.76,12.76,0,0,1,3.89-8.4C1411.61,891.61,1401.61,868.43,1400.75,853.26Z" transform="translate(-330.4 -93.36)"/><path class="cls-5" d="M492.42,1343.56c4.36,5.33,10.93,9.57,41,14.78a479.33,479.33,0,0,0,123.79,4.9,585.19,585.19,0,0,0,155-34.15c40.06-14.31,78.33-36.48,99.52-71.29,22-36.16,39.13-63.35,39.24-105,0-21.16-.42-43.91-13.65-61.06A77.69,77.69,0,0,0,903,1068.41c-55.3-21.12-89.1,36.44-122.81,82.48-9.38,12.8-43.29,30.57-57.48,38.62-6.69,3.89-23.34,8.64-44,10.54-54.21,5-71.83-23.06-103.41-19.06" transform="translate(-330.4 -93.36)"/><path class="cls-6" d="M490.36,1345.62c6,7.19,15.56,9.8,24.46,11.94a395.52,395.52,0,0,0,64.87,9.33,533.35,533.35,0,0,0,81.13-1.05A583.72,583.72,0,0,0,798.42,1337c37-12.37,74.39-28.63,101.11-58.11,13.26-14.62,23.1-32.55,32.59-49.78a158.15,158.15,0,0,0,19.45-111.3,64.15,64.15,0,0,0-31.39-44.41c-14.5-8.52-31.46-14.12-48.38-11.67a77.44,77.44,0,0,0-39.43,19.79A234.85,234.85,0,0,0,799,1119.66c-5.33,7.2-10.5,14.51-15.56,21.78a75.57,75.57,0,0,1-14.35,16.14,306.62,306.62,0,0,1-41.61,25.87A120.43,120.43,0,0,1,678.79,1197a122,122,0,0,1-51-6c-11.67-3.89-22.75-9.8-35-12.25a55.51,55.51,0,0,0-17.58-.86c-3.65.47-3.69,6.3,0,5.84,11.86-1.4,22.75,2,33.64,6.3a180.15,180.15,0,0,0,39.17,12,149.83,149.83,0,0,0,55.8-3.23,132.7,132.7,0,0,0,36.09-15.82C753,1175.63,767.15,1168,778,1157.5a115.67,115.67,0,0,0,13.22-17.15c5.1-7.07,10.15-14.15,15.56-21.11,17.77-23.69,41.53-53,74.16-52.51A76.46,76.46,0,0,1,930.33,1088c14.9,14.54,17.5,35.54,17.81,55.34a150.11,150.11,0,0,1-8.75,57,308.3,308.3,0,0,1-26.87,50.76,148,148,0,0,1-38.27,42.7,222.92,222.92,0,0,1-49.82,27.49,563.25,563.25,0,0,1-130.28,35,554.65,554.65,0,0,1-83,6,478.68,478.68,0,0,1-59.23-3.89c-11.09-1.47-22.17-3.22-33.06-5.71a74.17,74.17,0,0,1-17.5-5.56,21.73,21.73,0,0,1-7-5.49c-2.37-2.91-6.5,1.25-4.12,4.12Z" transform="translate(-330.4 -93.36)"/><path class="cls-6" d="M919.29,1134c1.44-7,7.19-11.9,10.89-17.7a56.51,56.51,0,0,0,4.16-8.79,11.32,11.32,0,0,1,5-6.61,3,3,0,0,0,2.07-3.58,3,3,0,0,0-3.62-2c-7.55,2.92-8.48,11-12.14,17.19s-10.38,12-12.05,20C912.91,1136.08,918.55,1137.63,919.29,1134Z" transform="translate(-330.4 -93.36)"/><path class="cls-5" d="M1383.25,1343.56c-4.35,5.33-10.92,9.57-41,14.78a479.29,479.29,0,0,1-123.79,4.9,585.21,585.21,0,0,1-155-34.15c-40-14.31-78.33-36.48-99.53-71.29-22-36.16-39.12-63.35-39.24-105,0-21.16.43-43.91,13.65-61.06a77.8,77.8,0,0,1,34.38-23.33c55.31-21.12,89.1,36.44,122.82,82.48,9.37,12.8,43.32,30.57,57.48,38.62,6.73,3.89,23.34,8.64,44,10.54,54.25,5,71.83-23.06,103.41-19.06" transform="translate(-330.4 -93.36)"/><path class="cls-6" d="M1381.19,1341.5c-6,7.23-16.41,9.25-25.12,11.2a414.21,414.21,0,0,1-65,8.67,536.25,536.25,0,0,1-76.26-1.36,575.72,575.72,0,0,1-134.21-28.08c-37-12.21-74.32-28.2-100.89-57.75-12.83-14.28-22.4-32-31.54-48.73a160,160,0,0,1-19.09-52.39,175.23,175.23,0,0,1-1.44-30.37,120.34,120.34,0,0,1,3.5-29.4c5.56-20.46,21-33.41,40.09-41.19a58.56,58.56,0,0,1,45.7-.85c14.24,6,25.9,16.91,36,28.31a489.76,489.76,0,0,1,31.82,41.49,112.08,112.08,0,0,0,12.87,16.57,117.22,117.22,0,0,0,17.65,13.3,418.83,418.83,0,0,0,37.18,21.63c14.7,7.58,33.26,9.87,49.51,10.81a124.78,124.78,0,0,0,47.53-6.58c11.35-3.88,22.2-9.45,34-12a50.63,50.63,0,0,1,16.92-.82c3.69.47,3.69-5.37,0-5.83a71.55,71.55,0,0,0-34.73,6.34,173.68,173.68,0,0,1-41.46,12.44,144.07,144.07,0,0,1-59.5-5.79c-13.23-3.89-25.59-12.41-37.38-19.45a189.7,189.7,0,0,1-20.69-13.84,78.05,78.05,0,0,1-14.78-16.73c-10.34-14.42-20.49-29-32.08-42.5-19.95-23.14-46.67-43.33-78.72-35.7-17.73,4.2-36.09,14.35-46.66,29.44-11.36,16.17-12.57,36.82-12.64,56a147.35,147.35,0,0,0,10.07,56.59,351.84,351.84,0,0,0,27.92,51.64c20.42,33.53,52.78,55.19,88.52,70a583.18,583.18,0,0,0,220.43,41.72,482.91,482.91,0,0,0,61.37-4.82,319.42,319.42,0,0,0,31.58-5.83,68.92,68.92,0,0,0,16.25-5.68,25.22,25.22,0,0,0,7.55-6.11c2.37-2.87-1.75-7-4.12-4.12Z" transform="translate(-330.4 -93.36)"/><path class="cls-7" d="M1154,972.58" transform="translate(-330.4 -93.36)"/><ellipse class="cls-5" cx="1129.55" cy="667.87" rx="10.19" ry="15.95" transform="translate(-373.21 -14.99) rotate(-3.9)"/><ellipse class="cls-8" cx="780.93" cy="696.71" rx="96.57" ry="59.58" transform="translate(-254.18 1377.05) rotate(-89.41)"/><ellipse class="cls-9" cx="301.57" cy="816.41" rx="77.82" ry="59.81"/><ellipse class="cls-9" cx="940.58" cy="806.29" rx="79.18" ry="60.86"/><path class="cls-10" d="M942.54,915.29c-2.64,0-3.26,6.65-4.62,8.75a115,115,0,0,1-7.28,9.18c-.66.78-2.14,2.26-2.91,3a38,38,0,0,1-3.89,3.19c-1.13.73-2.84,2.17-3.89,2.83s-2.84,1.79-3.89,2.38-3.89,2.17-5.13,2.8-3.27,1.4-4.36,1.83-8,1.36-8.32,2.72c0,.7.66,22.52,1,30.33A80.68,80.68,0,0,0,902.6,1005a120.08,120.08,0,0,0,7.12,12.79,26,26,0,0,0,22.09,13.15h26.25a16.2,16.2,0,0,0,7.35-1.48,12.11,12.11,0,0,0,5.21-4.86c1-1.52,2.65-4.63,3.43-6.23a84.09,84.09,0,0,0,9.06-32.16c.62-8.59,3-33.6,2.64-33.79-1.44-.78-8.48-1.4-10-2.26s-4.94-3.23-6.62-4.24-5.09-3.27-6.68-4.47a88.59,88.59,0,0,1-7.08-6.19,50.11,50.11,0,0,1-3.89-4.35,82.24,82.24,0,0,1-4.94-7.08C945.69,921.79,945.07,915.29,942.54,915.29Z" transform="translate(-330.4 -93.36)"/><path class="cls-11" d="M940,987c.27,5,2.68,5.37,3,0,1.28-20.19,10.15-69.42-1.36-75.64C929.63,916.81,938.85,966.51,940,987Z" transform="translate(-330.4 -93.36)"/><ellipse class="cls-5" cx="803.47" cy="707.47" rx="42.82" ry="24.93" transform="translate(-247.62 1405.74) rotate(-89.05)"/><ellipse class="cls-5" cx="746.98" cy="658.86" rx="15.95" ry="10.19" transform="translate(-291.56 1265.93) rotate(-86.1)"/><path class="cls-12" d="M825.48,918.13a58.32,58.32,0,0,0,19,21.78,69.31,69.31,0,0,0,57.44,9.84,57.44,57.44,0,0,0,40.45-60.2" transform="translate(-330.4 -93.36)"/><path class="cls-12" d="M1059.72,919.1a58.49,58.49,0,0,1-19,21.78,69.34,69.34,0,0,1-57.55,9.84,57.48,57.48,0,0,1-40.41-60.2" transform="translate(-330.4 -93.36)"/><path class="cls-13" d="M888.1,842c-11.86,16.84,18.59,50.25,48.11,55,37.76,6,71.4-39.13,56-56.08-8-8.83-27.58-5.25-52.62-4.32S894.24,833.27,888.1,842Z" transform="translate(-330.4 -93.36)"/><path class="cls-14" d="M921.89,846c-.74-5.56,10-4.39,25.59-4.39,7.59,0,16,.81,15.56,4.74C962.34,853.54,923,854.27,921.89,846Z" transform="translate(-330.4 -93.36)"/><path class="cls-3" d="M873.67,341a82.36,82.36,0,0,0-6.18-12.13c-28.51-37.45-77.16-72.3-77.16-72.3-57.33-42-15.56-18.51-105.4-79.41-134.6-91.28-132-81.67-144.44-76S509,158.67,496.58,230.51c-14.42,83.61-8.71,36.4-14.62,128.34-1.94,30.21,36.68,212.3,51.38,237.81,12.52,21.74,11.27,18.83,16.29,30.1" transform="translate(-330.4 -93.36)"/><path class="cls-15" d="M617,468c78.36-66.5,166-81.9,174.7-120.21,5.67-24.69-29.68-42.51-66.39-75.8-26.64-24.19-99.41-103.83-139.77-86.88-25.32,10.62-28.51,57.6-35,151.68-4.62,67.82-10.88,159.45,15.56,168.28C578,508.85,586.46,493.76,617,468Z" transform="translate(-330.4 -93.36)"/><path class="cls-16" d="M669.53,424.22c35.59-22,115.86-49.55,121.85-74.16,4.9-20.07-16.69-37-40.37-58.34,0,0-62.23-59.7-92.64-80.19-9.14-6.15-8.71-3.31-9.88.7s-3,14.23-3.46,16.76a916,916,0,0,0-17.15,106.33c-4.59,43.55-6.5,99.4,2.53,115.07C634.06,456.66,648.69,437.21,669.53,424.22Z" transform="translate(-330.4 -93.36)"/><path class="cls-6" d="M576.58,508c30.1-26.1,60.24-51.88,93.34-73.89,11.28-7.55,22.67-15,34.61-21.47L735.45,396c12-6.53,24-13.06,35.78-19.95,6.85-3.89,15.56-8,21-13.92a28.53,28.53,0,0,0,5.56-23.8c-2.41-10.93-13.49-18-21.35-24.93l-58.33-51.53c-18.67-16.49-36.83-33.56-57-48.22a360.69,360.69,0,0,0-58.33-35.47c-5.06-2.37-9.53,5.17-4.4,7.54A348.66,348.66,0,0,1,647.83,215a525.75,525.75,0,0,1,49,39.75l56.08,49.62,28,24.81a21.11,21.11,0,0,1,8.48,12.49,19.58,19.58,0,0,1-.46,7.31,22.76,22.76,0,0,1-1.37,3.89c-.27.66-2.68,4.35-1.47,3-4.24,4.75-12.8,8.87-19,12.48-11.36,6.62-22.83,12.92-34.38,19.18-20.61,11.2-41.15,22-60.83,35-36.24,23.68-69.07,51.41-101.73,79.73-4.24,3.65,1.94,9.83,6.22,6.18Z" transform="translate(-330.4 -93.36)"/><path class="cls-3" d="M1014.26,340.06a81.44,81.44,0,0,1,6.18-12.09c28.51-37.46,77.12-72.3,77.12-72.3,57.37-42,15.56-18.51,105.44-79.42,134.6-91.27,132-81.67,144.4-76s31.58,57.48,44.1,129.51c14.43,83.57,8.71,36.4,14.58,128.34,2,30.21-36.63,212.26-51.33,237.81-12.53,21.74-11.32,18.83-16.34,30.1" transform="translate(-330.4 -93.36)"/><path class="cls-15" d="M1270.94,467c-78.37-66.5-166-81.86-174.74-120.17-5.68-24.74,29.71-42.51,66.39-75.8,26.68-24.19,99.4-103.84,139.77-86.92,25.36,10.66,28.55,57.64,35,151.67,4.63,67.83,10.85,159.45-15.75,168.24C1309.83,507.91,1301.31,492.82,1270.94,467Z" transform="translate(-330.4 -93.36)"/><path class="cls-16" d="M1218.44,423.29c-35.59-22.05-115.86-49.59-121.85-74.17-4.9-20.07,16.65-37,40.33-58.33,0,0,62.23-59.7,92.68-80.2,9.14-6.14,8.71-3.3,9.88.7s3,14.24,3.42,16.77a920.56,920.56,0,0,1,17.19,106.32c4.59,43.56,6.45,99.41-2.53,115C1253.9,455.72,1239.4,436.28,1218.44,423.29Z" transform="translate(-330.4 -93.36)"/><path class="cls-6" d="M1317.61,500.87c-28.94-25-57.91-50-89.45-71.59-12-8.17-24.19-16.49-37-23.34-9.29-5.05-18.63-10-27.92-15-11.67-6.38-23.57-12.76-35-19.45a196,196,0,0,1-24.7-15.2c.31.23-1.17-1-1.55-1.52,1.36,1.6-.47-.93-.74-1.4a22.72,22.72,0,0,1-1.68-3.89,20.31,20.31,0,0,1-1-7.78c.51-5.95,4.4-9.6,8.6-13.37l14.39-12.72,56-49.63a709.93,709.93,0,0,1,56.27-47.36,359.57,359.57,0,0,1,55.85-33.68c5.1-2.42.66-10-4.43-7.55-37.65,17.62-70,43.6-100.92,70.94l-59.31,51.92c-9.26,8.16-19.14,16-27.85,24.77a25.8,25.8,0,0,0-6.42,26.64c3.08,9.92,10.19,13.92,18.59,19,11,6.77,22.44,13,33.8,19.44,20.61,11.28,41.61,21.78,61.37,34.42,38.19,24.43,72.61,53.13,106.79,82.72,4.24,3.7,10.47-2.49,6.19-6.18Z" transform="translate(-330.4 -93.36)"/><path class="cls-6" d="M869,1066.7A75.92,75.92,0,0,1,852.47,1097c-2.49,2.8,1.6,6.92,4.13,4.12a82.87,82.87,0,0,0,18-33,2.92,2.92,0,0,0-5.64-1.55h0Z" transform="translate(-330.4 -93.36)"/><path class="cls-6" d="M954.91,1080.93q14.24,21.27,27.23,43.32a2.91,2.91,0,0,0,5-3q-13.06-22-27.22-43.29c-2.1-3.11-7.16-.19-5.06,2.92Z" transform="translate(-330.4 -93.36)"/><path class="cls-6" d="M908.83,1074.55q-14.16,19.88-27.23,40.45c-2,3.19,3,6.1,5.06,3q13.07-20.57,27.22-40.44c2.18-3.08-2.88-6-5-3Z" transform="translate(-330.4 -93.36)"/><path class="cls-6" d="M1000.72,1067.24a227,227,0,0,0,17,38.23,2.92,2.92,0,0,0,5.06-2.92,215.9,215.9,0,0,1-16.41-36.87c-1.21-3.54-6.81-2-5.61,1.56Z" transform="translate(-330.4 -93.36)"/><path class="cls-6" d="M931.23,1113.05a220.77,220.77,0,0,1,28.12,30,2.91,2.91,0,0,0,4.12,0,3,3,0,0,0,0-4.12,217.79,217.79,0,0,0-28.12-30C932.55,1106.44,928.43,1110.56,931.23,1113.05Z" transform="translate(-330.4 -93.36)"/><path class="cls-3" d="M631.92,1523.54c-24.46-11.66-58.33-11.66-84.12-20-31.61-10-53.55,4.13-71.36,26.1-15.95,19.45-10.85,33.29-9.61,42.55,11,83.22-130.4,378.83,135,243.3,10.08-5.18,27.46-1.75,41.34-5.37,33.41-8.71,90.89-29.48,127-25.78,28,2.87,118.58,7.42,118.11,7.77" transform="translate(-330.4 -93.36)"/><path class="cls-6" d="M632.66,1522.3c-23.84-11-50.55-11.67-75.91-17.77-12-3-23-6.85-35.59-5.29A59.25,59.25,0,0,0,493,1511.18c-16.34,12.33-31.66,31.11-29,52.54a146.24,146.24,0,0,1,1.68,27.57,485.62,485.62,0,0,1-10.47,65.77c-5.05,25-10.34,50.09-14,75.37-3.19,22.36-5.56,45.46-2.41,67.94,2.41,16.84,8.79,34.26,23.76,43.83,18.55,11.67,43.13,8.55,63.32,3.5a310.18,310.18,0,0,0,51.33-18.63c5.29-2.37,10.5-4.82,15.56-7.39a63.69,63.69,0,0,1,16.61-6.92c12.6-2.18,25.24-.66,37.76-4.09,23-6.22,45.62-13.65,68.87-19a235,235,0,0,1,36.72-5.88,166.8,166.8,0,0,1,25.28.9c33.68,2.8,67.47,4.31,101.11,6.45l6.19.43a4.91,4.91,0,0,0,1.71,0c.89-.43.19,1.32-.51-1,.55,1.79,3.35,1,2.8-.74s-4.9-1.44-6.34-1.52c-5.91-.42-11.66-.77-17.73-1.12-18-1-36.09-2.1-54.14-3.27-15.55-1-31.46-3-47.17-3.46-23.06-.74-46.36,5.17-68.45,11.12-11.47,3.11-22.91,6.49-34.34,9.84a141.92,141.92,0,0,1-34,7.12,168.93,168.93,0,0,0-17.27,1,50.77,50.77,0,0,0-15.55,5.91c-10,4.94-20.15,9.68-30.45,14-25,10.35-54.88,21.47-82.45,16.65-42.74-7.55-43-58.81-39.94-93.07,4.31-48.26,18-95,24.89-142.92a212.93,212.93,0,0,0,2.52-27.73c0-11.4-3.88-23.06-1.51-34.26,2.8-12.53,12.09-23.07,21.31-31.54a61.1,61.1,0,0,1,29.63-16c13.23-2.53,25,1.6,37.65,4.71s25.82,4.82,38.89,7.19a150.61,150.61,0,0,1,36.33,10.31C632.86,1525.61,634.37,1523.08,632.66,1522.3Z" transform="translate(-330.4 -93.36)"/><ellipse class="cls-17" cx="475.19" cy="1703.89" rx="138.76" ry="169.1" transform="translate(-777.96 101.36) rotate(-15.86)"/><ellipse class="cls-18" cx="482.92" cy="1759.25" rx="53.28" ry="65.73" transform="translate(-933.14 199.76) rotate(-21.17)"/><ellipse class="cls-18" cx="383.2" cy="1659.95" rx="21.08" ry="32.71" transform="translate(-1237.97 454.74) rotate(-36.26)"/><ellipse class="cls-18" cx="444.57" cy="1619.82" rx="20.65" ry="30.72" transform="translate(-724.09 70.86) rotate(-14.59)"/><ellipse class="cls-18" cx="517.11" cy="1624.78" rx="32.67" ry="20.57" transform="translate(-1491.92 1830.56) rotate(-82.45)"/><path class="cls-3" d="M1223.37,1524.48c24.43-11.67,58.34-11.86,84.12-20,31.58-10,53.52,4.12,71.37,26.09,15.94,19.45,10.81,33.33,9.6,42.55-11,83.27,130.41,378.84-135,243.3-10.11-5.13-27.49-1.71-41.38-5.33-33.36-8.71-90.88-29.48-127-25.78-28,2.88-118.58,7.39-118.08,7.78" transform="translate(-330.4 -93.36)"/><path class="cls-6" d="M1224.27,1525.72c24-11.12,51.3-11.35,76.65-17.85,12.64-3.19,24.31-6.92,37.45-4.08a62.77,62.77,0,0,1,29.37,16.6c9.06,8.6,18.2,19.18,20.57,31.82,1.44,7.54-.47,14.66-1.28,22.13a116.46,116.46,0,0,0,.35,24.69c4.55,47.06,18.39,92.83,24.65,139.7,2.88,21.7,5,44.45,1,66.11-3,16.72-10.73,33-26.87,40.37-21.7,10-48.61,3.19-70-3.7a406.8,406.8,0,0,1-56.9-23.76,46.1,46.1,0,0,0-14.27-5.25c-6.23-.93-12.56-.78-18.86-1.09a143.31,143.31,0,0,1-33.68-7.39,623.62,623.62,0,0,0-70.71-18,150.36,150.36,0,0,0-32-2.57c-7,.31-14,1.17-21,1.71-32.39,2.41-64.9,3.89-97.22,6.11-1.4,0-5.29-.31-5.87,1.47s2.25,2.57,2.83.78c-.46,1.48-1.28.59-.62.94s1.44,0,1.83,0l6.49-.43,21.16-1.29c18.82-1.08,37.65-2.17,56.43-3.46,16.3-1.09,32.94-3.89,49.28-2.56,24.93,1.75,49.47,8.82,73.38,15.75,10.7,3.11,21.35,6.34,32.09,9.25,12.52,3.39,25.32,1.64,37.88,3.89a68.26,68.26,0,0,1,16.57,7.12c5.17,2.53,10.38,5,15.55,7.35,8.87,3.89,17.89,7.78,27.22,11,23.11,8.32,51.18,16.64,75.61,9,16.8-5.25,27.22-18.86,32.24-35.35,6-20.46,4.86-42.78,2.68-63.82-2.6-25.17-7.5-50.06-12.48-74.87-4.71-23.33-9.88-46.36-12.8-70a156.28,156.28,0,0,1-1.55-26.91c.23-5.14,1.32-10.08,1.9-15.17a42.29,42.29,0,0,0-6.49-27.81c-11.09-17.81-29.95-33.87-51.34-36.28-12.6-1.44-23.64,2.64-35.66,5.52-13.07,3.11-26.41,4.82-39.59,7.27a147.19,147.19,0,0,0-35.59,10.35c-1.71.78-.23,3.26,1.48,2.49Z" transform="translate(-330.4 -93.36)"/><ellipse class="cls-19" cx="1380.24" cy="1705.04" rx="169.1" ry="138.76" transform="translate(-967.49 2473.4) rotate(-74.14)"/><ellipse class="cls-18" cx="1365.31" cy="1763.33" rx="65.54" ry="53.13" transform="translate(-1102.38 2306.66) rotate(-68.84)"/><ellipse class="cls-18" cx="1475.45" cy="1650.25" rx="32.78" ry="21.12" transform="translate(-1057.55 1777.89) rotate(-53.93)"/><ellipse class="cls-18" cx="1410.58" cy="1620.64" rx="30.72" ry="20.65" transform="translate(-843.52 2484.13) rotate(-75.41)"/><ellipse class="cls-18" cx="1338.11" cy="1625.79" rx="20.57" ry="32.67" transform="translate(-532.41 96.55) rotate(-7.55)"/><path class="cls-5" d="M730.51,646.17" transform="translate(-330.4 -93.36)"/><path class="cls-20" d="M1040.47,929.73" transform="translate(-330.4 -93.36)"/><path class="cls-20" d="M791.06,952" transform="translate(-330.4 -93.36)"/><path class="cls-21" d="M1247.09,1844.65" transform="translate(-330.4 -93.36)"/><path class="cls-22" d="M898.92,1051.49" transform="translate(-330.4 -93.36)"/><path class="cls-22" d="M836.55,1039.46" transform="translate(-330.4 -93.36)"/><path class="cls-22" d="M799,1030.87" transform="translate(-330.4 -93.36)"/><path class="cls-23" d="M1413.16,1030.87" transform="translate(-330.4 -93.36)"/><path class="cls-24" d="M1314.52,1903.14" transform="translate(-330.4 -93.36)"/><path class="cls-25" d="M1355,1740.12" transform="translate(-330.4 -93.36)"/><path class="cls-25" d="M1355.18,1740.12" transform="translate(-330.4 -93.36)"/><path class="cls-25" d="M1355,1739.68" transform="translate(-330.4 -93.36)"/><path class="cls-5" d="M937.12,737.52" transform="translate(-330.4 -93.36)"/></svg>