<svg id="Слой_2" data-name="Слой 2" xmlns="http://www.w3.org/2000/svg" viewBox="0 0 1449.81 1820.36"><defs><style>.cls-1,.cls-10,.cls-2,.cls-5,.cls-7{fill:#62547a;}.cls-1,.cls-11,.cls-2,.cls-4,.cls-8{stroke:#4d3d4d;}.cls-1,.cls-12,.cls-4{stroke-miterlimit:10;}.cls-1,.cls-10,.cls-12,.cls-2,.cls-4,.cls-7{stroke-width:5px;}.cls-2{stroke-miterlimit:10;}.cls-11,.cls-3,.cls-8{fill:#fd818e;}.cls-15,.cls-4{fill:#fff;}.cls-6{fill:#4d3d4d;}.cls-10,.cls-12,.cls-7{stroke:#312a3d;}.cls-7,.cls-8{stroke-miterlimit:10;}.cls-11,.cls-8{stroke-width:2px;}.cls-9{fill:#ff486a;}.cls-10{stroke-miterlimit:9.99;}.cls-11{stroke-miterlimit:10;}.cls-12{fill:none;}.cls-13{fill:#231300;}.cls-14{fill:#040405;}</style></defs><path class="cls-1" d="M843.7,1779.17c-29,25-159.82,84.44-359.88,75.91-13.4-.58,11.3-107.17-3.22-116.1-40.72-25.77-6.61-92.48,37.11-178,24.12-47.11,31.62-50.68,39.12-52.15C644.49,1491.63,900.19,1730.45,843.7,1779.17Z" transform="translate(-275.1 -91.07)"/><ellipse class="cls-2" cx="432.31" cy="1741.54" rx="149.6" ry="171.93" transform="translate(-1035.09 309.48) rotate(-27.7)"/><ellipse class="cls-3" cx="455.28" cy="1795.08" rx="82.61" ry="91.54" transform="translate(-1057.35 326.29) rotate(-27.7)"/><ellipse class="cls-3" cx="330.61" cy="1691.2" rx="19.83" ry="27.02" transform="translate(-1252.11 477.82) rotate(-38.3)"/><ellipse class="cls-3" cx="383.46" cy="1648.68" rx="20.1" ry="26.79" transform="translate(-997.52 276.13) rotate(-27.7)"/><ellipse class="cls-3" cx="449.34" cy="1628.88" rx="19.56" ry="27.15" transform="translate(-650.15 62.84) rotate(-13.78)"/><path class="cls-1" d="M1156.52,1765.77c29,25,159.87,84.45,359.92,75.92,13.4-.58-11.34-107.18,3.22-116.11,40.73-25.77,6.61-92.48-37.11-178-24.11-47.12-31.62-50.69-39.12-52.16C1355.68,1478.23,1100.29,1717.05,1156.52,1765.77Z" transform="translate(-275.1 -91.07)"/><ellipse class="cls-2" cx="1567.69" cy="1727.43" rx="171.93" ry="149.6" transform="translate(-965.59 2221.4) rotate(-62.3)"/><ellipse class="cls-3" cx="1544.6" cy="1780.85" rx="91.54" ry="82.61" transform="translate(-1025.24 2229.54) rotate(-62.3)"/><ellipse class="cls-3" cx="1669.65" cy="1678.03" rx="27.02" ry="19.83" transform="translate(-957.14 1857.25) rotate(-51.7)"/><ellipse class="cls-3" cx="1616.43" cy="1634.45" rx="26.79" ry="20.1" transform="translate(-857.18 2214.8) rotate(-62.3)"/><ellipse class="cls-3" cx="1551.17" cy="1615.83" rx="27.15" ry="19.56" transform="translate(-662.73 2646.4) rotate(-76.22)"/><path class="cls-4" d="M1119,1792.57H877.86c-140.08,0-366.18-165.72-366.18-304h0c0-264.63,217.3-585,485.37-585h0c267.94,0,486,320.18,486,585h-.53C1482.55,1626.85,1259.09,1792.57,1119,1792.57Z" transform="translate(-275.1 -91.07)"/><path class="cls-5" d="M1205.41,1001.57c23.18-8.3,45.55,4.16,76.37,6.12,24.07,1.52,9.24-53.19,135.13,20.59,49.12,28.67,110.21,82.48,145.93,116.55a219,219,0,0,1,60.47,113.43c21.3,127.76-41.89,151-120.08,167.72" transform="translate(-275.1 -91.07)"/><path class="cls-6" d="M1206.75,1006.62c16.53-5.58,33.36-.54,49.8,2.72a136.11,136.11,0,0,0,25.81,3.62,20,20,0,0,0,5.8-.8,25.35,25.35,0,0,0,9.47-6c2.46-2.24,5.81-5.45,7.19-6.39a23.15,23.15,0,0,1,11.61-4.46,58.3,58.3,0,0,1,19.51,1.69c29.25,6.88,57,23,82.48,38.45a674.86,674.86,0,0,1,86.1,64.13q19.79,16.74,38.81,34.29a287.16,287.16,0,0,1,34.2,35.28,210.46,210.46,0,0,1,40.82,90.21c5,28.93,7.19,60.59-2.14,89a87.33,87.33,0,0,1-36.89,46.67c-18.31,11.47-39.43,17.86-60.29,22.73-5.67,1.38-11.38,2.63-17.14,3.88s-3.62,11,2.68,9.69c42.29-8.93,90.69-21.61,113.47-62.25,13.13-23.49,15.63-51.4,14.06-77.79A231.44,231.44,0,0,0,1605,1193a215.25,215.25,0,0,0-32.33-45.19c-11.08-11.75-23.4-22.33-35.42-33.18A964.14,964.14,0,0,0,1450,1044a431.29,431.29,0,0,0-92.53-51c-14.74-5.63-33-11.61-48.77-6.43-8.44,2.77-13.39,8.93-20.18,14.15a8.94,8.94,0,1,0-1.12.76c-.49.27-2.63,1.21-1.2.67a10.86,10.86,0,0,1-2.37.67h-1.65c-18.4-1-36-7.32-54.3-8.93a59.63,59.63,0,0,0-23.8,2.77c-6.08,2.05-3.49,11.79,2.67,9.69Z" transform="translate(-275.1 -91.07)"/><path class="cls-5" d="M1255.21,995.45c-314-12.19-419.77-2.81-451.7,10-7.9,3.21-43.14,19.51-76.41,6.16-12.81-5.18-15.45-10.81-25.23-15.32-14-6.38-40.68-4.69-109.9,35.73-49.12,28.67-110.16,82.48-145.89,116.51A219.36,219.36,0,0,0,385.62,1262c-4.47,27.37-14.56,75.91,16,117.67s84.85,47.82,104,50c187.56,21.66,299.47-233.55,490.55-229,94.18,2.24,98.6,99.18,218.82,120.57,91.45,16.26,174.82-17.14,232.21-49.12" transform="translate(-275.1 -91.07)"/><path class="cls-6" d="M1255.21,990.45c-95.61-3.7-191.4-6.74-287.1-5.45-45.77.63-92.39,1.21-137.67,8.62a135.28,135.28,0,0,0-29.3,7.42c-18.8,7.68-39,13.39-59.48,9.55a60.77,60.77,0,0,1-18.93-6.65c-4.78-2.72-8.93-6.48-13.4-9.38a39,39,0,0,0-13.66-5.4,71.69,71.69,0,0,0-32.16,3.48A300.84,300.84,0,0,0,606,1018.5c-44.66,24.51-84.49,56.22-122.72,89.62A587.94,587.94,0,0,0,433.8,1154a223.58,223.58,0,0,0-39.88,63.37,239.72,239.72,0,0,0-15.58,58.05,177.36,177.36,0,0,0,0,64.4,110,110,0,0,0,36.89,61.58,142,142,0,0,0,53.9,26.79,218.81,218.81,0,0,0,96.94,4.2c72.21-13.4,131.87-62.88,187.56-107.62,57.07-45.91,116.82-96.59,189.88-113.61,33.49-7.81,71.22-9.69,102.13,7.64,27.32,15.32,47.2,40.86,70.82,61a203.4,203.4,0,0,0,45.42,30,219.93,219.93,0,0,0,67.69,18.71c54.17,6.61,109.1-3.48,159.6-23.26a507.28,507.28,0,0,0,60.56-28.76c5.63-3.13.58-11.83-5.09-8.66-43.05,23.89-89.31,42.38-138.44,49.57s-103.42,3.39-147.85-20.59c-29.61-16-51.62-40.55-75.92-62.92a162.7,162.7,0,0,0-35.72-26,116.15,116.15,0,0,0-47.61-12.1c-74.21-3.26-140.53,35.72-197.78,78.91-58.5,44.07-112.71,96.77-179.47,128.6a215.79,215.79,0,0,1-100.39,22.6c-33.13-1.2-68.77-8.93-95.65-29.07a101.86,101.86,0,0,1-37.87-61.4c-4.2-20.86-2.19-42.25,1.21-63,7.46-45.15,27.42-88.29,60.69-120.3A1015.67,1015.67,0,0,1,559,1060.21a506.77,506.77,0,0,1,63.59-39,220.16,220.16,0,0,1,51-20.63,44,44,0,0,1,25,0c6.75,2.45,14.61,10.27,22.33,14a79.72,79.72,0,0,0,37.91,7.46A150.33,150.33,0,0,0,806,1010.1a97.64,97.64,0,0,1,12.19-3.66c34.92-8.35,72.47-8.93,108.82-10.23,80.83-2.63,161.84-.89,242.66,1.52q42.83,1.26,85.57,2.95c6.47.27,6.47-9.78,0-10Z" transform="translate(-275.1 -91.07)"/><ellipse class="cls-7" cx="659.15" cy="327.66" rx="193.9" ry="205.46" transform="translate(-328.15 422.62) rotate(-41.07)"/><ellipse class="cls-8" cx="664.97" cy="327.01" rx="138.08" ry="141.96" transform="translate(-326.29 426.28) rotate(-41.07)"/><ellipse class="cls-9" cx="696.24" cy="362.74" rx="114.81" ry="122.05" transform="translate(-342.07 455.62) rotate(-41.07)"/><ellipse class="cls-10" cx="1409.16" cy="370.65" rx="205.27" ry="193.71" transform="translate(-75.12 1092.59) rotate(-48.65)"/><ellipse class="cls-11" cx="1411.17" cy="343.93" rx="141.96" ry="138.08" transform="translate(-50.33 1090.8) rotate(-48.93)"/><ellipse class="cls-9" cx="1379.92" cy="379.67" rx="122.04" ry="114.81" transform="translate(-87.99 1079.5) rotate(-48.93)"/><path class="cls-4" d="M1017.81,211.74H1019c296.79-.12,537.49,240.37,537.61,537.17v26.3c0,184.53-149.58,334.12-334.11,334.12h-408c-184.53,0-334.12-149.59-334.12-334.12h0V749.13c0-296.79,240.6-537.39,537.39-537.39Z" transform="translate(-275.1 -91.07)"/><path class="cls-5" d="M608.41,756.86c6-47,44.25-99.63,111.1-157.1C906.71,439,926.45,650.08,929,687.19c4.46,61.36-51.45,93.51-134,122.9S601,814.6,608.41,756.86Z" transform="translate(-275.1 -91.07)"/><path class="cls-5" d="M1420.12,761.32c-6-47-44.25-99.63-111.1-157.1-187.2-160.76-206.94,50.33-209.53,87.44-4.46,61.36,51.44,93.51,134,122.89S1427.53,819.06,1420.12,761.32Z" transform="translate(-275.1 -91.07)"/><path class="cls-12" d="M857.86,953.88A85.85,85.85,0,0,0,883,986.43c19.65,15.37,49.12,23.94,76.19,14.7,33.76-11.53,56.89-48.5,53.58-90" transform="translate(-275.1 -91.07)"/><path class="cls-12" d="M1168.39,955.44A85.22,85.22,0,0,1,1143.16,988c-19.64,15.36-49.12,23.93-76.13,14.73-33.76-11.52-56.9-48.54-53.59-90.07" transform="translate(-275.1 -91.07)"/><path class="cls-13" d="M940.87,840.1c-15.72,25.23,24.65,75.15,63.77,82.21,50.06,8.93,94.67-58.5,74.26-83.91-10.62-13.4-36.57-7.82-69.75-6.43S949,827,940.87,840.1Z" transform="translate(-275.1 -91.07)"/><path class="cls-5" d="M985.71,845.86c-1-8.35,13.39-6.61,33.89-6.61,10.05,0,21.21,1.2,20.68,7.1C1039.29,857.33,987.14,858.45,985.71,845.86Z" transform="translate(-275.1 -91.07)"/><ellipse class="cls-14" cx="841.06" cy="683.2" rx="91.72" ry="48.68" transform="translate(-233.02 1324.08) rotate(-81.58)"/><ellipse class="cls-15" cx="869.41" cy="674.02" rx="29.2" ry="13.93" transform="translate(-142.85 1399.51) rotate(-85.71)"/><ellipse class="cls-15" cx="812.54" cy="722.85" rx="7.32" ry="13.58" transform="translate(-406.41 91.52) rotate(-11.87)"/><ellipse class="cls-14" cx="1206.39" cy="674.74" rx="48.74" ry="91.84" transform="translate(-362.56 97.27) rotate(-8.62)"/><ellipse class="cls-15" cx="1177.74" cy="673.64" rx="13.93" ry="29.2" transform="matrix(1, -0.07, 0.07, 1, -322.19, -1.08)"/><ellipse class="cls-15" cx="1216.51" cy="726.84" rx="13.58" ry="7.32" transform="translate(-20.11 1676.76) rotate(-78.13)"/><path class="cls-15" d="M925.33,240.05c-3-28.27,8-56.8,25.77-79.17s41.75-39.26,67-53c17.51-9.51,39.75-17.5,56.54-6.83,15,9.6,18.22,31.26,11.21,47.38s-21.8,27.77-37,37A120,120,0,0,1,1097.66,162c16.52-3.66,36-2.86,47.38,9.47s9.74,34-1.21,47.42-28.49,20-45.81,22.33" transform="translate(-275.1 -91.07)"/><path class="cls-5" d="M455.86,1416.56a161,161,0,0,0,50,16.75c119.9,16.39,226.41,4.46,339.7-33.14,48.81-16.25,95.43-41.39,121.29-80.83,26.79-41,47.69-71.89,47.78-119.09,0-24-.49-49.75-16.61-69.26-10.23-12.33-25.68-20.68-41.89-26.44-67.39-24-108.56,41.31-149.64,93.51-11.43,14.51-52.79,34.65-70.07,43.81-10.27,5.44-41.57,11.21-53.59,12-39,2.42-94.71-1.2-126-21.61" transform="translate(-275.1 -91.07)"/><path class="cls-6" d="M453.36,1420.89a188.47,188.47,0,0,0,67.25,19.34c24.7,3,49.57,4.69,74.45,5.18a706.87,706.87,0,0,0,144.59-12.24A664.53,664.53,0,0,0,878.58,1393a258.06,258.06,0,0,0,56.08-32.33,182.43,182.43,0,0,0,40.78-45.41,358.56,358.56,0,0,0,32.24-56.58,157.18,157.18,0,0,0,11.92-61.9c0-20.94-1.21-43.27-12.59-61.62s-31.26-29.25-51.18-35.73a82.65,82.65,0,0,0-52-.85,118.57,118.57,0,0,0-43.23,27.29,363.19,363.19,0,0,0-37.73,43.05c-10.5,13.4-19.7,28.13-34,38a435.66,435.66,0,0,1-46.67,26.79,102.63,102.63,0,0,1-18.49,8,238.91,238.91,0,0,1-25.76,5.63,249,249,0,0,1-52.83,2.28,234.21,234.21,0,0,1-61.13-9.87,107.49,107.49,0,0,1-24.7-11.34c-5.45-3.49-10.49,5.18-5,8.66a142.51,142.51,0,0,0,52,18.4,317.55,317.55,0,0,0,59.62,4.46,233.85,233.85,0,0,0,48-5.49,120.34,120.34,0,0,0,22.69-6.61c6.11-2.68,12-6.07,17.86-9.15a315.91,315.91,0,0,0,45.06-26.8c13.12-10,22.32-24.65,32.15-37.51,20.76-26.79,45.24-58.32,79.58-67.21a79.8,79.8,0,0,1,52.73,6.3c20.46,8.93,36.44,23.22,42.2,45.46a133.19,133.19,0,0,1,3.49,31.26,179.07,179.07,0,0,1-1.7,33.13,168,168,0,0,1-21.34,56,317.81,317.81,0,0,1-35.37,52.92A186.23,186.23,0,0,1,903.18,1370c-39.47,22.6-84.84,35.28-128.65,45.86a697,697,0,0,1-212.16,18.58c-23.63-1.52-49.39-2.64-72.61-9.25a164.91,164.91,0,0,1-31.26-12.5c-5.72-3-10.81,5.67-5.05,8.66Z" transform="translate(-275.1 -91.07)"/><path class="cls-6" d="M964,1194.44a104.68,104.68,0,0,0,21.48-25c5.89-10.36,10.63-21.44,15.76-32.15a5.14,5.14,0,0,0-1.78-6.88,5.05,5.05,0,0,0-6.88,1.79c-5,10.45-9.65,21.12-15.27,31.26a96.1,96.1,0,0,1-20.41,23.93c-4.73,4.47,2.37,11.52,7.1,7.1Z" transform="translate(-275.1 -91.07)"/><path class="cls-6" d="M912.87,1163.9c14-16.48,20-37.83,33.41-54.66a5.13,5.13,0,0,0,0-7.1,5,5,0,0,0-7.1,0c-13.4,16.83-19.52,38.27-33.41,54.66a5.13,5.13,0,0,0,0,7.1,5,5,0,0,0,7.08,0Z" transform="translate(-275.1 -91.07)"/><path class="cls-5" d="M1541.32,1416.56a160.76,160.76,0,0,1-49.93,16.75c-119.9,16.39-226.4,4.46-339.74-33.14-48.77-16.25-95.39-41.39-121.24-80.83-26.8-41-47.7-71.89-47.78-119.09,0-24,.49-49.75,16.61-69.26,10.22-12.33,25.67-20.68,41.84-26.44,67.39-24,108.6,41.31,149.69,93.51,11.43,14.51,52.78,34.65,70,43.81,10.31,5.44,41.62,11.21,53.58,12,39,2.42,94.76-1.2,126-21.61" transform="translate(-275.1 -91.07)"/><path class="cls-6" d="M1538.77,1412.23a186.22,186.22,0,0,1-67.52,18.58,669.24,669.24,0,0,1-73.23,4.46,692.11,692.11,0,0,1-140.8-12.5c-23.67-4.47-47.12-10.27-70.25-17a531.09,531.09,0,0,1-65-22.33,245.76,245.76,0,0,1-54.39-31.62,185.29,185.29,0,0,1-40.19-46.66,296.75,296.75,0,0,1-30.14-54.57,160.61,160.61,0,0,1-9.34-61.94c.45-21.34,3.67-43.63,19.74-59.21a95.42,95.42,0,0,1,55-24.74c35.72-3.26,63.77,22.33,85.6,47.42,12.37,14.29,23.67,29.52,35.28,44.66,9.78,12.59,22.64,20.9,36.35,28.85a379.55,379.55,0,0,0,41.62,22.06,177,177,0,0,0,47.07,10.67,273.87,273.87,0,0,0,53.1.36,226.53,226.53,0,0,0,58-11,112.9,112.9,0,0,0,23.31-11.07c5.4-3.49.4-12.19-5.09-8.67-16.57,10.59-36.26,15.41-55.51,18.36a317.57,317.57,0,0,1-60.46,2.94,204.06,204.06,0,0,1-49.71-8.39c-14.2-4.2-27.77-12.91-40.68-20.1-14.64-8.17-29.69-16.47-40.19-29.87-11.79-15.14-23.17-30.59-35.72-45.15-22.33-25.9-51-51.71-87.44-51.26a106.69,106.69,0,0,0-56.62,19,74.29,74.29,0,0,0-32,51.84,169.63,169.63,0,0,0,24.25,121.6,312.06,312.06,0,0,0,36.84,53.59,198.29,198.29,0,0,0,49.12,38c40.64,23.05,87.12,36.13,132.32,46.94a707,707,0,0,0,218,18.13c24.16-1.74,49.61-3,72.92-10.14a175,175,0,0,0,30.9-12.68c5.72-3,.67-11.66-5-8.66Z" transform="translate(-275.1 -91.07)"/><path class="cls-6" d="M1030.36,1308.09c-15-23-30.27-46.71-37.2-73.64a164,164,0,0,1-4.19-43,120,120,0,0,1,5.89-40.55c9.83-26.35,39.75-42.47,66.58-45.86,23.45-3,44.66,7.1,62.52,22.06,21.88,18.71,38.76,42.55,56.18,65.24,3.88,5,12.64,0,8.66-5.09-29.56-38.45-65.24-94.32-120.57-92.75A103.8,103.8,0,0,0,1028,1105a83.93,83.93,0,0,0-35,27.82,87.61,87.61,0,0,0-13.4,42.51,206.49,206.49,0,0,0,.76,45.82c4.73,34.21,22.73,63.55,41.26,92,3.53,5.4,12.24.35,8.71-5.05Z" transform="translate(-275.1 -91.07)"/><path class="cls-6" d="M1040.37,1187.34a97.07,97.07,0,0,1-20.46-23.93c-5.58-10.14-10.22-20.81-15.22-31.26a5,5,0,0,0-6.88-1.79,5.18,5.18,0,0,0-1.83,6.88c5.18,10.71,9.91,21.79,15.76,32.15a107,107,0,0,0,21.48,25c4.78,4.47,11.88-2.68,7.15-7.1Z" transform="translate(-275.1 -91.07)"/><path class="cls-6" d="M1091.45,1156.8c-13.89-16.39-20-37.83-33.4-54.66a5,5,0,0,0-7.07,0l0,0a5.1,5.1,0,0,0,0,7.1c13.4,16.83,19.42,38.18,33.4,54.66a5,5,0,0,0,7.08,0l0,0a5.13,5.13,0,0,0,0-7.1Z" transform="translate(-275.1 -91.07)"/><path class="cls-6" d="M930.33,240.05c-4.19-45.23,24.92-84,60-109,16.57-11.88,35.73-24.51,55.87-28.89a32.35,32.35,0,0,1,28.35,5.14,30.54,30.54,0,0,1,9.74,22.32c.76,23.81-19.61,40.19-38,51.54l6.12,7.9a114.64,114.64,0,0,1,48.18-22.33c13.4-2.72,31-2.59,41,8.49s7.5,29.16-1.2,40.19c-10.36,13.39-27.65,18.8-43.63,21.08-6.39.93-3.67,10.58,2.68,9.69,28.4-4.07,60.42-22.33,58.63-55.07a36.06,36.06,0,0,0-21-31.25,65,65,0,0,0-41.57-2.24,125,125,0,0,0-50.15,24.56c-4.47,3.58,1.29,10.81,6.07,7.86,19.07-11.65,39-27.91,42.47-51.44,2.9-19.78-6.65-40.91-27.24-46.13-23.54-5.94-48.1,8.93-67.25,20.76a197.3,197.3,0,0,0-54.84,48.32,116.09,116.09,0,0,0-24.2,78.78c.62,6.38,10.67,6.43,10,0Z" transform="translate(-275.1 -91.07)"/></svg>