<svg id="Слой_2" data-name="Слой 2" xmlns="http://www.w3.org/2000/svg" viewBox="0 0 1511.07 1544.71"><defs><style>.cls-1,.cls-4,.cls-5,.cls-8{fill:#8e2402;}.cls-2,.cls-6{fill:#ea5b0c;}.cls-10,.cls-11,.cls-12,.cls-2,.cls-4,.cls-5,.cls-8,.cls-9{stroke:#1d1d1b;}.cls-10,.cls-11,.cls-12,.cls-2,.cls-4,.cls-9{stroke-miterlimit:10;}.cls-12,.cls-2,.cls-4,.cls-5,.cls-8{stroke-width:7px;}.cls-11,.cls-3,.cls-9{fill:#1d1d1b;}.cls-5{stroke-miterlimit:10;}.cls-10,.cls-7{fill:#fff;}.cls-8{stroke-miterlimit:10;}.cls-9{stroke-width:0.5px;}.cls-10{stroke-width:3px;}.cls-11{stroke-width:5px;}.cls-12{fill:none;}.cls-13{fill:#ff0a43;}.cls-14{fill:#333;}.cls-15{fill:#666;}</style></defs><path class="cls-1" d="M975.19,1003.54c19-6.8,32.9-2.59,58-.36,29,2.59,14.62-7.9,115.19,22.22,44.5,13.31,90.23,67.53,119.48,95.42a179.38,179.38,0,0,1,49.5,92.86c17.44,104.6-34.51,121.75-98.53,135.27" transform="translate(-246.21 -309.33)"/><path class="cls-1" d="M1021.47,1002.56c-257.08-10-347.31,3.65-375.31,3.65-7.31,0-23.07-4.68-61.46-3.65-11.33.32-13.74-.3-21.75-3.95-11.44-5.27-33.31-3.66-90,29.24-40.22,23.48-90.19,67.53-119.44,95.42a179.5,179.5,0,0,0-49.65,93c-3.65,22.45-11.92,62.15,13.13,96.37s69.46,39.16,85.14,41c153.55,17.69,245.17-191.21,401.6-187.52,77.11,1.8,80.73,81.2,179.14,98.71,74.88,13.31,143.13-14,190.11-40.21" transform="translate(-246.21 -309.33)"/><path class="cls-2" d="M977.2,1733.85c132.75,67.78,408.11-41.28,562-177.17,292.76-258.47,247.32-703.4,92.75-755.09-42.27-14.15-109.86-4.61-152.75,21.09-38.71,23.18-70.63,57-71,135-.69,173.29,8.78,182.8-16.34,253.1-46.36,129.71-221.55,273.57-396.52,284.06-36.23,2.16-68.58-1.57-91.84,16.86C848.62,1555.26,887.92,1688.29,977.2,1733.85Z" transform="translate(-246.21 -309.33)"/><path class="cls-3" d="M1570.23,970.42a1145.94,1145.94,0,0,0,168.17-4.09c-18.76-83.14-56-144-107.52-161.19-42.27-14.15-109.9-4.61-152.78,21.09-35.36,21.17-64.53,61.38-65.48,118.16,16.41,5.56,32.17,7,49.43,10.53,29.24,6,58.89,11.33,88.62,15.46,3.65.55,7.53,1,11.29,1.5A17.77,17.77,0,0,1,1570.23,970.42Z" transform="translate(-246.21 -309.33)"/><path class="cls-1" d="M1468,1236.2c44.2,2.27,87.45,7.68,130,20.55a302,302,0,0,1,82.88,40.22,244.28,244.28,0,0,1,22.26,11.26c1.21.65,1.87,1,3,1.68a654.74,654.74,0,0,0,31.37-107.12c-4.9-2.93-4.38-2.93-7.31-4.64-26.61-16.27-54.4-30.71-82.15-44.93-48.77-25-96.84-42.63-150.88-51.85-24-4.13-48.36-8.7-72.6-10.78a90.08,90.08,0,0,1-11.81-1.35c1.57,52.86-1.72,74.47-17.26,121.7-1.2,3.66-2.52,7.31-3.91,11l2.49.55c16.89,4.93,34,9.1,51.18,12.94C1453,1235.25,1460.55,1235.84,1468,1236.2Z" transform="translate(-246.21 -309.33)"/><path class="cls-1" d="M1322,1330.31h-1.17a504.1,504.1,0,0,1-58.78,55.42c107,26.29,234.34,62.88,286,158.37a602.6,602.6,0,0,0,65.81-72.56C1567.23,1360.65,1432.87,1327.82,1322,1330.31Z" transform="translate(-246.21 -309.33)"/><path class="cls-1" d="M1288.35,1527.4a354.65,354.65,0,0,0-82.25-44.28c-19.53-7.31-39.6-15.28-53.82-30.27a466.69,466.69,0,0,1-87.45,31c45.12,59.77,95.75,115.08,148.18,168.75,18.53,18.94,37.84,37.66,56.77,56.78a920.66,920.66,0,0,0,132.71-61.2C1374.52,1599.78,1334.86,1560.08,1288.35,1527.4Z" transform="translate(-246.21 -309.33)"/><path class="cls-4" d="M928.28,1751.25c23.73,20.47,130.89,69.13,294.67,62.15,11-.48-9.29-87.74,2.63-95.05,33.34-21.06,5.41-75.68-30.41-145.73-19.71-38.57-25.85-41.49-32-42.7C1091.37,1515.92,882.26,1711.44,928.28,1751.25Z" transform="translate(-246.21 -309.33)"/><ellipse class="cls-5" cx="1252.23" cy="1729.05" rx="120.9" ry="105.22" transform="translate(-916.16 2348.66) rotate(-79.88)"/><ellipse class="cls-6" cx="1252.53" cy="1769.55" rx="64.38" ry="58.09" transform="translate(-955.78 2382.33) rotate(-79.88)"/><ellipse class="cls-6" cx="1323.6" cy="1690.1" rx="18.97" ry="13.93" transform="translate(-1061.9 1559.14) rotate(-56.7)"/><ellipse class="cls-6" cx="1286.06" cy="1665.87" rx="21.57" ry="16.16" transform="translate(-985.9 1927.03) rotate(-68.06)"/><ellipse class="cls-6" cx="1236.48" cy="1661.33" rx="15.36" ry="21.29" transform="matrix(1, -0.07, 0.07, 1, -359.2, -218.93)"/><ellipse class="cls-6" cx="1194.3" cy="1677.25" rx="13.75" ry="19.12" transform="translate(-916.69 494.92) rotate(-29.46)"/><path class="cls-7" d="M646.19,439.18c-87.33-39-141.77-57.69-231.78-90.85-32.39-11.92-64.86-23.87-98.53-32-7.64-1.83-16.59-3.22-22.81,1.5a24.36,24.36,0,0,0-7.31,13.82,239.3,239.3,0,0,0,8.41,145.72c13.63,35.28,35.64,67.35,47,103.36,7.31,23.61,10.12,48.33,16.05,72.31,13.12,53.12,12.72,58.9,53.77,96.7" transform="translate(-246.21 -309.33)"/><path class="cls-3" d="M647.55,436.8c-51.19-22.88-103.28-43.61-155.89-63q-42.74-15.94-85.4-31.41c-30.27-11-61.2-23.14-92.9-29.43-12.1-2.41-23.47-.25-28.3,12.25a167.39,167.39,0,0,0-8.33,43,242.44,242.44,0,0,0,8.37,90.34c8.52,29.43,23.65,55.93,37.07,83.24a272,272,0,0,1,17.51,43c4.57,15.42,7.32,31.29,10.35,47.08,2.67,13.79,6,27.42,9.43,41.06a221.76,221.76,0,0,0,7.61,25.88c6.07,15.72,16.56,28.23,28.48,39.93,4.46,4.38,9.06,8.66,13.67,12.94,2.59,2.37,6.47-1.5,3.87-3.88C399.6,735.38,385,722.55,376.32,706.1s-11.67-34.88-15.94-52.35c-7.32-29.73-10.42-60.33-21.94-89C327.69,537.89,312.52,513,301,486.49a238.73,238.73,0,0,1-19.82-87.74,233.77,233.77,0,0,1,2.93-45.23c1.17-7,2.59-14.07,4.42-21s5-14.11,13.45-14.92a60.27,60.27,0,0,1,20.15,3.22q11.52,3,22.85,6.44c15.13,4.6,30.05,9.76,44.93,15.13,28.19,10.13,56.26,20.58,84.41,30.89,50.31,18.47,100.32,37.62,149.46,59l21.17,9.36c3.21,1.43,6-3.29,2.77-4.72Z" transform="translate(-246.21 -309.33)"/><path class="cls-6" d="M595,462.87c-61.64-29.61-100-43.87-163.53-69A607,607,0,0,0,362,369.5c-5.41-1.43-11.69-2.49-16,1a18.28,18.28,0,0,0-5.12,10.35A190.38,190.38,0,0,0,347.36,490c9.76,26.47,25.37,50.6,33.53,77.62,5.3,17.73,7.31,36.27,11.58,54.25,9.44,39.85,9.18,44.17,38.25,72.65" transform="translate(-246.21 -309.33)"/><path class="cls-3" d="M596.36,460.49c-37.1-17.8-74.94-33.92-113.33-49.09q-31.59-12.54-63.21-25c-11.19-4.39-22.37-8.67-33.78-12.47-5.52-1.86-11-3.65-16.71-5.23a65.9,65.9,0,0,0-15.21-3.25c-9.5-.29-14,6.25-16.08,14.62a185.15,185.15,0,0,0-4.83,32.62,193.82,193.82,0,0,0,7.31,66.2c6.26,21.24,16.82,40.66,26.07,60.62a214.59,214.59,0,0,1,12.32,32.13c3.15,11.45,5.08,23.15,7.31,34.77s4.72,22.3,7.32,33.38a134.49,134.49,0,0,0,6.32,20.4c6.11,14.37,17.58,25.59,28.55,36.23,2.53,2.49,6.4-1.39,3.88-3.88-9.54-9.39-19.78-19-25.89-31.14s-7.93-25.7-11.11-38.76c-5.12-21.64-7.31-43.87-15.06-65-7.31-19.6-17.55-37.8-25.81-57a188.06,188.06,0,0,1-15-95.35c.55-5.52,1.35-11,2.45-16.48.91-4.72,1.53-11.81,5-15.51s9.8-2.34,14.3-1.2c5.66,1.46,11.26,3.14,16.81,4.9,11,3.43,21.61,7.31,32.25,11.48,20.36,7.82,40.62,16,60.91,24,41.38,16.34,82.29,33.52,122.4,52.75,3.18,1.5,6-3.21,2.77-4.75Z" transform="translate(-246.21 -309.33)"/><path class="cls-1" d="M561.41,482.14c-41.67-19.82-67.7-29.25-110.73-46.4a428.7,428.7,0,0,0-47.13-16.56,13.34,13.34,0,0,0-11,.48,11.58,11.58,0,0,0-3.65,6.58,115.54,115.54,0,0,0,2.41,70.34c6.18,17.14,16.42,32.9,21.5,50.34,3.33,11.48,4.31,23.43,6.91,35.06,5.74,25.59,5.45,28.52,24.82,47.2" transform="translate(-246.21 -309.33)"/><path class="cls-7" d="M1005.83,436.58c87.34-39,141.74-57.69,231.78-90.81,32.36-11.92,64.86-23.87,98.53-32,7.64-1.86,16.6-3.25,22.77,1.5a24,24,0,0,1,7.32,13.82,239.51,239.51,0,0,1-8.41,145.69c-13.64,35.28-35.65,67.34-47,103.39-7.31,23.58-10.13,48.33-16,72.31-13.13,53.12-12.72,58.86-53.78,96.66" transform="translate(-246.21 -309.33)"/><path class="cls-3" d="M1007.33,439c49.86-22.3,100.53-42.52,151.79-61.45,27-10,54-19.78,81-29.73,29.65-11,59.41-21.93,90-29.68,6.73-1.72,14.08-4.17,21.1-3.07,7.89,1.2,10.67,7.86,12.5,14.8a232.82,232.82,0,0,1,7.06,44.82,237.87,237.87,0,0,1-11.59,88.55c-9.25,28-24.43,53.34-37,79.84a257.65,257.65,0,0,0-15.61,40.22c-4.21,15-6.84,30.23-9.76,45.48-2.6,13.31-5.85,26.47-9.14,39.63a236.61,236.61,0,0,1-7.32,25.3c-5.74,15.5-16.23,27.64-27.89,39.08-4.31,4.24-8.77,8.41-13.23,12.5-2.6,2.42,1.28,6.29,3.87,3.88,13.82-12.72,28.74-25.92,37.62-42.81s12.1-35.68,16.49-53.67c7.68-31.22,11-63.21,23.58-93.08,11.73-27.86,27.75-53.67,38.93-81.75a241.32,241.32,0,0,0,17-89.13,244.1,244.1,0,0,0-4.24-45c-2.09-11-3.66-28-15.87-32.9a31.44,31.44,0,0,0-17.62-.44c-7.75,1.54-15.43,3.66-23,5.93-16,4.57-31.91,9.87-47.52,15.46-29.51,10.46-58.86,21.46-88.26,32.25-51.69,18.93-103.09,38.56-153.55,60.54l-21.93,9.69c-3.22,1.46-.44,6.17,2.78,4.75Z" transform="translate(-246.21 -309.33)"/><path class="cls-6" d="M1057,460.2c61.67-29.57,100.06-43.87,163.56-69A605.11,605.11,0,0,1,1290,366.83c5.37-1.39,11.7-2.49,16,1.06a18.33,18.33,0,0,1,5.08,10.31,190.76,190.76,0,0,1-6.51,109.17c-9.76,26.5-25.37,50.59-33.52,77.65-5.34,17.69-7.32,36.23-11.59,54.21-9.47,39.85-9.18,44.17-38.24,72.65" transform="translate(-246.21 -309.33)"/><path class="cls-3" d="M1058.51,462.65c35.83-17.18,72.28-32.9,109.16-47.53,19.53-7.78,39.08-15.46,58.5-23.21A529.33,529.33,0,0,1,1291,369.57c4.49-1.13,10.64-2.67,14.29,1.21s4,10.09,4.9,14.62a184.38,184.38,0,0,1,3.66,33.78,187.85,187.85,0,0,1-10.39,64.35c-7,20.07-17.58,38.6-26.06,58.05A194.6,194.6,0,0,0,1267,570.83c-2.82,11-4.61,21.93-6.73,33.16-2,10.42-4.46,20.76-7,31.11a135.52,135.52,0,0,1-6,19.89c-5.77,13.85-17,24.49-27.56,34.84-2.53,2.49,1.35,6.36,3.87,3.87,9.87-9.68,20.44-19.7,26.73-32.24s8.7-26.69,11.88-40.22c5.41-23,7.82-46.57,16.49-68.73,8.08-20.76,19.41-40.21,27.53-60.79a193.76,193.76,0,0,0,13.08-65.26,198,198,0,0,0-2-32.91c-.8-5.44-1.79-11-3.1-16.23a21.67,21.67,0,0,0-5.38-11c-7-6.65-18-2.59-25.92-.32-11.52,3.29-22.85,7.31-34.11,11.37-21.71,8.11-43.25,16.92-64.82,25.59-43.25,17.07-86.09,34.87-128,54.84-3.19,1.49-.41,6.25,2.74,4.71Z" transform="translate(-246.21 -309.33)"/><path class="cls-1" d="M1090.72,479.51c41.67-19.82,67.7-29.25,110.7-46.4a427,427,0,0,1,47.12-16.52,13.07,13.07,0,0,1,11,.47,11.63,11.63,0,0,1,3.66,6.58,115.82,115.82,0,0,1-2.42,70.31c-6.18,17.18-16.45,32.9-21.49,50.37-3.33,11.45-4.35,23.4-6.91,35-5.74,25.77-5.49,28.55-24.83,47.2" transform="translate(-246.21 -309.33)"/><path class="cls-4" d="M692.41,1752c-23.73,20.51-130.89,69.17-294.67,62.15-11-.48,9.29-87.74-2.63-95.05-33.34-21.06-5.41-75.68,30.41-145.73,19.71-38.6,25.85-41.53,32-42.7C529.32,1516.76,738.43,1712.2,692.41,1752Z" transform="translate(-246.21 -309.33)"/><ellipse class="cls-8" cx="368.24" cy="1730.08" rx="105.22" ry="120.9" transform="translate(-544.48 -217.71) rotate(-10.12)"/><ellipse class="cls-6" cx="375.73" cy="1757.94" rx="57.88" ry="64.15" transform="translate(-557.61 -212.53) rotate(-10.41)"/><ellipse class="cls-6" cx="297.01" cy="1690.93" rx="13.93" ry="18.97" transform="translate(-1125.81 131.37) rotate(-33.3)"/><ellipse class="cls-6" cx="334.61" cy="1666.68" rx="16.16" ry="21.57" transform="translate(-844.71 -63.6) rotate(-21.94)"/><ellipse class="cls-6" cx="382.91" cy="1659.89" rx="21.24" ry="15.32" transform="translate(-1544.92 1622.61) rotate(-86.2)"/><ellipse class="cls-6" cx="426.42" cy="1678.23" rx="19.12" ry="13.75" transform="translate(-1490.75 914.8) rotate(-60.54)"/><path class="cls-3" d="M976.29,1007.49c21.16-7.31,42.66-.25,64.3.26,6.29,0,12.58-.48,18.87,0a203.41,203.41,0,0,1,36.56,7.31c12.5,3.22,24.93,6.76,37.32,10.38a160.93,160.93,0,0,1,37.59,14.81c23.58,13.85,43.69,33.19,62.92,52.42,8.73,8.78,17.32,17.7,26.13,26.4a195.59,195.59,0,0,1,26.77,31.11,174.63,174.63,0,0,1,28,73.38c3,21.93,3.66,45.66-4.38,66.72-12.76,32.9-47.53,44.6-78.93,52.06-4.54,1.06-9.07,2-13.6,3-5.16,1.14-3,9.07,2.19,7.94,33.34-7.32,71.69-16,91.4-46.84,11-17.32,14-38.6,13.6-58.82a190.8,190.8,0,0,0-17.88-78.16,184.39,184.39,0,0,0-23.07-37,373.9,373.9,0,0,0-27.09-28.22c-19.6-19.85-39-40.22-61.16-57.14a168.49,168.49,0,0,0-34.51-21.28,323.94,323.94,0,0,0-42.38-13.34,392.24,392.24,0,0,0-51.4-12.21,131.26,131.26,0,0,0-21.71-.81c-17.81.37-35.36-4.71-53.13-3.65a70.13,70.13,0,0,0-18.57,3.65c-5,1.72-2.81,9.69,2.2,7.93Z" transform="translate(-246.21 -309.33)"/><path class="cls-3" d="M1021.47,998.46c-79.22-3.07-158.59-4.75-237.85-3-38.13.81-76.15,2.74-114.17,5.34a171,171,0,0,1-25.59,1.06c-11.7-1-23.26-2.92-35-3.36-10.75-.4-21.6.58-32.32,0-5.55-.33-10-3.18-15.21-4.83a45.76,45.76,0,0,0-23.72.37,185.22,185.22,0,0,0-42.41,17c-37.55,19.34-71.07,44.64-103.06,72-14.15,12.13-28,24.56-41.5,37.47a175.06,175.06,0,0,0-35.75,50.3,183.16,183.16,0,0,0-15.72,49.76,169.08,169.08,0,0,0-2.41,51.18A92.48,92.48,0,0,0,323,1325.63a109.16,109.16,0,0,0,43.87,25.11,177.63,177.63,0,0,0,80,5.93c59.92-9.4,109.68-49.72,155.49-86.54,47.19-37.91,96.22-80.25,156.43-95.05,27.31-6.69,58.5-8.78,84.09,4.93,22.74,12.18,39.12,33.16,58.49,49.8a171.26,171.26,0,0,0,37.26,25,176.51,176.51,0,0,0,54.84,15.58c44.45,5.74,89.49-2.2,131-18.28a416,416,0,0,0,50.93-24.06c4.61-2.56.48-9.69-4.17-7.09-35.68,19.81-74.29,35.1-114.9,40.8s-84.34,2.23-120.46-17.62c-24.17-13.31-42.12-33.6-62.16-51.88a128.81,128.81,0,0,0-29.9-21.17,97,97,0,0,0-40.22-9.21c-61.27-1.35-115.08,31.15-162.24,67-48,36.56-92.9,80-148.47,105.11a172.87,172.87,0,0,1-82.88,16.09c-28-1.94-57.87-9.14-79-28.59a84.59,84.59,0,0,1-26.54-53.34,181.72,181.72,0,0,1,3.29-49.36,176.06,176.06,0,0,1,54.62-98,798.72,798.72,0,0,1,92.45-76.26,395.48,395.48,0,0,1,53.2-30.71,131.05,131.05,0,0,1,37.14-13,35.11,35.11,0,0,1,20.48,3.4c8.11,3.25,16.59,2.41,25.18,2.3,9.8,0,19.6,0,29.25.84,8.81.7,17.7,2.78,26.54,2.85,3.66,0,7.06-.22,10.61-.44,30.74-1.75,61.41-4,92.23-5.15,67.2-2.41,134.54-2,201.77-.26q35,.92,70.12,2.31c5.3,0,5.3-8.05,0-8.23Z" transform="translate(-246.21 -309.33)"/><path class="cls-2" d="M897.32,1770.59H717c-104.74,0-273.79-160.86-273.79-294.89h0c0-128.36,14.62-283.62,80.21-393.37,2.52-4.28,51.66-92.24,56.12-99,68.73-104.89,151.39-53.52,226.66-74.95h0c67.82,19,160.1-16.45,229.56,82,3,4.21,31.29,70.52,37.4,86.46,21.31,55.46,72.57,183.79,96.44,398.86h-.4C1169.17,1609.84,1002.17,1770.59,897.32,1770.59Z" transform="translate(-246.21 -309.33)"/><path class="cls-9" d="M359.5,1348.08a60.87,60.87,0,0,0,25.59,5.19c9.94.33,19.6,1.35,29.47,2.52,20.21,2.38,40.58,3.65,60.94,4.24a581.74,581.74,0,0,0,118.38-10,543.77,543.77,0,0,0,113.73-32.9,210.41,210.41,0,0,0,46-26.54,148.65,148.65,0,0,0,33.38-37,294.36,294.36,0,0,0,26.39-46.32,128.65,128.65,0,0,0,9.69-50.78c0-17.18-1-35.42-10.31-50.45s-25.59-24-41.9-29.43a67.66,67.66,0,0,0-42.59-.73,97.58,97.58,0,0,0-35.39,22.34A299.44,299.44,0,0,0,662,1133.44c-8.59,11-16.12,23-27.86,31.07a354.15,354.15,0,0,1-38.2,21.94,79.31,79.31,0,0,1-15.14,6.54,187.49,187.49,0,0,1-21.09,4.64,203.22,203.22,0,0,1-43.25,1.87,191.75,191.75,0,0,1-50-8.12,86.34,86.34,0,0,1-20.21-9.25c-4.46-2.88-8.59,4.24-4.13,7.1a116.6,116.6,0,0,0,42.55,15.06,260,260,0,0,0,48.81,3.65,197.13,197.13,0,0,0,39.26-4.49,96,96,0,0,0,18.57-5.45c5-2.16,9.8-5,14.63-7.31a251.63,251.63,0,0,0,36.88-21.94c10.75-8.15,18.07-20.14,26.33-30.67,17-21.94,37-47.75,65.15-55.06a65.83,65.83,0,0,1,43.17,5.19c16.75,7.32,29.83,19,34.55,37.22a109.14,109.14,0,0,1,2.85,25.59,145.24,145.24,0,0,1-1.39,27.09A136.91,136.91,0,0,1,796,1223.92a258.76,258.76,0,0,1-29,43.36,153,153,0,0,1-39.23,31c-32.31,18.5-69.46,28.84-105.36,37.54a570,570,0,0,1-173.65,15.21c-19.34-1.24-39.34-4.9-59-5.52-8.81-.25-18.06,0-26.1-4.17-4.72-2.33-8.89,4.76-4.13,7.1Z" transform="translate(-246.21 -309.33)"/><path class="cls-1" d="M361.55,1344.53c11.66,6.21,27.38,3.65,40.91,5.59,98.16,13.38,185.35,3.66,278.1-27.16,40-13.27,78.13-33.85,99.29-66.17,21.94-33.56,39-58.83,39.12-97.47,0-19.63-.4-40.73-13.6-56.7-8.37-10.09-21-17-34.29-21.68-55.17-19.6-88.87,33.85-122.51,76.59-9.36,11.88-43.21,28.37-57.36,35.86-8.45,4.46-34,9.18-43.87,9.77-31.92,2-77.54-1-103.13-17.66" transform="translate(-246.21 -309.33)"/><path class="cls-3" d="M723.33,1128.32a86.72,86.72,0,0,0,17.59-20.51c4.79-8.48,8.7-17.55,12.9-26.32a4.24,4.24,0,0,0-1.46-5.63,4.13,4.13,0,0,0-5.63,1.46c-4.09,8.55-7.93,17.33-12.5,25.59a80.25,80.25,0,0,1-16.71,19.6c-3.91,3.65,1.94,9.43,5.81,5.81Z" transform="translate(-246.21 -309.33)"/><path class="cls-3" d="M780.44,1152.34a76.86,76.86,0,0,1,12.06-22.52c5.89-7.06,12.36-13.68,18.61-20.44,3.66-3.87-2.23-9.72-5.81-5.81-6.58,7.31-13.56,14.11-19.63,21.64a89.48,89.48,0,0,0-13.16,24.93,4.11,4.11,0,1,0,7.93,2.2Z" transform="translate(-246.21 -309.33)"/><path class="cls-3" d="M755.69,1137.75c11.44-13.53,16.41-31,27.35-44.78a4.22,4.22,0,0,0,0-5.82,4.15,4.15,0,0,0-5.82,0c-11,13.82-16,31.33-27.34,44.79a4.11,4.11,0,0,0,5.81,5.81Z" transform="translate(-246.21 -309.33)"/><path class="cls-3" d="M831.88,1247.57c-12.32-18.86-24.79-38.2-30.46-60.25a134.71,134.71,0,0,1-3.43-35.24,98.08,98.08,0,0,1,4.82-33.19c8.05-21.57,32.54-34.77,54.51-37.55,19.2-2.45,36.75,5.81,51.19,18.06,17.91,15.32,31.73,34.84,46,53.41,3.18,4.13,10.34,0,7.09-4.16-24.2-31.48-53.41-77.25-98.71-76a85.06,85.06,0,0,0-32.9,8.66,69.43,69.43,0,0,0-28.7,22.78,72,72,0,0,0-11,34.84,169.5,169.5,0,0,0,.62,37.47c3.88,28,18.61,52.06,33.78,75.31,2.89,4.43,10,.29,7.13-4.17Z" transform="translate(-246.21 -309.33)"/><path class="cls-1" d="M1253.33,1339.56c-11.66,6.18-30.53,8.73-43.87,10.56-98.16,13.38-185.35,3.66-278.14-27.16-39.92-13.27-78.13-33.85-99.26-66.17-21.93-33.56-39-58.83-39.12-97.47,0-19.63.41-40.73,13.6-56.7,8.34-10.09,21-17,34.26-21.68,55.17-19.6,88.91,33.85,122.54,76.59,9.36,11.88,43.22,28.37,57.33,35.86,8.44,4.46,34.07,9.18,43.87,9.77,32,2,77.58-1,103.17-17.66" transform="translate(-246.21 -309.33)"/><path class="cls-1" d="M828.3,1249.66c-19.67-30.16-34.37-54.47-34.44-90.34,0-19.63.4-40.73,13.6-56.7,8.37-10.09,21-17,34.29-21.68,52.24-18.57,84.3,28.44,116.15,69.79" transform="translate(-246.21 -309.33)"/><path class="cls-3" d="M863.94,1132.63A79.92,79.92,0,0,1,847.2,1113c-4.57-8.3-8.38-17.08-12.47-25.59a4.13,4.13,0,1,0-7.44,3.6,5.64,5.64,0,0,0,.31.53c4.24,8.81,8.12,17.87,12.91,26.36a88.22,88.22,0,0,0,17.58,20.51C862,1142.1,867.82,1136.22,863.94,1132.63Z" transform="translate(-246.21 -309.33)"/><path class="cls-3" d="M838.31,1155a86.51,86.51,0,0,0-14.37-23.1c-6.61-7.09-14-13.53-21-20.15-3.84-3.65-9.68,2.16-5.81,5.82,6.84,6.47,14,12.76,20.47,19.59a79.15,79.15,0,0,1,13.6,21.94,4.13,4.13,0,0,0,7.13-4.17Z" transform="translate(-246.21 -309.33)"/><path class="cls-3" d="M863.25,1082.55c11,13.78,15.9,31.25,27.34,44.74a4.09,4.09,0,0,0,5.79,0l0,0a4.21,4.21,0,0,0,0-5.81c-11.37-13.42-16.42-31-27.35-44.75a4.1,4.1,0,0,0-5.79,0l0,0A4.2,4.2,0,0,0,863.25,1082.55Z" transform="translate(-246.21 -309.33)"/><path class="cls-3" d="M1251.25,1336c-15.17,7.83-33.93,9.11-50.64,11.19-19.7,2.41-39.52,4-59.37,4.5a595,595,0,0,1-229.19-40.22,214,214,0,0,1-45.48-24.89,139.25,139.25,0,0,1-34.66-37.4,292.16,292.16,0,0,1-25.59-44.53,125.21,125.21,0,0,1-9.39-51.19c.18-17.29,1.64-36.15,13.78-49.61a77.45,77.45,0,0,1,45-22.52c29.54-4.13,53.15,16.42,71.32,37.11,10.2,11.63,19.49,24.06,29,36.3A68.88,68.88,0,0,0,968.61,1168a166.23,166.23,0,0,0,17.22,11.3,348,348,0,0,0,34.66,18.28,139.87,139.87,0,0,0,38,8.81,220.21,220.21,0,0,0,44.46.4,183.25,183.25,0,0,0,47.53-9,92.43,92.43,0,0,0,19.08-9.07c4.42-2.85.33-10-4.17-7.09-13.56,8.66-29.68,12.61-45.44,15a257.86,257.86,0,0,1-50.74,2.34,163.33,163.33,0,0,1-40-6.94,89.19,89.19,0,0,1-15-6.8c-6.36-3.33-12.68-6.66-18.93-10.13-12.21-6.84-23.91-13.75-32.54-24.9-9.8-12.54-19.27-25.37-29.72-37.36-18.58-21.24-42.67-42-72.68-40.43A88.62,88.62,0,0,0,813.53,1090c-14.3,10.72-21.5,26.14-23.77,43.58a152.1,152.1,0,0,0,2,53,162.69,162.69,0,0,0,20.58,47.09c9.25,15.21,18.68,31,31.22,43.87a169.84,169.84,0,0,0,41.31,30.13c34.11,18.28,72.79,28.92,110.34,37.47a589.31,589.31,0,0,0,118.63,14.62,602.4,602.4,0,0,0,61-2,490,490,0,0,0,57.51-7.31,90.89,90.89,0,0,0,23-7.31c4.72-2.41.55-9.54-4.17-7.31Z" transform="translate(-246.21 -309.33)"/><path class="cls-7" d="M387.32,621.28c-14.11,24.39-24,28.08-52.17,43.07A194.46,194.46,0,0,1,251.83,688c-2.67,0-3.65,3.18-1.17,4l55.46,20.07c9.73,3.66,33.86,9.54,44.09,9.32,3.44,0-31,21.24-33.78,23C296.87,756,291.57,756,265.25,779.47c-24.09,21.61,64.53-5.37,67.52-5.08,52.9,4.9,76.78,6.62,80.87,14.44" transform="translate(-246.21 -309.33)"/><path class="cls-3" d="M385,619.89a78.64,78.64,0,0,1-21.39,25.23A261.22,261.22,0,0,1,331,663.4,205.52,205.52,0,0,1,283.49,681a169.43,169.43,0,0,1-26,4c-3.65.29-13,0-11,6.65,1.21,3.84,9.18,5.27,12.33,6.4l25,9a352.74,352.74,0,0,0,43.88,13.93,142.71,142.71,0,0,0,17.54,3,11.6,11.6,0,0,0,3.22.22,6.87,6.87,0,0,0,1.57,0s-2.78-4.09-2-4.06c-.36,0-2.08,1.72-2.41,2-6.91,5.15-14.33,9.65-21.61,14.26-14.07,8.84-29.24,15.86-42.55,25.92-5.63,4.24-11,8.81-16.23,13.49a23.1,23.1,0,0,0-6.26,6.8c-1.93,4.16.92,7.09,4.94,7.75a54,54,0,0,0,18.1-1c8-1.35,15.86-3.18,23.72-5.08,6.88-1.68,13.68-3.47,20.51-5.23,1.94-.51,3.88-1,5.85-1.46a64.19,64.19,0,0,1,12.07.81c13.78,1.28,27.6,2.45,41.31,4.24a77,77,0,0,1,22.12,4.79,7.73,7.73,0,0,1,3.65,3c1.68,3.11,6.44.33,4.76-2.78a18.29,18.29,0,0,0-11.56-7.09,165.54,165.54,0,0,0-26.17-4.31c-6.73-.77-13.49-1.43-20.22-2L346.41,773a101.67,101.67,0,0,0-13.71-1.24,52,52,0,0,0-10.31,2.34c-14.62,3.65-29.54,7.82-44.56,10.16a73,73,0,0,1-9,1c-1.43,0-4.46-.55-5.23-.44s.33.48,0,.55.22-.44.73-1.13a73.3,73.3,0,0,1,12.91-11.59c13.82-11.52,29.54-19.05,44.67-28.44,7.31-4.57,14.63-9.14,21.68-14,2-1.35,13.35-7.6,7.86-11-1.31-.8-3.47-.4-4.93-.51a81,81,0,0,1-8.92-1.21c-6.18-1.06-12.32-2.48-18.28-4.09s-11.7-3.44-17.48-5.52l-45.51-16.63c-1.17-.44-3.66-1.91-4.87-1.76a17.4,17.4,0,0,0,2.78,1.17,28,28,0,0,0,5.78-.4c4.06-.37,8.11-.88,12.14-1.5a199,199,0,0,0,47.23-13.89,355.94,355.94,0,0,0,38-19.42A78.18,78.18,0,0,0,380,637a113.5,113.5,0,0,0,9.62-14.3,2.74,2.74,0,0,0-4.72-2.78Z" transform="translate(-246.21 -309.33)"/><path class="cls-7" d="M403.08,793.88c-15.65-22.78-23.51-30-53.16-42a199,199,0,0,0-86.79-14.85c-2.78,0-3.66-2.78-1.39-3.91l56.15-25.59c9.84-4.53,34.44-13,45-13.86,3.66-.29-32.9-17.91-35.79-19.3-20.62-9.5-26.1-8.88-54.14-29.54-25.59-19,66.61-1.39,69.68-2,54.22-10.39,78.78-14.63,82.59-22.82" transform="translate(-246.21 -309.33)"/><path class="cls-3" d="M405.42,792.52a118,118,0,0,0-21-25,116.84,116.84,0,0,0-30.31-16.82,218.61,218.61,0,0,0-47.52-14,200.23,200.23,0,0,0-24.79-2.66c-4.5,0-9-.19-13.53,0-1.17,0-5.15-.26-5.11.84s0,.58.25.51a32,32,0,0,0,5.12-2.34l9.91-4.57,24.82-11.37a316,316,0,0,1,44.82-17.55c2.78-.8,5.56-1.53,8.37-2.16a64.91,64.91,0,0,0,7.32-1.2,3,3,0,0,0,1-5.27,28.7,28.7,0,0,0-7.31-4.42c-4-2.23-8.15-4.31-12.28-6.4C339,677,332.74,673.85,326.41,671,318,667.31,309.27,664,301,659.74a154.24,154.24,0,0,1-15.13-9.18A69.41,69.41,0,0,1,272,640.29c-.33-.36-1-1.31-.84-1.28s-.26.84,0,.81h0c1,0,3.87-1,5.41-1.06,15.17-1,30.93,1.86,45.88,4,5.77.84,11.51,1.79,17.33,2.48a13.9,13.9,0,0,0,4.46,0c8.37-1.39,16.7-3.18,25-4.79,12.07-2.34,24.17-4.6,36-7.71a56.66,56.66,0,0,0,18.28-7,12.42,12.42,0,0,0,4.09-4.43c1.54-3.14-3.18-5.92-4.75-2.74-1.94,3.95-8.15,5.63-12.1,6.88a285.43,285.43,0,0,1-30.67,7.31c-7.64,1.53-15.28,3-22.92,4.46A83.16,83.16,0,0,1,341.62,640,119.88,119.88,0,0,1,326.78,638a304.49,304.49,0,0,0-47-4.75c-3.91,0-10.71-.18-13.2,3.66s2.12,8.07,5.08,10.31a182.42,182.42,0,0,0,32.14,20c7.67,3.66,15.57,6.43,23.21,10s14.62,7.31,21.94,11c3.4,1.79,6.83,3.66,10.09,5.52.47.29,1.93,1.39,2,1.39l1.14-4.13h-.81a6.94,6.94,0,0,0-1.57.18l-3.65.7a231.45,231.45,0,0,0-48.59,17.36L262.8,729.72a9.7,9.7,0,0,0-4.17,2.63,4.57,4.57,0,0,0,0,5.26c1.9,2.71,5.19,2.12,8.05,2a186,186,0,0,1,53,5.38,215.62,215.62,0,0,1,45,16.38,77.57,77.57,0,0,1,25.15,19.19,175.22,175.22,0,0,1,11,14.62c2,2.89,6.72,0,4.71-2.74Z" transform="translate(-246.21 -309.33)"/><path class="cls-7" d="M1266.49,634.19c14.11,24.38,24,28.07,52.17,43.06A194.78,194.78,0,0,0,1402,700.94c2.67,0,3.66,3.15,1.17,4L1347.69,725c-9.72,3.65-33.85,9.54-44.09,9.32-3.44,0,31,21.24,33.78,22.92,19.56,11.63,24.86,11.59,51.18,35.1C1412.66,814,1324,787,1321,787.3c-52.9,4.89-76.78,6.61-80.87,14.44" transform="translate(-246.21 -309.33)"/><path class="cls-3" d="M1264.12,635.69a85.54,85.54,0,0,0,20.14,24.75,181.53,181.53,0,0,0,29,17.18,241.48,241.48,0,0,0,44.42,18.75,187.29,187.29,0,0,0,23.87,5.41c3.66.59,7.53,1.06,11.33,1.43a38.06,38.06,0,0,0,5.74.44c.41,0,5-1,3.66-1.17a18.64,18.64,0,0,0-5.16,1.86L1386.81,708l-25.3,9.14a269.65,269.65,0,0,1-46.17,13.27,80.63,80.63,0,0,1-8.34,1.1,11.82,11.82,0,0,0-4.94.51c-2.45,1.5-1.2,4,.37,5.52a126.75,126.75,0,0,0,19,12.94c5.78,3.66,11.59,7.31,17.55,11,7.83,4.53,16,8.52,23.47,13.53a161.27,161.27,0,0,1,14.41,11,71.88,71.88,0,0,1,12.35,11.15c.37.52,1,1.39.77,1.28s.48-.65.19-.69a49.58,49.58,0,0,0-5.31.44c-14.62-.48-29.76-5-43.87-8.67-5.41-1.35-11-2.89-16.27-4.16a16.33,16.33,0,0,0-4.46-.55c-8.33.18-16.85,1.53-25.15,2.34-11.59,1.09-23.25,2.15-34.77,4a50.07,50.07,0,0,0-18.28,5.3,11.32,11.32,0,0,0-4.13,4.06c-1.68,3.1,3.07,5.88,4.76,2.78,2-3.66,8.62-4.79,12.46-5.6a279.29,279.29,0,0,1,31.66-4.28c7.72-.76,15.43-1.46,23.14-2.19,3.66-.33,7.61-1.06,11.3-1.06-.84,0,.33,0,.84.18,5.16,1.17,10.27,2.64,15.43,4a271.46,271.46,0,0,0,44.89,9.11c3.66.29,9.95.95,12.29-2.71,3.07-4.83-3.88-9.94-6.84-12.54a190.16,190.16,0,0,0-28.15-21.42c-7.31-4.32-14.62-8-21.93-12.43s-13.42-8.38-20-12.69c-3.33-2.16-6.66-4.31-9.84-6.69-.29-.22-1.9-1.86-2.19-1.83,1.06,0-3.66,7-.91,2.16-1.87,3.18-1.43,1.46,0,1.9a14.71,14.71,0,0,0,4.13-.29,206.7,206.7,0,0,0,49.35-12.69c14.63-5.34,29.54-10.56,44.28-16,1.9-.7,3.87-1.43,4.53-3.66,2.16-6.91-7.94-6.39-11.7-6.69a184,184,0,0,1-49.25-11.18A327.2,327.2,0,0,1,1304,666.32,85.57,85.57,0,0,1,1279.25,648a104.21,104.21,0,0,1-10.38-15.13,2.74,2.74,0,0,0-4.72,2.78Z" transform="translate(-246.21 -309.33)"/><path class="cls-7" d="M1250.77,806.78c15.65-22.77,23.51-30,53.16-42A199.15,199.15,0,0,1,1390.72,750c2.78.18,3.84-2.78,1.39-3.91L1336,720.47c-9.83-4.5-34.43-13-45-13.82-3.66-.3,32.9-17.92,35.79-19.31,20.62-9.5,26.1-8.88,54.14-29.54,25.78-19-66.61-1.39-69.68-2-54.22-10.38-78.78-14.62-82.59-22.81" transform="translate(-246.21 -309.33)"/><path class="cls-3" d="M1253.11,808.17a106,106,0,0,1,22.23-25.59,135.92,135.92,0,0,1,35.13-17.44,206.64,206.64,0,0,1,50.71-12,178.2,178.2,0,0,1,26.94-.66c2.56,0,5.2.4,7-1.75a4.62,4.62,0,0,0,0-5.56,10,10,0,0,0-4.35-2.71l-8.38-3.83L1358,727.45A410.45,410.45,0,0,0,1316.21,710a177.67,177.67,0,0,0-18.28-5.15l-3.65-.7c-2-.29-2.6-1.06-1.83,1.76s.73,1.86,2.85.55c7.31-4.39,15-8,22.63-11.81,15.1-7.31,31.3-12.91,45.66-21.72a228.48,228.48,0,0,0,18.87-12.9,16.45,16.45,0,0,0,5.23-5.27c2-4.2-1.39-7-5.2-7.89a63.17,63.17,0,0,0-19-.37c-8.26.59-16.52,1.61-24.79,2.74-7,.92-14,2-21,3a42.93,42.93,0,0,1-5.3.69,86.27,86.27,0,0,1-16.34-2.92c-13.39-2.56-26.8-5.05-40.22-8.15a77.38,77.38,0,0,1-21.31-7,8.44,8.44,0,0,1-3.66-3.36c-1.57-3.18-6.29-.4-4.75,2.74,2.12,4.28,7.31,6.4,11.29,8a174.91,174.91,0,0,0,26.91,7.05c15,3.18,30.05,6.29,45.15,8.85a39.57,39.57,0,0,0,12.07-1.06c15.28-2.23,30.6-4.68,46-5.41a80.76,80.76,0,0,1,9.84,0c1.42,0,4.39,1.2,5.26,1.09.33,0-.51-.76,0-.87s-.62,1.06-1,1.42a75.45,75.45,0,0,1-14.37,10.5c-14.95,10-31.52,15.83-47.53,23.69-7.86,3.83-15.72,7.71-23.4,11.88-2.12,1.17-13.52,7.13-6.17,9.72a55.21,55.21,0,0,0,6.65,1.1c3.18.69,6.32,1.53,9.47,2.45a178.69,178.69,0,0,1,18.28,6.07c5.37,2,10.56,4.27,15.75,6.65l45.16,20.69c1.13.52,3.65,2.31,4.93,2.27h0c2.34-.66-2.12-1.46-1.72-1.32a13.81,13.81,0,0,0-3.4,0c-4.49-.18-9-.18-13.52,0a202.58,202.58,0,0,0-49.4,8.41c-23.32,6.95-48,16.49-63.75,35.79-3.66,4.57-7.32,9.4-10.5,14.23-2,2.92,2.74,5.66,4.72,2.77Z" transform="translate(-246.21 -309.33)"/><path class="cls-2" d="M738.43,402.44H913.92c218.06,0,394.83,176.77,394.83,394.84h0c0,129.7-105.14,234.85-234.85,234.85H578.41c-129.7,0-234.85-105.15-234.85-234.85h0c0-218.07,176.77-394.84,394.84-394.84h0Z" transform="translate(-246.21 -309.33)"/><path class="cls-6" d="M1209,988.3c23.11-12.07,32.43-14.63,59.56-10.31a141.27,141.27,0,0,1,68.58,29.68,2,2,0,0,0,3-2.67l-25.59-49.86c-4.46-8.74-17.15-28.15-24.06-34.07-2.3-2,18.61,4.49,21.32,5.59,20.61,8.37,20.14,5.56,45.48,25.59,12.24,9.72,2.55-28.37,1.68-31-15.91-46.32-52.14-108.39-50.42-117.35" transform="translate(-246.21 -309.33)"/><path class="cls-3" d="M1211.07,991.88a97.22,97.22,0,0,1,27.82-11,95.15,95.15,0,0,1,31.48,1.54,147.53,147.53,0,0,1,33.81,9.94,132.84,132.84,0,0,1,16.6,8.67c2.23,1.39,4.46,2.81,6.62,4.35a59.73,59.73,0,0,0,8.59,6.32,6.07,6.07,0,0,0,8-3.09,6.31,6.31,0,0,0,.44-1.48,9.17,9.17,0,0,0-1.39-5.59c-2.09-4.21-4.32-8.37-6.44-12.54l-17.25-33.64a152.19,152.19,0,0,0-8.52-14.62c-3.07-4.64-5.89-8.85-9.1-13-1.54-2-3.08-4-4.72-5.81-.62-.7-1.21-1.36-1.87-2s-1.82-2.86-.8,0l-1.06,4c-.55.7-2.45,1-2.38,1.1a17.91,17.91,0,0,0,2.09.47c1.9.44,3.65,1,5.66,1.54,3.66,1,7.1,2,10.57,3.25,6.47,2.27,13.12,4.68,19.38,7.53a117.14,117.14,0,0,1,22.48,15.07c4.57,3.65,12.61,9.43,15.72.65,2-5.88.37-13.34-.69-19.26a107,107,0,0,0-3.95-16.09,662.58,662.58,0,0,0-28.88-66.1c-5-10.27-10.06-20.54-14.63-31-1.57-3.66-3.14-7-4.42-10.64-.44-1.28-.88-2.6-1.21-3.91,0-.26-.33-1.72-.22-.84v-.33c.77-5.2-7.31-7.32-7.93-2.2a25.56,25.56,0,0,0,2.89,13c3,7.31,6.4,14.62,9.83,21.94,9.51,19.88,19.34,39.59,28,59.88a165.79,165.79,0,0,1,13.45,42.59,40.85,40.85,0,0,1,.51,8.41,11.55,11.55,0,0,1-.25,1.86,16.34,16.34,0,0,0,1.86-.65c-.29-1.17-4.86-3.66-5.92-4.5-2.09-1.65-4.21-3.25-6.33-4.86a117.41,117.41,0,0,0-10.56-7.31,113.48,113.48,0,0,0-17.26-7.54c-6.51-2.45-12.9-4.86-19.59-6.8-3.22-.91-17.19-5.77-14.88,2.93.69,2.67,4.35,5.12,6.1,7.31a148.69,148.69,0,0,1,9.18,12.58,294.33,294.33,0,0,1,16.49,29.43l10.16,19.81a150,150,0,0,0,7.31,14.63c.22.32.44,1.24.77,1.46h0c.62,1.2,1.35,0,2.19-3.26-.22-.95-3.65-3-4.64-3.65a128.6,128.6,0,0,0-18.79-11.59,150.48,150.48,0,0,0-39.89-13.53,112.37,112.37,0,0,0-36.56-2.41,101.44,101.44,0,0,0-31.88,12.1c-4.71,2.45-.54,9.58,4.14,7.13Z" transform="translate(-246.21 -309.33)"/><path class="cls-6" d="M444.4,989.07C421.33,977,412,974.44,384.85,978.76a140.91,140.91,0,0,0-68.59,29.83,2,2,0,0,1-3-2.71L338.82,956c4.46-8.74,17.15-28.15,24.06-34.08,2.3-2-18.61,4.5-21.32,5.6-20.62,8.4-20.14,5.59-45.48,25.59-12.25,9.76-2.56-28.37-1.68-31,15.9-46.32,52.13-108.4,50.41-117.35" transform="translate(-246.21 -309.33)"/><path class="cls-3" d="M446.45,985.52a107.9,107.9,0,0,0-28.7-11.59,92.28,92.28,0,0,0-30.75.37,147.93,147.93,0,0,0-69.86,28.22l-1.28,1c-2.16,1-1.86,2.45.91,4.27v-.25a4.3,4.3,0,0,1,.7-1.36,60.11,60.11,0,0,0,3.14-6.14l9.62-18.79c4.64-9,9-18.28,14-27.13a170.24,170.24,0,0,1,16.45-24.27c1.75-2.05,5.41-4.53,6.1-7.31,1.1-4.17-3-5.6-6.21-5.08-12.83,1.93-26,7.67-37.91,12.72a89.64,89.64,0,0,0-18.28,11c-2.16,1.6-4.24,3.21-6.36,4.86-.92.73-5.74,3.47-5.93,4.53s-1.24-1.13.84,0c0,0,1.36.77,1.21.88s-.37-1.57-.44-2.16c-1-11.77,3.66-25,7.79-35.79,9-23.51,20.22-46.1,31.11-68.77,4.17-8.62,8.34-17.22,12-26,1.94-4.64,4.53-10,3.65-15.13s-8.7-3-7.93,2.19v.55a26.79,26.79,0,0,1-.95,3.4,80.15,80.15,0,0,1-3.66,8.88c-3.65,8.74-8,17.3-12.13,25.85C313.23,866,302.7,887.65,294,910.21c-4.68,12.13-9.54,26.54-8.51,39.77.43,5.67,4.27,11,10.49,7.83a114.2,114.2,0,0,0,13.49-10.2,102.17,102.17,0,0,1,10.56-7.06,163.12,163.12,0,0,1,22.38-9.29C345.77,930,349.2,929,352.6,928q3.18-.91,6.36-1.75a19.94,19.94,0,0,0,2.67-.63c1.21-.58,0,1.21-1.86-1.2l-1.06-4c.91-2.53,1-1.5-.22-.55a16.91,16.91,0,0,0-1.79,1.9c-1.43,1.54-2.75,3.14-4,4.79-3,3.65-5.74,7.71-8.41,11.7a165.77,165.77,0,0,0-9.8,16.34q-7.91,15.24-15.65,30.53l-7.9,15.39c-1.9,3.65-4.13,8.37.3,11.48s9.58-2.38,13.16-4.94a127.16,127.16,0,0,1,16.08-9.94,141.06,141.06,0,0,1,35-12.51A114.64,114.64,0,0,1,411,981.2c11,1.1,21.24,6.29,31,11.37,4.68,2.45,8.85-4.64,4.13-7.09Z" transform="translate(-246.21 -309.33)"/><path class="cls-7" d="M1005.31,1029.77H631.14c-83.6,0-151.37-39.17-151.37-87.48V936.1c0-57.54,80.71-104.19,180.28-104.19h0c51.64,0,104,23.37,155.64,23.37,53.81,0,106.83-23.37,160.64-23.37,12,0,75.89.68,127.5,30.5,33.86,19.53,52.85,46,52.78,73.69v6.19c0,48.3-67.72,87.47-151.3,87.48Z" transform="translate(-246.21 -309.33)"/><path class="cls-7" d="M1069.22,874.82c-39.26-.55-71.8-20.15-87.74-30.75S955.41,825.83,948.1,821c-52-34.55-50.2-33.27-62.15-49.17-8.74-11.66-11.48-34.29-13.82-43.1a10.09,10.09,0,0,0-2.49-5.34c-7.75-11.55-30.49-9.65-50-5.67a2,2,0,0,1-.13.25c-19-3.68-40.62-5.1-48.13,6.08a9.93,9.93,0,0,0-2.48,5.34c-2.34,8.81-5.08,31.4-13.82,43.06-12,15.94-10.2,14.63-62.15,49.21-7.31,4.83-17.48,12.43-33.42,23.07s-48.44,30.16-87.74,30.75c-1.35,0,29.25,49.64,42.37,75,34.77,66.36,156.91,73.92,188,74,15.7,0,28.29,0,38.67-.67,34-.42,151.95-9,186-74C1040.16,924.5,1070.57,874.82,1069.22,874.82Z" transform="translate(-246.21 -309.33)"/><path class="cls-1" d="M614.59,883.07a64.38,64.38,0,0,0-3-19.84c-7.39-22.16-18.68-23.79-29.87-22.32-14.85,2-19.37,23.53-20,25-18.1,42,3.12,96,58,131,41.68,26.61,69.36,33,100,33C728.23,1029.91,614.85,917.54,614.59,883.07Z" transform="translate(-246.21 -309.33)"/><ellipse cx="414.09" cy="463.82" rx="60.36" ry="90.96"/><ellipse class="cls-7" cx="680.97" cy="757.62" rx="17.99" ry="34.81" transform="translate(-325.71 -229.5) rotate(-6.34)"/><ellipse class="cls-7" cx="630.97" cy="821.93" rx="9.21" ry="14.88" transform="translate(-488.11 -45.79) rotate(-19.88)"/><ellipse cx="730.66" cy="463.82" rx="60.36" ry="90.96"/><ellipse class="cls-7" cx="946.67" cy="757.93" rx="34.95" ry="18.06" transform="translate(-161.26 1301.88) rotate(-83.4)"/><ellipse class="cls-7" cx="1006.29" cy="822.08" rx="14.88" ry="9.21" transform="translate(-355.21 1179.52) rotate(-70.12)"/><path class="cls-7" d="M663.05,603.22c56.77,11.55,97.1,55.79,87,74.84-8.88,16.78-51.58-23.77-112.12-25-58.5-1.2-138.93,23-129.28,6.55S603.68,591.12,663.05,603.22Z" transform="translate(-246.21 -309.33)"/><path class="cls-7" d="M968,606.66c-56.81,11.55-97.1,55.79-87,74.83,8.92,16.78,51.63-23.76,112.17-25,58.27-1.25,138.92,23,129.27,6.5S1027.36,594.59,968,606.66Z" transform="translate(-246.21 -309.33)"/><path class="cls-10" d="M885.94,995.44c0,23.43-52.5,41.68-75.94,41.68h0c-23.47,0-72-18.28-72-41.68" transform="translate(-246.21 -309.33)"/><path class="cls-11" d="M869.76,947.88a65.5,65.5,0,0,1-18,5.26,5.44,5.44,0,0,1-5.6-2.52,31.57,31.57,0,0,1-19.45-4.29,40.5,40.5,0,0,1-11.84-14.69,46.18,46.18,0,0,1-3.22-6.73v.38a3.83,3.83,0,0,1-.22.56c-.33.86-.69,1.69-1.06,2.56a3.5,3.5,0,0,1-.62,1.27,3.81,3.81,0,0,1-.29.57,4.23,4.23,0,0,1-.66,4.28c-.8,1-1.61,2-2.45,2.9A12.46,12.46,0,0,1,802.2,943a16.25,16.25,0,0,1-3.1,1.73,17.26,17.26,0,0,1-8.63,6,6,6,0,0,1-2.16,0,23.09,23.09,0,0,1-10.67.68h-1.72a39.36,39.36,0,0,1-20.77-5c3,30.29,30.13,44.2,57.69,44.2,26.95,0,54.84-14.51,57.47-42.7Z" transform="translate(-246.21 -309.33)"/><path class="cls-12" d="M810.59,896.44c12.9,70.92,33.89,63,78.56,39.26" transform="translate(-246.21 -309.33)"/><path class="cls-12" d="M813.39,896.88c-12.61,70.92-33.09,63-76.77,39.26" transform="translate(-246.21 -309.33)"/><ellipse class="cls-13" cx="565.79" cy="661.39" rx="32.57" ry="17.07"/><ellipse class="cls-1" cx="561.06" cy="1226" rx="191.64" ry="220.34"/><ellipse class="cls-14" cx="570.75" cy="572.21" rx="73.52" ry="40.8"/><ellipse class="cls-15" cx="850.93" cy="866.84" rx="8.88" ry="15.35" transform="translate(-582.91 812.53) rotate(-57.65)"/><path class="cls-1" d="M1006,882.56a42.35,42.35,0,0,1,1.45-14c8-27.23,15.28-32.22,27.26-30.65,14.85,2,23.66,27,24.3,28.49,18.09,42-3.25,95.79-58.13,130.83-41.68,26.61-69.36,33-100,33C892.31,1030.23,1007.64,916,1006,882.56Z" transform="translate(-246.21 -309.33)"/></svg>