<svg id="Слой_1" data-name="Слой 1" xmlns="http://www.w3.org/2000/svg" viewBox="0 0 1529.44 1482.86"><defs><style>.cls-1,.cls-3,.cls-7{fill:#c39472;}.cls-1,.cls-5,.cls-6,.cls-7{stroke:#820f11;}.cls-1,.cls-5,.cls-6,.cls-7,.cls-8{stroke-miterlimit:10;}.cls-1,.cls-6{stroke-width:10px;}.cls-2{fill:#f6ead5;}.cls-4{fill:#820f11;}.cls-5{fill:#e6e6e6;}.cls-5,.cls-7{stroke-width:8px;}.cls-6{fill:#f7a07d;}.cls-8{fill:none;stroke:#312a3d;stroke-width:5px;}.cls-9{fill:#231300;}.cls-10{fill:#040405;}.cls-11{fill:#fff;}</style></defs><path class="cls-1" d="M1462.26,1335.47c0,220.64-204.83,399.5-457.5,399.5s-457.5-178.86-457.5-399.5S752.09,936,1004.76,936c157.56,0,270.4,75.75,287.09,88.43C1310.19,1038.34,1462.26,1159.15,1462.26,1335.47Z" transform="translate(-235.28 -257.53)"/><ellipse class="cls-2" cx="746.98" cy="1141.95" rx="301" ry="310.5"/><path class="cls-3" d="M704.3,1011.35c-14.23-9.49-26.2-.74-44-2-13.88-1-10-47.47-77,5-26,20.39-57.11,61.61-75,88-16.79,24.78-26.37,41.93-31,70-17.23,104.47,43,165,90,182" transform="translate(-235.28 -257.53)"/><path class="cls-4" d="M706.57,1007.47a31,31,0,0,0-17.05-5.09c-5.72,0-11.35,1.25-17,2a73.92,73.92,0,0,1-8.38.6c-1.31,0-2.72-.25-4-.14,1.28-.1,1,.18.18,0-.14,0-.28-.1-.41-.13-.75-.19.44.06.57.25-.12-.17-.68-.34-.87-.46-.61-.38-.78-1,.08.12a6.73,6.73,0,0,0-.75-.65,18.13,18.13,0,0,1-1.41-1.5c-.23-.27-.45-.55-.67-.82-.56-.67.65.88.28.37-.13-.19-.28-.37-.41-.56-1-1.31-1.89-2.65-2.86-4a35.47,35.47,0,0,0-8.85-8.94c-11-7.18-24.94-2.3-35.53,3.06-10.82,5.47-20.77,12.73-30.23,20.27a214.65,214.65,0,0,0-24,22.92c-16.28,17.71-31,36.91-44.83,56.59-13.35,19-26.49,38.65-33.22,61.11-3.68,12.3-5.59,25.15-6.67,37.92a198.85,198.85,0,0,0,.12,35.86,170.55,170.55,0,0,0,16.9,60A154.08,154.08,0,0,0,519,1328.85a139.44,139.44,0,0,0,37.48,25.86c3.16,1.45,6.38,2.79,9.66,4,2.28.83,4.92-.93,5.53-3.14a4.59,4.59,0,0,0-3.14-5.54c-1.5-.54-3-1.13-4.47-1.73-1-.43.75.33-.29-.12l-1.1-.48c-.78-.35-1.56-.7-2.34-1.07q-4.62-2.16-9-4.7-4.65-2.67-9.08-5.71c-1.55-1.06-3.08-2.16-4.58-3.28l-1.11-.83-.47-.36c-.78-.62-1.56-1.24-2.33-1.87a146.38,146.38,0,0,1-17.16-16.52c-1.4-1.58-2.77-3.2-4.1-4.84-.65-.8-1.29-1.61-1.93-2.43-.42-.55.4.53,0,0l-.36-.47L509,1304c-2.58-3.5-5-7.12-7.28-10.82q-3.53-5.78-6.53-11.83c-1.05-2.11-2-4.24-3-6.39-.24-.53-.46-1.06-.69-1.59s.23.56-.06-.12l-.33-.81c-.47-1.15-.93-2.3-1.38-3.46a164.21,164.21,0,0,1-8.07-28.78,151,151,0,0,1-2.1-15.46q-.75-8.46-.73-17a209,209,0,0,1,3.25-36.57,135.91,135.91,0,0,1,9.77-32.15c4.93-10.74,11.24-20.79,17.79-30.61a604.39,604.39,0,0,1,40.6-54.31A325.64,325.64,0,0,1,574,1028.43a193,193,0,0,1,26.91-21.36,129.33,129.33,0,0,1,13.45-7.9c.88-.44,1.77-.87,2.67-1.28l1.37-.61c.13-.06.86-.36.3-.13l.45-.18a53.54,53.54,0,0,1,5.08-1.77,38.76,38.76,0,0,1,4.51-1c.21,0,1.22-.18.41-.07s.35,0,.51-.05c.66-.06,1.33-.1,2-.12s1.17,0,1.76,0c.28,0,.55,0,.83.06,1,.07.28,0-.08,0,1,.23,2,.39,3.06.71.31.1,1.61.66.81.28s.58.28.88.43a27.17,27.17,0,0,1,2.35,1.47c.89.61-.89-.78.19.16.37.32.73.64,1.09,1,.62.59,1.21,1.21,1.77,1.85.28.32.56.64.82,1s1.14,1.51.23.26c.5.68,1,1.35,1.5,2,1.12,1.54,2.21,3.09,3.38,4.58,2,2.56,4.5,5,7.75,5.8,4.52,1.16,9.84.46,14.4-.12,3-.38,6-.87,9-1.32a53.19,53.19,0,0,1,6.89-.68,30.76,30.76,0,0,1,3.72.1q.46,0,.93.09c-.22,0-.7-.14.19,0,.63.12,1.25.24,1.86.4a21.26,21.26,0,0,1,7,3.21,4.5,4.5,0,1,0,4.54-7.77Z" transform="translate(-235.28 -257.53)"/><path class="cls-3" d="M1248.34,1012.35c14.23-9.49,26.21-.74,44-2,13.88-1,10-47.47,77,5,26.05,20.39,57.12,61.61,75,88,16.8,24.78,26.37,41.93,31,70,17.23,104.47-43,165-90,182" transform="translate(-235.28 -257.53)"/><path class="cls-4" d="M1250.61,1016.24a21.44,21.44,0,0,1,7.21-3.27c.62-.15,1.24-.27,1.86-.38.78-.14-.58,0,.2,0,.3,0,.61-.07.92-.09a32.72,32.72,0,0,1,4-.07,55.46,55.46,0,0,1,6.91.74c3,.47,6,1,9.08,1.32,6.46.78,13.69,1.72,18.93-2.8,2.47-2.13,4.26-5,6.16-7.66l.72-1c.19-.27,1-1.39.49-.66s.29-.36.48-.59.58-.69.88-1c.56-.64,1.16-1.26,1.78-1.84.32-.3.65-.59,1-.87.11-.1.43-.28.5-.41-.23.45-.91.66-.18.16a21.22,21.22,0,0,1,2.37-1.46l.62-.3c.7-.34.5.12-.27.1a6.15,6.15,0,0,0,1.36-.48c.47-.15,1-.28,1.44-.39l.76-.16c.22,0,1.31-.2.39-.07s.12,0,.31,0l.84-.06c.63,0,1.26,0,1.88,0s1.26.06,1.88.12c.22,0,1.2.14.39,0s.45.07.67.11a39.61,39.61,0,0,1,4.55,1.09c1.73.52,3.42,1.15,5.11,1.81.18.07.79.33-.08,0l.67.29,1.38.62c1,.45,1.92.91,2.87,1.39,20,10.14,37.28,25.36,52.39,41.78,15.75,17.13,29.79,35.4,43.15,54.38,13,18.43,25.95,37.51,32.43,58.86a173.18,173.18,0,0,1,6.5,36,198.83,198.83,0,0,1,0,34.85,166.68,166.68,0,0,1-5.65,30.3c-1.34,4.68-2.88,9.31-4.64,13.85-1,2.56-1.52,3.83-2.47,6s-2,4.27-3,6.37a153.05,153.05,0,0,1-13.86,22.58l-1,1.26-.47.62c.1-.13.51-.65,0,0-.68.87-1.36,1.73-2.06,2.58q-2,2.46-4.09,4.82-4,4.55-8.42,8.74-4.23,4-8.77,7.72l-2.2,1.75c-.16.13-.67.52.09-.06l-.56.42-1.24.94q-2.26,1.68-4.59,3.26a127.72,127.72,0,0,1-18.11,10.35c-.73.34-1.47.68-2.2,1l-1.1.48c-.7.3.85-.35-.29.12-1.44.58-2.88,1.14-4.33,1.67a4.62,4.62,0,0,0-3.15,5.54c.61,2.2,3.24,4,5.54,3.14a133.77,133.77,0,0,0,38.37-22.13,152.7,152.7,0,0,0,33.62-38.48,162.82,162.82,0,0,0,21.17-55.48c4.45-24,3.91-48.61-.22-72.62a142.85,142.85,0,0,0-10.46-34.53c-4.9-10.91-11.26-21.09-17.87-31a626.21,626.21,0,0,0-42-56.21,332.39,332.39,0,0,0-24.19-26.15,206.19,206.19,0,0,0-28.74-22.76c-7.79-5.16-16.16-10-25.17-12.69-5.56-1.66-11.69-2.4-17.36-.81-8.4,2.36-13,9.15-17.87,15.74l-.33.45c-.3.42.84-1,.29-.37-.26.3-.5.62-.76.92a16.44,16.44,0,0,1-1.41,1.48c-.21.19-1.1.91-.3.29s-.13.07-.38.22a3.82,3.82,0,0,0-.78.4c.75-.76,1.17-.39.58-.25a5.16,5.16,0,0,0-.52.16c-.14,0-.29,0-.42.09-.71.24,1.06-.08.64-.09-1.5,0-3,.15-4.54.13a74.36,74.36,0,0,1-8.31-.66c-5.61-.79-11.25-2-16.94-1.93a31.1,31.1,0,0,0-16.59,5.09,4.5,4.5,0,0,0,4.54,7.77Z" transform="translate(-235.28 -257.53)"/><path class="cls-1" d="M743.16,1099.08C623,1045.6,503.78,935.8,506.26,795c3.78-214,176.62-380.54,409-413,270.21-37.74,426.79,84.14,498,288,51,146-82.06,336-204.18,402" transform="translate(-235.28 -257.53)"/><path class="cls-4" d="M967.85,1105.78a82.58,82.58,0,0,1,2.74-9.91c.24-.67.48-1.34.74-2,.15-.4.31-.8.47-1.19.52-1.3-.37.78.21-.49.71-1.56,1.44-3.1,2.26-4.6s1.56-2.73,2.42-4q.66-1,1.35-2l.6-.81c.31-.41.32-.43,0,0l.51-.63a59.22,59.22,0,0,1,6.38-6.68c1.1-1,2.23-1.93,3.39-2.85-.76.6.29-.22.37-.28l1-.72,2-1.39a87,87,0,0,1,8.37-5c1.32-.69,2.66-1.36,4-2l1.85-.85,1.11-.49.75-.32c-.45.19-.44.19,0,0a85.87,85.87,0,0,1,8.81-3.08,70.27,70.27,0,0,1,8.61-1.88c.18,0,1.43-.21.28,0l1.1-.14q.91-.11,1.83-.18,2.17-.2,4.35-.24a67.72,67.72,0,0,1,8.54.39l.7.09c1.19.13-1-.16.2,0,.69.11,1.39.21,2.08.34,1.39.24,2.76.53,4.13.86a72.18,72.18,0,0,1,7.76,2.34c1.23.44,2.44.92,3.64,1.42-1-.44.08,0,.24.11l1,.44c.66.3,1.31.6,1.95.92a101.71,101.71,0,0,1,14.83,8.91c.62.44,1.23.89,1.84,1.34l.91.69.61.46c-.41-.31-.41-.31,0,0q2,1.56,3.9,3.16,3.91,3.3,7.61,6.84c5.1,4.87,9.91,10,14.51,15.39a4.53,4.53,0,0,0,6.37,0,4.61,4.61,0,0,0,0-6.36c-16-18.61-35.56-36.56-59.69-43.53a71.78,71.78,0,0,0-35.89-1,91.89,91.89,0,0,0-18.85,6.8,89.93,89.93,0,0,0-17.16,10.6,62.37,62.37,0,0,0-15,17,73.5,73.5,0,0,0-8.38,22.2c-.49,2.29.68,5,3.14,5.53,2.27.52,5-.68,5.54-3.14Z" transform="translate(-235.28 -257.53)"/><path class="cls-5" d="M1717.8,1535.14c3.1-6.69,70.76-154.74,29.77-168.14-36.63-12-140.64,89.91-153.29,102.42" transform="translate(-235.28 -257.53)"/><path class="cls-4" d="M1754.8,1376.75c-8.59,12-17.19,24-25.12,36.37a425.74,425.74,0,0,0-21.4,38.16c-3.74,7.47-7.36,15-11,22.51-1,2.12-.66,5,1.61,6.16,2,1.06,5.07.65,6.16-1.62,6.39-13.3,12.79-26.62,19.89-39.57a417.57,417.57,0,0,1,23.15-37.08c4.74-6.85,9.59-13.62,14.45-20.38,1.38-1.92.4-5.1-1.61-6.16a4.63,4.63,0,0,0-6.16,1.61Z" transform="translate(-235.28 -257.53)"/><path class="cls-4" d="M1725.85,1366.7a674.68,674.68,0,0,1-43.17,70.07q-6.75,9.59-13.83,18.93c-1.42,1.89-.36,5.11,1.62,6.16,2.37,1.25,4.63.4,6.15-1.62a676.26,676.26,0,0,0,45.63-68.58q5.87-10.11,11.37-20.42a4.5,4.5,0,0,0-7.77-4.54Z" transform="translate(-235.28 -257.53)"/><path class="cls-6" d="M1380.26,1738" transform="translate(-235.28 -257.53)"/><path class="cls-7" d="M1356.73,1468.3c46.13-56.23,121.39-66.15,166.63-32.85,34.05,25.07,47.55,72.21,41.44,106.81-14.43,81.65-143,144.35-321.54,154.71" transform="translate(-235.28 -257.53)"/><path class="cls-3" d="M997.9,1735.89,1437,1734c21-.09,80.76,1.5,138.77-15.51,84.89-24.88,169.51-156.49,155-237-1-5.71-25.77-33.45-57-49-37.39-18.61-91.27,32.88-108,51-24,26-39.61,59.4-51,78" transform="translate(-235.28 -257.53)"/><path class="cls-4" d="M997.9,1740.39l155.88-.68,155.15-.67c46.61-.2,93.23-.49,139.84-.55,41.23-.06,82.84-3.24,122.75-14.14,32.64-8.92,60.51-28.7,84-52.61a309.82,309.82,0,0,0,61.06-89c13-28.64,22.76-61,19.79-92.77-.5-5.33-.87-10.4-3.93-14.91a101.47,101.47,0,0,0-13-14.89,187.52,187.52,0,0,0-22-18.46c-8-5.75-16.64-11.48-25.88-15-14.4-5.46-30.3-1.86-43.94,4-15,6.49-28.57,16.23-41.06,26.71a240.15,240.15,0,0,0-29.8,29.43c-13.32,15.92-24,33.71-34.19,51.76-3.87,6.89-7.64,13.84-11.75,20.59-3,5,4.76,9.49,7.77,4.54,9.06-14.88,16.92-30.45,26.28-45.17a225.68,225.68,0,0,1,31.86-40,232.83,232.83,0,0,1,34-28.17c12.3-8.22,26.53-16.09,41.57-17.26,17.19-1.34,32.25,9.66,45.23,19.71A173,173,0,0,1,1716.6,1470c3.51,3.68,7.26,7.57,9.64,12.11.42.8,0-.07,0,0a7.54,7.54,0,0,1,.22.94c.24,1.64.53,3.27.72,4.92q.57,5.15.66,10.32a135.35,135.35,0,0,1-1.26,21,206.07,206.07,0,0,1-12.32,45.88c-12.51,32.42-31.49,62.74-54.45,88.78-21,23.78-46.53,45.92-76.55,57.25-20,7.57-42,11.4-63.12,14.14a524.65,524.65,0,0,1-58.09,4c-41.76.73-83.57.37-125.35.55l-150.75.65-150.76.65-37.32.17c-5.79,0-5.8,9,0,9Z" transform="translate(-235.28 -257.53)"/><ellipse class="cls-2" cx="1621.76" cy="1564.47" rx="57.5" ry="41.5" transform="translate(-734.09 2069.08) rotate(-63.74)"/><ellipse class="cls-2" cx="1666.12" cy="1487.48" rx="21.12" ry="15.24" transform="translate(-640.32 2065.93) rotate(-63.74)"/><ellipse class="cls-2" cx="1622.12" cy="1475.48" rx="21.12" ry="15.24" transform="translate(-290.5 2630.34) rotate(-82.39)"/><path class="cls-2" d="M1329.25,711.58c17.5,129.33-96.94,211.28-116,226.52-75.79,60.7-164.6,72.62-211.73,78.29-43.86,5.27-153.78.86-236.23-33.52-9.78-4.08-149.79-47.91-166.22-184-3.44-28.47-1.79-50.77-.67-58.41C610.79,656.24,682,572.91,758.57,563.14c85.92-10.95,110.88,75,192.67,66.07,21-2.27,93.48-106.22,169-110.91C1190.53,513.93,1308.34,557,1329.25,711.58Z" transform="translate(-235.28 -257.53)"/><ellipse class="cls-2" cx="1700.12" cy="1516.48" rx="21.12" ry="15.24" transform="translate(-813.18 1231.45) rotate(-41.04)"/><path class="cls-5" d="M979.4,1161.23c-2.38-7-54-161.35-11.83-170.35,37.69-8,130.34,104.28,141.6,118.05" transform="translate(-235.28 -257.53)"/><path class="cls-4" d="M951.36,1003.94c15.33,26.48,30.68,53,44.6,80.23q5.94,11.61,11.48,23.4c1,2.14,4.25,2.85,6.16,1.62a4.63,4.63,0,0,0,1.62-6.16c-13-27.7-27.83-54.49-43-81q-6.49-11.32-13-22.61a4.5,4.5,0,1,0-7.77,4.54Z" transform="translate(-235.28 -257.53)"/><path class="cls-4" d="M980.75,995.93a683.83,683.83,0,0,0,35.93,75.22q5.72,10.29,11.8,20.38a4.5,4.5,0,0,0,7.77-4.54,677.78,677.78,0,0,1-38.08-72.93c-3.24-7.25-5.85-13.4-8.74-20.52-.88-2.18-3-4-5.54-3.15-2.1.68-4.09,3.2-3.14,5.54Z" transform="translate(-235.28 -257.53)"/><path class="cls-3" d="M1409.34,1343.35c-11.41,7-26.81,13.42-40,15.5-96.12,15.15-197.35,22.51-288.23-12.25-39.11-15-76.69-38.93-97.43-75.32-21.56-37.83-22.24-83.61-22.36-127.15-.06-22.14.38-45.92,13.29-63.91,8.17-11.39,20.57-19.12,33.54-24.44,54-22.14,96.24,25.42,129.22,73.57,9.17,13.38,33.15,44.56,47,53,8.27,5,33.35,10.31,43,11,31.27,2.23,76-1.16,101-20" transform="translate(-235.28 -257.53)"/><path class="cls-4" d="M1407.07,1339.47a120,120,0,0,1-25.61,11.77c-9.31,3-19,4.19-28.65,5.61-19.86,2.92-39.78,5.4-59.78,7.18-40.25,3.59-80.93,4.39-121.13-.27-38.17-4.42-76.6-13.9-111.2-30.88-31-15.23-59.6-37.38-75.72-68.58-17.54-34-18.89-73.52-19.15-110.92-.12-18-1-36.83,4.47-54.27a54.84,54.84,0,0,1,13-22.32c6.2-6.3,13.77-11,21.73-14.78,14.26-6.73,29.94-9.32,45.36-5.4,15,3.82,28.25,12.68,39.65,22.94,13,11.67,24.14,25.28,34.4,39.35,8.61,11.8,16.73,23.86,25.89,35.26,8.75,10.88,18,22.32,29.42,30.55,4.87,3.52,10.77,5.39,16.5,7a186.9,186.9,0,0,0,21.55,4.85c14.38,2.4,29.29,2.27,43.79,1.25,16.72-1.18,33.73-3.87,49.38-10.07a85,85,0,0,0,19.6-10.55c2-1.45,2.94-3.9,1.62-6.16-1.12-1.92-4.2-3.07-6.16-1.61-12.8,9.53-28.56,14.18-44.08,16.94a221.91,221.91,0,0,1-49,2.77,142.9,142.9,0,0,1-39.81-7.85,37.45,37.45,0,0,1-12.89-7.75,169.13,169.13,0,0,1-15.13-15.74c-21-24.24-37-52.41-59.29-75.57-11.54-12-24.79-23.08-40.14-29.8-15-6.58-31.25-8.57-47.27-4.75-17.52,4.17-35.35,14.09-46.42,28.49-11.61,15.14-14.43,34.6-15,53.16-.62,19.06-.31,38.34.82,57.38,1.16,19.5,3.67,39.14,9.53,57.84A143.45,143.45,0,0,0,994,1293.88c11.3,13.52,25.11,24.87,39.94,34.34,32.38,20.66,70.11,32.93,107.66,40,40.44,7.59,81.8,9,122.82,6.86,20.6-1.07,41.15-3,61.62-5.58q15.4-1.9,30.77-4.2c9.78-1.45,19.48-2.78,28.88-6a131.59,131.59,0,0,0,25.91-12.07c4.94-3,.43-10.8-4.54-7.77Z" transform="translate(-235.28 -257.53)"/><path class="cls-5" d="M970.82,1178.23c2.37-7,54-161.35,11.83-170.35-37.7-8-130.35,104.28-141.6,118.05" transform="translate(-235.28 -257.53)"/><path class="cls-5" d="M282.2,1538.14c-3.1-6.69-70.76-154.74-29.77-168.14,36.63-12,140.64,89.91,153.29,102.42" transform="translate(-235.28 -257.53)"/><path class="cls-4" d="M237.43,1384.3c8.59,12,17.18,23.94,25.12,36.36a424.53,424.53,0,0,1,21.4,38.17c3.74,7.46,7.36,15,11,22.5a4.53,4.53,0,0,0,6.16,1.62,4.62,4.62,0,0,0,1.61-6.16c-6.39-13.3-12.79-26.62-19.88-39.57a420,420,0,0,0-23.16-37.08c-4.74-6.85-9.59-13.62-14.45-20.39-1.37-1.9-4-3-6.16-1.61-1.89,1.22-3.08,4.11-1.61,6.16Z" transform="translate(-235.28 -257.53)"/><path class="cls-4" d="M266.38,1374.24a674.68,674.68,0,0,0,43.17,70.07q6.75,9.59,13.83,18.93c1.41,1.87,3.94,3,6.15,1.62,1.85-1.2,3.14-4.15,1.62-6.16a677,677,0,0,1-45.63-68.59q-5.86-10.09-11.37-20.41a4.53,4.53,0,0,0-6.16-1.61,4.59,4.59,0,0,0-1.61,6.15Z" transform="translate(-235.28 -257.53)"/><path class="cls-4" d="M991.09,1016.4c-15.34,26.48-30.68,53-44.61,80.23q-5.94,11.61-11.48,23.4c-1,2.13-.67,5,1.61,6.16,2,1,5.09.66,6.16-1.62,13-27.7,27.82-54.49,43-81q6.5-11.33,13.05-22.61a4.5,4.5,0,1,0-7.77-4.54Z" transform="translate(-235.28 -257.53)"/><path class="cls-4" d="M960.79,1010.54q-1,2.38-2,4.77c-.65,1.57-1.28,3.07-1.72,4.12q-2,4.75-4.11,9.48-4.14,9.35-8.55,18.56-8.9,18.55-18.91,36.55-5.62,10.08-11.57,20a4.5,4.5,0,0,0,7.77,4.54A677.31,677.31,0,0,0,960,1035.17q4.92-11,9.46-22.24c.88-2.19-1-5-3.15-5.54-2.61-.59-4.58.8-5.53,3.15Z" transform="translate(-235.28 -257.53)"/><path class="cls-3" d="M543.3,1342.35c11.42,7,26.81,13.42,40,15.5,96.11,15.15,197.35,22.51,288.22-12.25,39.12-15,76.69-38.93,97.43-75.32,21.56-37.83,22.24-83.61,22.36-127.15.06-22.14,2.32-24.67-10.59-42.66-8.17-11.39-51.43-26.46-65-30-23-6-67.47,9.73-100.46,57.88-9.16,13.38-33.15,44.56-47,53-8.26,5-33.35,10.31-43,11-31.27,2.23-75.95-1.16-101-20" transform="translate(-235.28 -257.53)"/><path class="cls-4" d="M541,1346.24a130.29,130.29,0,0,0,28.13,12.8c9.7,3.09,19.85,4.26,29.9,5.72,21.47,3.14,43,5.81,64.64,7.63,42.82,3.61,86,3.86,128.65-2.12,40.16-5.64,80.54-16.9,116-36.88,16.19-9.11,31.44-20.27,44.24-33.77a141.84,141.84,0,0,0,30.27-48.86c13.94-37.91,12.49-79,13.11-118.73.1-6,0-12.19-2.12-17.89a52.21,52.21,0,0,0-4.68-9.22,56.46,56.46,0,0,0-6.59-9.2c-3.92-4.1-9.16-7.06-14.12-9.68a212.82,212.82,0,0,0-20.72-9.36q-9.66-3.87-19.55-7.13a98.63,98.63,0,0,0-14.2-4c-11.51-2-23.45.24-34.31,4.19-14.87,5.39-28.34,14-40.22,24.38A160.2,160.2,0,0,0,820.43,1114c-5.11,6.34-9.6,13.11-14.41,19.66-9.1,12.38-18.8,24.58-29.79,35.34-4.35,4.26-7.81,7.63-13.31,10.06-.3.13-.61.25-1.5.59s-1.6.59-2.4.86q-2.65.9-5.33,1.66c-3.87,1.11-7.78,2.07-11.72,2.93-3.59.78-7.2,1.48-10.83,2.05-.73.12-1.45.23-2.18.33.62-.09-1.16.14-1.42.17-1.52.17-3,.27-4.56.37a247.9,247.9,0,0,1-25.28.23c-17.26-.73-34.72-3.16-51-9.11a79.3,79.3,0,0,1-20.13-10.66c-2-1.46-5-.32-6.15,1.61-1.35,2.29-.34,4.7,1.61,6.16,13.35,9.94,30,15,46.24,17.85a231.68,231.68,0,0,0,51.74,3.08,150.34,150.34,0,0,0,42.38-8.33,46.81,46.81,0,0,0,15.45-9.08,158.37,158.37,0,0,0,15.45-15.85,405.24,405.24,0,0,0,26.8-34.59c10.18-14.6,22.76-27.85,37.45-38,11.33-7.8,23.44-13.78,36.92-16.47,1.28-.26,2.58-.48,3.88-.67-.86.12.06,0,.27,0l1-.12c.68-.07,1.36-.12,2-.17a50.09,50.09,0,0,1,7.65,0c.54,0,1.07.1,1.6.16.73.08-1.1-.18,0,0l.68.1c1.07.19,2.14.43,3.19.7,2.28.6,4.53,1.28,6.78,2a273,273,0,0,1,37.89,14.7c3,1.44,5.9,3,8.74,4.64,1.16.69,2.31,1.4,3.42,2.15.57.38,1.14.78,1.69,1.18.22.15.43.31.64.47-.77-.58.1.1.26.24.85.73,1.64,1.49,2.43,2.29s-.17-.29.2.21c.85,1.17,1.67,2.36,2.48,3.55a64.79,64.79,0,0,1,5.36,9.08c-.05-.1.55,1.26.31.7s.28.75.25.67q.33.87.6,1.77a29.11,29.11,0,0,1,.9,4.12c-.13-.93,0,.54.07.85.06.71.1,1.43.13,2.15.07,1.59.07,3.19,0,4.79q-.12,13.69-.27,27.38c-.22,20-.94,40-4.41,59.71-3.36,19.12-9.32,37.83-19.57,54.42-9.36,15.14-22,28.21-36.19,38.9-30.87,23.24-68.29,36.91-105.73,45.2-40.92,9.06-83.09,11.13-124.89,9.41-21.15-.87-42.25-2.72-63.27-5.21-10.44-1.23-20.85-2.63-31.25-4.14-10-1.47-20.19-2.65-29.9-5.73a120.12,120.12,0,0,1-26-11.89c-5-3-9.49,4.76-4.54,7.77Z" transform="translate(-235.28 -257.53)"/><path class="cls-7" d="M644.57,1467.3c-46.13-56.23-121.39-66.15-166.64-32.85-34,25.07-47.54,72.21-41.43,106.81,14.43,81.65,143,144.35,321.54,154.71" transform="translate(-235.28 -257.53)"/><path class="cls-3" d="M1003.4,1734.89,564.31,1733c-21-.09-80.76,1.5-138.77-15.51-84.89-24.88-169.51-156.49-155-237,1-5.71,25.77-33.45,57-49,37.39-18.61,91.27,32.88,108,51,24,26,39.61,59.4,51,78" transform="translate(-235.28 -257.53)"/><path class="cls-4" d="M1003.4,1730.39l-150.76-.66-151.48-.65c-47.39-.21-94.77-.68-142.16-.6-37.77.06-75.58-1.92-112.54-10.25-17.29-3.9-33.64-9-49-17.93A208.14,208.14,0,0,1,358.84,1671a300.42,300.42,0,0,1-61.66-83.91c-13.82-27.69-24.46-58.9-23.75-90.2.08-3.44.3-6.88.7-10.3.18-1.52.48-3,.68-4.53a6.11,6.11,0,0,1,.22-.94c0,.15-.33.59.1-.18,2.59-4.57,6.25-8.5,9.86-12.27,12.89-13.41,28.33-25.48,45.18-33.48,12.78-6.07,27.81-2.65,40.15,2.84,14.37,6.4,27.39,15.74,39.33,25.9a239.3,239.3,0,0,1,28.47,28.3c12.92,15.44,23.2,32.87,33,50.38,3.78,6.75,7.48,13.54,11.5,20.14,3,4.94,10.8.43,7.77-4.54-9.37-15.39-17.48-31.5-27.24-46.67a234.78,234.78,0,0,0-33.06-41.07,243.81,243.81,0,0,0-35.41-29.1c-13.23-8.79-28.1-16.34-44.09-18.08-18.15-2-33.63,7.75-47.76,18.06-12.5,9.12-25.48,19.88-34.18,32.88-3,4.53-3.35,9.77-3.83,15.09a125.11,125.11,0,0,0,0,21.64,194.74,194.74,0,0,0,10.3,47c11.68,33.94,30.25,65.51,53,93.21,21.33,26,47.55,50,78.47,64,18.75,8.48,39.36,12.74,59.58,16a495.91,495.91,0,0,0,63.33,6c15.48.5,31,.34,46.46.4l78.31.34,155.14.67,155.88.68,38.06.17c5.79,0,5.8-9,0-9Z" transform="translate(-235.28 -257.53)"/><ellipse class="cls-2" cx="379.54" cy="1563.47" rx="41.5" ry="57.5" transform="translate(-887.9 71.79) rotate(-26.26)"/><ellipse class="cls-2" cx="335.18" cy="1486.48" rx="15.24" ry="21.12" transform="translate(-858.41 44.21) rotate(-26.26)"/><ellipse class="cls-2" cx="379.18" cy="1474.48" rx="15.24" ry="21.12" transform="translate(-427.25 -194.31) rotate(-7.61)"/><ellipse class="cls-2" cx="301.18" cy="1515.48" rx="15.24" ry="21.12" transform="translate(-1274.9 490.06) rotate(-48.96)"/><path class="cls-3" d="M1040.19,405.37c.31-30.85-14.22-60.62-35.33-83.12s-48.35-38.41-76.6-50.81c-19.56-8.59-44-15.1-60.85-1.91-15,11.81-16.3,35.45-7.22,52.28s26,28,43.08,36.47a126.84,126.84,0,0,0-54.36-20.66c-17.92-2.36-38.63.36-49.51,14.79-11.25,14.93-7,37.7,6,51.16s32.37,18.91,51,19.75" transform="translate(-235.28 -257.53)"/><path class="cls-4" d="M1044.69,405.37c.21-25.83-9.5-51-24.62-71.74-15.57-21.32-36.54-37.95-59.33-51a298.27,298.27,0,0,0-35.39-17.28c-11.2-4.56-23.37-8.12-35.57-7.82s-24,5.2-31.64,15.15c-6.51,8.54-8.91,19.91-8,30.48a55,55,0,0,0,4.24,16.91,61.48,61.48,0,0,0,9.68,15.25c7.94,9.43,18.3,16.7,29,22.67q3.92,2.17,7.92,4.16c2.11,1,5,.64,6.16-1.61a4.62,4.62,0,0,0-1.61-6.16,130.93,130.93,0,0,0-47.67-19.84c-14.6-2.87-30.58-3.66-44.6,2.14a41.55,41.55,0,0,0-18,13.73A37.74,37.74,0,0,0,788.46,371c-.69,14.91,6.33,29.8,17.64,39.37,12.51,10.6,28.52,15.48,44.61,17.05q2.87.27,5.74.4a4.54,4.54,0,0,0,4.5-4.5,4.61,4.61,0,0,0-4.5-4.5c-1.85-.08-3.7-.21-5.54-.38l-2.57-.28c-.3,0-1.47-.19-.59-.07l-1.57-.23a90.12,90.12,0,0,1-10.91-2.34q-2.67-.75-5.28-1.69c-.8-.28-1.6-.59-2.4-.9-.25-.1-1.36-.56-.56-.22l-1.44-.63a62.31,62.31,0,0,1-9.37-5.24c-.76-.51-1.48-1-2.22-1.59-.42-.29.08.07.13.11l-.46-.36c-.4-.32-.81-.65-1.2-1a52.49,52.49,0,0,1-4-3.75c-.53-.56-1.05-1.13-1.55-1.72-.27-.31-.53-.63-.79-1-.09-.11-.56-.71-.2-.24s-.13-.18-.19-.26A44.28,44.28,0,0,1,803,392.9a45,45,0,0,1-2.29-4.48l-.21-.49c.06.14.34.86,0,.08l-.4-1q-.46-1.26-.87-2.55a46.93,46.93,0,0,1-1.22-4.84c-.15-.76-.27-1.51-.38-2.28.13.92,0,0,0-.38s-.08-.82-.11-1.23a42.31,42.31,0,0,1,0-4.91c0-.81.12-1.62.2-2.42s-.12.7,0-.18c.08-.46.15-.92.24-1.37a34.07,34.07,0,0,1,1.25-4.66q.2-.57.42-1.14l.19-.48c0,.14-.39.87,0,.12s.69-1.46,1.08-2.17.8-1.42,1.25-2.1c.19-.3.39-.59.59-.88s.94-1.24.35-.51a36.6,36.6,0,0,1,3.32-3.61c.54-.52,1.11-1,1.69-1.49.3-.24,1-.76.31-.25.37-.27.74-.55,1.12-.81a38.4,38.4,0,0,1,4.14-2.48c.67-.35,1.35-.68,2-1,.34-.15,1.22-.49.37-.16.44-.17.87-.35,1.31-.51a47.94,47.94,0,0,1,4.72-1.5c1.62-.42,3.26-.77,4.91-1.06L828,342l.71-.11-.29,0c.84-.1,1.68-.2,2.53-.27a75.79,75.79,0,0,1,10.22-.22q2.54.1,5.07.36l2.31.27c.78.1.19,0,0,0l.65.09,1.73.27a126.89,126.89,0,0,1,23.7,6.16c1.85.68,3.69,1.4,5.5,2.17l.74.32,1.4.62c.93.42,1.85.86,2.77,1.3q5.53,2.67,10.77,5.85c1.75,1.06,3.47,2.17,5.16,3.31l4.55-7.77a166.45,166.45,0,0,1-15.65-8.77c-2.46-1.58-4.85-3.26-7.19-5-.68-.52-.17-.13,0,0l-.93-.74c-.52-.41-1-.82-1.53-1.25q-1.83-1.5-3.55-3.12a73,73,0,0,1-6-6.22c-.42-.49-.84-1-1.24-1.5-.08-.09-.87-1.12-.26-.32l-.71-.94c-.84-1.16-1.66-2.35-2.42-3.56a54,54,0,0,1-3.77-7.09c.48,1.09-.27-.7-.37-1-.23-.59-.43-1.18-.63-1.78-.4-1.2-.75-2.41-1-3.64s-.56-2.46-.77-3.71c-.05-.34-.1-.68-.16-1s-.21-.82,0,.17a14.92,14.92,0,0,1-.23-2.22,47,47,0,0,1,0-7.69,11.8,11.8,0,0,1,.17-1.69c-.32,1.23.08-.48.14-.81a38.32,38.32,0,0,1,.87-3.93c.29-1.07.62-2.13,1-3.17.11-.31.24-.62.35-.93.4-1.06-.41.89.06-.14.27-.6.55-1.2.85-1.79.52-1,1.09-2,1.71-3q.5-.76,1-1.5c.13-.17.26-.35.4-.52-.73,1,.17-.2.32-.38a31.44,31.44,0,0,1,2.51-2.65c.41-.39.83-.76,1.26-1.12l.65-.53-.17.13.62-.45a33.72,33.72,0,0,1,3.48-2.17c.54-.29,1.09-.57,1.64-.83l1-.46c-1,.44.14,0,.28-.1a43.25,43.25,0,0,1,7.76-2c1.22-.21-1,.1.26,0l1.1-.12c.62-.06,1.24-.1,1.86-.14,1.44-.08,2.88-.09,4.32-.05s2.67.12,4,.25l1.92.21c1.29.15-.94-.16.34.05l1.54.25a98.9,98.9,0,0,1,16.83,4.54c1.31.47,2.6.95,3.89,1.46l2,.8.72.3.72.3c-.48-.2-.48-.2,0,0,2.82,1.23,5.63,2.48,8.42,3.78,5.69,2.63,11.32,5.42,16.84,8.4a229.63,229.63,0,0,1,31.94,20.45l.27.21.83.66,1.66,1.33q2,1.6,3.92,3.26,3.56,3,6.94,6.28a153.66,153.66,0,0,1,12.55,13.47l1.56,1.93.51.65c0,.06.88,1.14.31.39q1.38,1.82,2.71,3.66c1.8,2.52,3.53,5.1,5.16,7.74a128.69,128.69,0,0,1,8.56,16.22l.33.75c.55,1.24-.33-.82.19.44.26.63.52,1.27.77,1.9q.92,2.29,1.72,4.62c1,2.83,1.88,5.7,2.64,8.61s1.41,5.82,1.92,8.77c.13.74.25,1.48.37,2.22l.15,1c.2,1.34-.11-.92.06.42.18,1.49.34,3,.47,4.48.24,3,.35,6,.32,9a4.5,4.5,0,0,0,9,0Z" transform="translate(-235.28 -257.53)"/><path class="cls-8" d="M887.33,845.47a48.36,48.36,0,0,0,16.8,16c12.29,6.93,29.6,9.34,44.06,2.13,18.07-9,28.12-31.26,23-53.93" transform="translate(-235.28 -257.53)"/><path class="cls-8" d="M1062.26,821.93a47.47,47.47,0,0,1-11.58,20c-9.83,10-25.76,17.07-41.7,14.11-19.92-3.71-35.9-22.32-37.4-45.5" transform="translate(-235.28 -257.53)"/><path class="cls-4" d="M864.26,764c5.43-45-18-120-80-121-50.41-.81-128.35,26.71-181.92,74.36a198.78,198.78,0,0,0-5.06,23.84c-1.12,7.64-2.76,29.94.67,58.41,9.34,77.31,47.75,117,90.31,144.39,8.18-16.87,6-35,28-55,27.74-25.22,55.88-20.37,89-27C830.26,857,854.26,847,864.26,764Z" transform="translate(-235.28 -257.53)"/><path class="cls-4" d="M1112.26,598c-54.9,28.81-69.56,76.14-58,120,20.85,79.09,60,121.88,123,102,38-12,43.55-23.55,81-22,29.12,1.21,37.87,17.14,52,28,18.73-34.25,25.83-65.63,19.23-114.39-7.65-56.57-28.29-98.19-54.81-128C1209.1,570.47,1153.55,576.31,1112.26,598Z" transform="translate(-235.28 -257.53)"/><path class="cls-9" d="M925,784.73c-7,11.93,20.54,31.14,43.85,31.79,29.81.82,50.13-31.31,36.18-41.08-7.26-5.09-21.88-1.14-41,1.52S928.63,778.52,925,784.73Z" transform="translate(-235.28 -257.53)"/><path class="cls-4" d="M950.05,786.83c-.53-4.9,9-5,22.72-6.67,6.71-.81,14.15-1,13.7,2.57C985.65,789.28,950.84,794.16,950.05,786.83Z" transform="translate(-235.28 -257.53)"/><ellipse class="cls-10" cx="797.6" cy="759.23" rx="90.82" ry="48.2" transform="translate(-203.69 1292.79) rotate(-89.51)"/><ellipse class="cls-11" cx="823.61" cy="745.92" rx="13.79" ry="28.9" transform="translate(-281.07 -203.62) rotate(-3.65)"/><ellipse class="cls-11" cx="774.96" cy="801.61" rx="7.26" ry="13.44" transform="translate(-461.05 52.48) rotate(-19.81)"/><ellipse class="cls-10" cx="1138.41" cy="716.2" rx="48.2" ry="90.82" transform="translate(-390.9 92.04) rotate(-16.36)"/><ellipse class="cls-11" cx="1109.74" cy="710.51" rx="13.79" ry="28.9" transform="translate(-360.52 -6.54) rotate(-12.22)"/><ellipse class="cls-11" cx="1171.77" cy="750.78" rx="13.44" ry="7.26" transform="matrix(0.07, -1, 1, 0.07, 106.98, 1610.68)"/></svg>