<svg width="1857" height="2132" viewBox="0 0 1857 2132" fill="none" xmlns="http://www.w3.org/2000/svg">
<path fill-rule="evenodd" clip-rule="evenodd" d="M587.036 997.183C570.955 1160.43 742.485 1034.16 714.39 1324.05C712.541 1343.83 728.622 1417.97 719.38 1492.66C687.958 1746.32 721.783 1681.24 585.003 1911.79C524.191 2014.21 524.561 2012.36 686.664 2006.26C933.978 1996.83 805.885 2046.94 979.078 2085.21C1038.78 2098.33 1120.11 2051 970.761 1972.98C811.06 1889.42 991.093 1860.02 1091.83 1889.05C1183.69 1915.67 1182.59 1826.93 1056.71 1780.71C1009.39 1763.33 1027.51 1704.35 958.192 1663.86C911.058 1636.32 877.787 1350.12 886.474 1280.05C920.669 1003.65 1118.82 979.065 1122.33 901.045C1035.08 901.045 874.645 1141.39 885.735 1004.58C887.214 987.015 627.7 636.665 728.992 826.538C760.23 885.145 827.511 989.418 714.02 1051.54C637.312 1093.51 600.899 834.303 528.997 855.564C516.428 859.262 551.547 866.842 471.327 888.103C351.552 919.903 577.24 882.557 581.491 974.812C581.491 974.997 587.775 989.233 587.036 996.998V997.183Z" stroke="#AB754F" stroke-width="20"/>
<path fill-rule="evenodd" clip-rule="evenodd" d="M587.036 997.183C570.955 1160.43 742.485 1034.16 714.39 1324.05C712.541 1343.83 728.622 1417.97 719.38 1492.66C687.958 1746.32 721.783 1681.24 585.003 1911.79C524.191 2014.21 524.561 2012.36 686.664 2006.26C933.978 1996.83 805.885 2046.94 979.078 2085.21C1038.78 2098.33 1120.11 2051 970.761 1972.98C811.06 1889.42 991.093 1860.02 1091.83 1889.05C1183.69 1915.67 1182.59 1826.93 1056.71 1780.71C1009.39 1763.33 1027.51 1704.35 958.192 1663.86C911.058 1636.32 877.787 1350.12 886.474 1280.05C920.669 1003.65 1118.82 979.065 1122.33 901.045C1035.08 901.045 874.645 1141.39 885.735 1004.58C887.214 987.015 627.7 636.665 728.992 826.538C760.23 885.145 827.511 989.418 714.02 1051.54C637.312 1093.51 600.899 834.303 528.997 855.564C516.428 859.262 551.547 866.842 471.327 888.103C351.552 919.903 577.24 882.557 581.491 974.812C581.491 974.997 587.775 989.233 587.036 996.998V997.183Z" fill="#CE8F64"/>
<path fill-rule="evenodd" clip-rule="evenodd" d="M912.353 2041.02C875.015 2005.15 869.84 1973.35 811.616 1954.5C736.756 1930.28 697.016 1949.5 626.962 1980.75C595.355 1994.8 652.1 1996.83 682.044 1987.03C712.357 1977.05 788.696 2002.75 843.408 2001.09C864.664 2000.35 894.238 2051.93 912.353 2041.2V2041.02Z" fill="#B88059"/>
<path fill-rule="evenodd" clip-rule="evenodd" d="M990.17 2059.51C963.183 2078 841.745 1922.7 988.136 2010.7C1062.44 2055.44 1014.38 2054.52 1000.71 2044.35C976.492 2026.23 978.525 2048.41 990.17 2059.51Z" fill="#E49C6D"/>
<path fill-rule="evenodd" clip-rule="evenodd" d="M1128.61 1860.21C1091.46 1838.39 1103.85 1838.02 1052.46 1818.98C1014.01 1804.74 1040.26 1741.14 940.818 1691.41C854.313 1648.15 895.717 1604.15 877.418 1524.09C868.361 1484.71 883.888 1352.15 836.754 1363.62C823.815 1366.76 825.109 1406.32 838.417 1388.39C855.238 1365.84 849.508 1478.43 853.574 1495.81C863.001 1535 854.129 1603.04 867.622 1640.2C882.039 1679.58 869.1 1694.37 929.358 1723.76C983.515 1750.2 973.164 1733.01 1002.55 1786.62C1031.94 1840.42 1078.34 1818.79 1121.22 1858.54C1121.96 1859.1 1127.69 1859.84 1128.61 1860.39V1860.21Z" fill="#E49C6D"/>
<path fill-rule="evenodd" clip-rule="evenodd" d="M980.004 1818.61C962.259 1755.01 904.22 1745.03 849.138 1725.24C850.986 1723.58 890.727 1769.98 910.504 1774.05C926.955 1777.38 978.895 1814.54 980.004 1818.79V1818.61Z" fill="#E49C6D"/>
<path fill-rule="evenodd" clip-rule="evenodd" d="M872.058 1928.24C828.991 1873.15 824.739 1901.25 805.886 1808.26C781.117 1686.23 825.479 1571.61 814.943 1459.02C811.061 1418.16 759.491 1317.4 775.572 1372.31C777.051 1377.67 786.663 1469.92 784.814 1481.94C781.487 1505.24 787.956 1585.84 782.226 1632.25C777.236 1672.18 771.506 1761.3 780.193 1797.53C793.132 1850.78 788.881 1905.69 856.347 1923.07C864.665 1925.1 869.101 1924.36 872.058 1928.24Z" fill="#E49C6D"/>
<path fill-rule="evenodd" clip-rule="evenodd" d="M952.093 1857.06C912.722 1855.03 869.1 1933.79 854.683 1801.04C849.507 1754.08 914.016 1825.63 954.865 1841.53C978.34 1850.59 975.752 1858.36 952.093 1857.06Z" fill="#B88059"/>
<path fill-rule="evenodd" clip-rule="evenodd" d="M607.184 1953.76C694.243 1945.81 677.053 1915.86 743.041 1919.37C782.411 1921.4 751.728 1891.45 756.719 1850.41C759.122 1831 750.619 1730.98 736.941 1841.53C728.254 1911.6 730.102 1869.08 650.252 1922.88C642.304 1928.24 617.166 1952.83 607 1953.76H607.184Z" fill="#B88059"/>
<path fill-rule="evenodd" clip-rule="evenodd" d="M591.288 1932.31L593.322 1941.92C657.645 1899.59 651.915 1908.83 698.495 1851.15C749.695 1787.73 769.288 1634.65 749.88 1563.1C735.462 1510.23 743.041 1417.97 750.249 1359.18C745.998 1381 726.775 1382.1 736.017 1445.33C743.226 1494.51 728.808 1542.77 743.226 1607.29C754.501 1657.58 713.467 1733.38 694.058 1780.71C683.708 1805.85 617.535 1923.62 591.288 1932.31Z" fill="#E49C6D"/>
<path fill-rule="evenodd" clip-rule="evenodd" d="M897.381 1077.24L901.817 1067.62C933.979 1063.56 965.217 1018.63 1001.63 995.519C1019.74 984.057 1058.93 918.979 1096.08 921.937C1095.9 922.491 996.639 1001.81 984.809 1022.33C977.416 1035.08 914.016 1071.88 897.566 1077.24H897.381Z" fill="#E49C6D"/>
<path fill-rule="evenodd" clip-rule="evenodd" d="M925.106 1072.43L943.035 1053.2C950.059 1083.34 908.101 1158.03 890.911 1187.24C884.996 1197.22 889.063 1234.02 873.351 1273.58C857.271 1313.88 889.432 1325.72 843.223 1331.63C832.317 1332.93 833.981 1366.76 841.005 1311.3C842.114 1302.24 853.019 1270.81 855.977 1243.81C858.195 1222.92 904.404 1091.1 923.627 1076.31C924.921 1075.2 925.106 1073.91 925.106 1072.61V1072.43Z" fill="#E49C6D"/>
<path fill-rule="evenodd" clip-rule="evenodd" d="M877.973 1052.46C879.451 1042.29 830.839 918.608 807.734 908.07C786.108 898.087 746.737 825.059 754.501 874.237C755.795 882.926 809.767 933.399 820.858 974.627C829.73 1007.91 856.901 1029.35 877.973 1052.46Z" fill="#E49C6D"/>
<path fill-rule="evenodd" clip-rule="evenodd" d="M794.056 968.341L798.677 957.064C787.587 1021.77 869.47 1047.47 869.1 1097.94C868.915 1121.42 882.224 1118.65 863.001 1166.16C840.82 1220.89 828.99 1249.36 824 1309.26C820.303 1353.82 810.137 1317.21 816.236 1269.14C821.966 1223.48 848.214 1111.25 823.26 1078.16C812.725 1064.29 791.468 990.897 794.241 968.157L794.056 968.341Z" fill="#B88059"/>
<path fill-rule="evenodd" clip-rule="evenodd" d="M782.965 1005.13C818.455 1065.59 815.497 1143.98 803.298 1214.97C801.265 1227.17 785.553 1344.2 785.368 1344.57C745.628 1271.36 800.525 1130.11 778.529 1018.26C777.79 1014.56 781.487 1002.36 783.15 1004.95L782.965 1005.13Z" fill="#B88059"/>
<path fill-rule="evenodd" clip-rule="evenodd" d="M763.742 1044.33C741.192 1049.13 641.934 1097.57 637.128 1046.55C636.574 1040.08 613.099 1055.97 682.044 1093.88C717.533 1113.29 752.837 1082.04 769.842 1072.43C771.321 1060.41 776.311 1058.01 763.742 1044.33Z" fill="#B88059"/>
<path fill-rule="evenodd" clip-rule="evenodd" d="M755.425 1118.1C728.254 1146.57 742.301 1269.33 738.974 1309.63C736.941 1333.85 760.6 1190.38 758.382 1173.74C755.979 1156.92 758.197 1115.14 755.425 1118.1Z" fill="#E49C6D"/>
<path fill-rule="evenodd" clip-rule="evenodd" d="M372.993 945.416C488.332 995.519 482.233 836.151 667.072 827.277C743.78 823.58 706.073 788.267 834.536 860.556C899.968 897.347 963.183 838 1022.7 944.677C1044.33 983.317 1162.92 943.013 1209.5 945.786C1302.84 951.332 1143.14 852.606 1357 945.786C1504.69 1010.12 1572.78 1080.01 1697.55 1047.1C1925.64 986.829 1737.1 778.469 1737.1 756.283C1737.47 560.864 1595.7 602.647 1595.89 583.05C1597.55 488.391 1572.97 460.844 1484.24 412.775C1370.57 351.209 1450.23 496.341 1419.55 288.535C1403.28 177.976 1167.8 42.6435 1055.79 100.696C977.601 141.185 911.244 32.2902 770.027 115.117C718.457 145.437 633.061 106.797 567.813 202.75C563.008 209.591 377.429 183.523 359.685 310.536C351.921 366.37 439.905 309.241 255.805 404.085C81.8723 493.752 219.762 498.374 142.499 642.212C24.2028 862.22 225.171 557.33 89.4999 735C36.8209 803.961 66.9999 875.312 162.746 892.421C203.343 870.812 235.5 927.5 334.5 906.5C337.642 901.508 366.709 943.197 372.808 945.786L372.993 945.416Z" fill="#009933"/>
<path fill-rule="evenodd" clip-rule="evenodd" d="M1425.09 398.169C1417.15 402.791 1421.77 411.481 1425.09 398.169ZM817.899 710.248C842.668 696.012 984.624 681.406 984.624 717.828C984.624 775.511 1089.43 788.452 1083.88 637.96C1080.74 552.729 1214.01 466.02 1147.65 562.898C1146.36 564.747 1127.13 668.095 1124.36 678.079C1083.7 828.941 1320.29 753.695 1340.99 704.147C1370.01 634.817 1383.88 596.916 1391.27 583.235C1404.95 557.536 1395.15 617.623 1417.33 715.609C1450.05 859.632 1407.16 838.001 1525.83 861.85C1534.52 863.514 1536.18 917.314 1577.4 940.055C1657.25 984.056 1642.09 987.384 1753.74 949.114C1802.35 932.475 1714 847.245 1736.36 787.898C1741.54 774.402 1726.57 747.964 1730.63 690.651C1702.72 570.478 1595.7 599.874 1596.07 582.68C1597.73 488.021 1573.15 460.474 1484.43 412.405C1448.57 392.992 1431.93 394.102 1425.09 398.169C1428.05 385.967 1429.72 355.831 1419.73 288.165C1403.47 177.606 1167.98 42.2736 1055.97 100.326C977.785 140.815 911.428 31.9203 770.211 114.747C718.641 145.067 633.246 106.427 567.998 202.38C563.192 209.221 377.614 183.153 359.87 310.166C352.106 366 440.09 308.872 255.99 403.716C82.0573 493.383 219.947 498.005 142.684 641.842C27.8996 855.379 212.621 713.276 99.5 869.5C154.582 896.677 247.303 924.525 290.555 852.421C291.849 850.203 303.494 845.581 319.39 839.11C351.552 826.353 401.643 807.495 421.975 790.486C584.633 654.414 668.735 795.848 817.715 710.433L817.899 710.248Z" fill="#00B33C"/>
<path fill-rule="evenodd" clip-rule="evenodd" d="M491.475 910.844C526.039 916.945 565.965 928.777 577.979 958.543C589.624 954.66 601.269 951.333 613.468 948.375C594.799 909.734 575.946 872.573 554.135 859.447C528.257 874.977 509.034 893.835 491.475 910.659V910.844Z" fill="#BA8058"/>
<path fill-rule="evenodd" clip-rule="evenodd" d="M754.685 874.237C746.737 824.874 786.293 898.086 807.919 908.07C810.322 909.179 813.094 911.583 815.867 914.726C820.303 915.28 824.924 916.02 829.545 917.129C806.07 884.59 779.084 848.908 756.349 820.806C740.822 814.89 732.135 814.52 723.632 816.184C725.296 819.512 727.144 823.025 729.177 826.723C742.116 850.942 761.339 883.111 771.136 916.759C775.757 915.835 780.748 914.911 785.923 914.356C770.212 894.574 755.425 878.674 754.685 874.237Z" fill="#BA8058"/>
<path fill-rule="evenodd" clip-rule="evenodd" d="M1007.91 968.526C998.303 976.846 989.061 985.166 979.819 993.116C984.255 995.889 988.691 998.662 992.757 1001.44C995.53 999.401 998.487 997.368 1001.26 995.519C1008.65 990.897 1019.37 977.401 1032.13 963.165C1033.24 961.871 1034.35 960.761 1035.46 959.467C1032.5 956.694 1029.73 954.106 1027.51 951.517C1020.85 957.064 1014.2 962.61 1007.54 968.341L1007.91 968.526Z" fill="#BA8058"/>
<path fill-rule="evenodd" clip-rule="evenodd" d="M1043.03 965.938C1026.95 979.619 1010.69 994.225 999.042 1005.5C1004.59 1009.2 1009.76 1013.08 1015.12 1016.97C1030.65 1002.36 1045.99 989.973 1059.85 978.695C1053.57 974.258 1048.02 970.005 1043.03 965.938Z" fill="#BA8058"/>
<path fill-rule="evenodd" clip-rule="evenodd" d="M999.042 1005.5C1010.5 994.04 1026.95 979.619 1043.03 965.938C1041.37 964.644 1039.71 963.165 1038.23 961.87C1037.3 961.131 1036.56 960.391 1035.64 959.652L1032.31 963.349C1019.56 977.585 1008.65 991.081 1001.44 995.704C998.487 997.552 995.715 999.401 992.942 1001.62C994.976 1002.91 997.009 1004.39 999.042 1005.69V1005.5ZM754.685 874.237C755.425 878.674 770.212 894.389 785.923 914.356C795.165 913.432 804.962 913.432 815.867 914.726C812.91 911.398 810.322 909.179 807.919 908.07C786.293 898.086 746.922 825.059 754.685 874.237Z" fill="#D49264"/>
</svg>
