<svg width="43" height="43" viewBox="0 0 43 43" fill="none" xmlns="http://www.w3.org/2000/svg">
<path fill-rule="evenodd" clip-rule="evenodd" d="M6.2171 7.6145H8.00877L8.09835 7.63242C10.5819 7.68059 12.7519 9.32258 13.4734 11.6995L13.8317 12.9358H32.5188C34.1689 12.9433 35.7359 13.6614 36.8188 14.9066C37.8986 16.1596 38.3764 17.8222 38.1267 19.4574L37.0517 26.8749C36.6936 29.7181 34.2913 31.8603 31.4259 31.8916H20.8909C18.3741 31.8822 16.1577 30.2327 15.4263 27.8245L10.8934 12.5416C10.5462 11.2304 9.36507 10.3133 8.00877 10.302H6.2171C5.47497 10.302 4.87335 9.70038 4.87335 8.95825C4.87335 8.21612 5.47497 7.6145 6.2171 7.6145ZM18.0063 26.9645C18.3866 28.2401 19.5597 29.1145 20.8909 29.1145H31.4259C32.9088 29.0984 34.1646 28.0166 34.4 26.5524L35.475 19.117C35.6214 18.2515 35.3827 17.3652 34.8215 16.6903C34.2602 16.0154 33.4323 15.6191 32.5546 15.6053H14.6379L18.0063 26.9645Z" fill="#3E5C3F"/>
<path d="M20.4787 34.0415C19.4892 34.0415 18.6871 34.8437 18.6871 35.8332C18.6871 36.8227 19.4892 37.6248 20.4787 37.6248C21.4683 37.6248 22.2704 36.8227 22.2704 35.8332C22.2704 34.8437 21.4683 34.0415 20.4787 34.0415Z" fill="#3E5C3F"/>
<path d="M31.2287 34.0415C30.2392 34.0415 29.4371 34.8437 29.4371 35.8332C29.4371 36.8227 30.2392 37.6248 31.2287 37.6248C32.2183 37.6248 33.0204 36.8227 33.0204 35.8332C33.0204 34.8437 32.2183 34.0415 31.2287 34.0415Z" fill="#3E5C3F"/>
</svg>
