<svg width="43" height="43" viewBox="0 0 43 43" fill="none" xmlns="http://www.w3.org/2000/svg">
<path fill-rule="evenodd" clip-rule="evenodd" d="M6.21707 7.6145H8.00874L8.09832 7.63242C10.5819 7.68059 12.7519 9.32258 13.4733 11.6995L13.8317 12.9358H32.5187C34.1689 12.9433 35.7358 13.6614 36.8187 14.9066C37.8986 16.1596 38.3764 17.8222 38.1267 19.4574L37.0517 26.8749C36.6936 29.7181 34.2913 31.8603 31.4258 31.8916H20.8908C18.3741 31.8822 16.1577 30.2327 15.4262 27.8245L10.8933 12.5416C10.5462 11.2304 9.36504 10.3133 8.00874 10.302H6.21707C5.47494 10.302 4.87332 9.70038 4.87332 8.95825C4.87332 8.21612 5.47494 7.6145 6.21707 7.6145ZM18.0062 26.9645C18.3866 28.2401 19.5597 29.1145 20.8908 29.1145H31.4258C32.9088 29.0984 34.1645 28.0166 34.4 26.5524L35.475 19.117C35.6214 18.2515 35.3827 17.3652 34.8214 16.6903C34.2602 16.0154 33.4323 15.6191 32.5546 15.6053H14.6379L18.0062 26.9645Z" fill="#3E5C3F"/>
<path d="M20.4787 34.0415C19.4892 34.0415 18.6871 34.8437 18.6871 35.8332C18.6871 36.8227 19.4892 37.6248 20.4787 37.6248C21.4683 37.6248 22.2704 36.8227 22.2704 35.8332C22.2704 34.8437 21.4683 34.0415 20.4787 34.0415Z" fill="#3E5C3F"/>
<path d="M31.2287 34.0415C30.2392 34.0415 29.4371 34.8437 29.4371 35.8332C29.4371 36.8227 30.2392 37.6248 31.2287 37.6248C32.2183 37.6248 33.0204 36.8227 33.0204 35.8332C33.0204 34.8437 32.2183 34.0415 31.2287 34.0415Z" fill="#3E5C3F"/>
<path d="M11.0996 20.8369H14.2725V23.1309H11.0996V26.7168H8.68262V23.1309H5.50098V20.8369H8.68262V17.4004H11.0996V20.8369ZM16.0742 21.707L16.8125 15.2031H23.9844V17.3213H18.8955L18.5791 20.0723C19.1826 19.75 19.8242 19.5889 20.5039 19.5889C21.7227 19.5889 22.6777 19.9668 23.3691 20.7227C24.0605 21.4785 24.4062 22.5361 24.4062 23.8955C24.4062 24.7217 24.2305 25.4629 23.8789 26.1191C23.5332 26.7695 23.0352 27.2764 22.3848 27.6396C21.7344 27.9971 20.9668 28.1758 20.082 28.1758C19.3086 28.1758 18.5908 28.0205 17.9287 27.71C17.2666 27.3936 16.7422 26.9512 16.3555 26.3828C15.9746 25.8145 15.7725 25.167 15.749 24.4404H18.2627C18.3154 24.9736 18.5 25.3896 18.8164 25.6885C19.1387 25.9814 19.5576 26.1279 20.0732 26.1279C20.6475 26.1279 21.0898 25.9229 21.4004 25.5127C21.7109 25.0967 21.8662 24.5107 21.8662 23.7549C21.8662 23.0283 21.6875 22.4717 21.3301 22.085C20.9727 21.6982 20.4658 21.5049 19.8096 21.5049C19.2061 21.5049 18.7168 21.6631 18.3418 21.9795L18.0957 22.208L16.0742 21.707ZM34.6455 22.709C34.6455 24.4785 34.2793 25.832 33.5469 26.7695C32.8145 27.707 31.7422 28.1758 30.3301 28.1758C28.9355 28.1758 27.8691 27.7158 27.1309 26.7959C26.3926 25.876 26.0146 24.5576 25.9971 22.8408V20.4854C25.9971 18.6982 26.3662 17.3418 27.1045 16.416C27.8486 15.4902 28.918 15.0273 30.3125 15.0273C31.707 15.0273 32.7734 15.4873 33.5117 16.4072C34.25 17.3213 34.6279 18.6367 34.6455 20.3535V22.709ZM32.1055 20.125C32.1055 19.0645 31.959 18.2939 31.666 17.8135C31.3789 17.3271 30.9277 17.084 30.3125 17.084C29.7148 17.084 29.2725 17.3154 28.9854 17.7783C28.7041 18.2354 28.5547 18.9531 28.5371 19.9316V23.043C28.5371 24.0859 28.6777 24.8623 28.959 25.3721C29.2461 25.876 29.7031 26.1279 30.3301 26.1279C30.9512 26.1279 31.3994 25.8848 31.6748 25.3984C31.9502 24.9121 32.0938 24.168 32.1055 23.166V20.125Z" fill="white"/>
</svg>
