<svg width="28" height="28" viewBox="0 0 28 28" fill="none" xmlns="http://www.w3.org/2000/svg">
<path fill-rule="evenodd" clip-rule="evenodd" d="M13.2183 10.6868L23.8933 14.0701C24.6464 14.295 25.1988 14.9387 25.3068 15.7172C25.4148 16.4956 25.0584 17.2654 24.395 17.6868L20.6733 20.0201C20.427 20.1728 20.2194 20.3805 20.0667 20.6268L17.7333 24.3484C17.3821 24.9188 16.7582 25.264 16.0883 25.2584C15.1937 25.2647 14.3993 24.6877 14.1283 23.8351L10.745 13.1601C10.5239 12.4589 10.7113 11.6929 11.2312 11.173C11.7511 10.6531 12.5171 10.4657 13.2183 10.6868ZM19.6817 18.4101L23.4033 16.0768C23.4425 16.04 23.4475 15.9795 23.415 15.9368C23.4033 15.8551 23.3217 15.8551 23.3217 15.8551L12.6467 12.4718V12.5418L16.03 23.2168C16.0419 23.2895 16.1083 23.3406 16.1817 23.3334L18.515 19.5768C18.817 19.1097 19.2146 18.7121 19.6817 18.4101Z" fill="#82654D"/>
<path d="M6.39342 5.16837C6.06127 4.87129 5.55891 4.87129 5.22676 5.16837C4.93988 5.50435 4.93988 5.99906 5.22676 6.33504L7.56009 8.78504C7.72674 8.94507 7.94743 9.03668 8.17842 9.0417C8.40991 9.03902 8.63142 8.94707 8.79676 8.78504C8.9832 8.62633 9.09349 8.39592 9.10016 8.15117C9.10684 7.90641 9.00927 7.67034 8.83176 7.5017L6.39342 5.16837Z" fill="#82654D"/>
<path d="M11.3751 7.50171C11.6072 7.4956 11.8273 7.3975 11.9871 7.22901C12.1468 7.06053 12.233 6.83546 12.2268 6.60337V3.20837C12.2268 2.72512 11.835 2.33337 11.3518 2.33337C10.8685 2.33337 10.4768 2.72512 10.4768 3.20837V6.60337C10.4703 6.84356 10.5628 7.07585 10.7327 7.24574C10.9026 7.41564 11.1349 7.5082 11.3751 7.50171Z" fill="#82654D"/>
<path d="M14.6301 7.43165C14.8623 7.43275 15.0852 7.34023 15.2484 7.17499L17.6518 4.77165C17.8859 4.55352 17.9822 4.225 17.903 3.91498C17.8239 3.60496 17.5818 3.36288 17.2718 3.2837C16.9617 3.20453 16.6332 3.30089 16.4151 3.53499L14.0118 5.93832C13.6706 6.27994 13.6706 6.83337 14.0118 7.17499C14.175 7.34023 14.3978 7.43275 14.6301 7.43165Z" fill="#82654D"/>
<path d="M5.99675 13.9533L3.59342 16.3567C3.25223 16.6983 3.25223 17.2517 3.59342 17.5933C3.75585 17.7597 3.97925 17.8524 4.21175 17.85C4.444 17.8511 4.66689 17.7586 4.83009 17.5933L7.23342 15.19C7.46752 14.9719 7.56388 14.6433 7.4847 14.3333C7.40553 14.0233 7.16345 13.7812 6.85342 13.702C6.5434 13.6229 6.21489 13.7192 5.99675 13.9533Z" fill="#82654D"/>
<path d="M6.61504 10.4884H3.20837C2.72512 10.4884 2.33337 10.8802 2.33337 11.3634C2.33337 11.8467 2.72512 12.2384 3.20837 12.2384H6.61504C7.09829 12.2384 7.49004 11.8467 7.49004 11.3634C7.49004 10.8802 7.09829 10.4884 6.61504 10.4884Z" fill="#82654D"/>
</svg>
