<svg width="43" height="43" viewBox="0 0 43 43" fill="none" xmlns="http://www.w3.org/2000/svg">
<path d="M35.3295 32.95L23.874 21.5007L35.3295 10.1358C35.9036 9.47088 35.8725 8.47307 35.2582 7.84569C34.6438 7.21831 33.6533 7.17286 32.9848 7.74139L21.4958 19.022L10.2078 7.65708C9.55453 7.0033 8.49954 7.0033 7.84631 7.65708C7.52925 7.97369 7.35091 8.40468 7.35091 8.85428C7.35091 9.30388 7.52925 9.73487 7.84631 10.0515L19.1176 21.3996L7.66209 32.7477C7.34503 33.0643 7.16669 33.4952 7.16669 33.9448C7.16669 34.3944 7.34503 34.8254 7.66209 35.142C7.97815 35.4577 8.40602 35.6336 8.85118 35.631C9.28818 35.6337 9.70889 35.4643 10.0235 35.1589L21.4958 23.7771L32.9848 35.3444C33.3009 35.66 33.7288 35.836 34.1739 35.8334C34.6133 35.8315 35.0343 35.6559 35.3463 35.3444C35.6611 35.0255 35.8365 34.5933 35.8333 34.1437C35.8302 33.6941 35.6488 33.2643 35.3295 32.95Z" fill="#6F2222"/>
</svg>
