<svg width="28" height="28" viewBox="0 0 28 28" fill="none" xmlns="http://www.w3.org/2000/svg">
<path fill-rule="evenodd" clip-rule="evenodd" d="M13.7549 2.33337C7.44957 2.3398 2.33968 7.44969 2.33325 13.755C2.33325 20.0631 7.44691 25.1767 13.7549 25.1767C20.0629 25.1767 25.1766 20.0631 25.1766 13.755C25.1702 7.44969 20.0603 2.3398 13.7549 2.33337ZM13.7549 23.4267C8.4134 23.4267 4.08325 19.0966 4.08325 13.755C4.08325 8.41353 8.4134 4.08337 13.7549 4.08337C19.0964 4.08337 23.4266 8.41353 23.4266 13.755C23.4202 19.0939 19.0938 23.4203 13.7549 23.4267ZM13.7549 9.38005C13.3075 9.43163 12.9698 9.81047 12.9698 10.2609C12.9698 10.7113 13.3075 11.0901 13.7549 11.1417C13.99 11.145 14.2163 11.0522 14.3814 10.8849C14.5465 10.7175 14.6363 10.4901 14.6299 10.255C14.6236 9.77442 14.2355 9.38633 13.7549 9.38005ZM13.7549 12.74C13.5219 12.7369 13.2975 12.828 13.1327 12.9928C12.9679 13.1576 12.8767 13.382 12.8799 13.615V17.255C12.8799 17.7383 13.2717 18.13 13.7549 18.13C14.2382 18.13 14.6299 17.7383 14.6299 17.255V13.6384C14.6362 13.4023 14.5468 13.1737 14.382 13.0045C14.2173 12.8353 13.9911 12.74 13.7549 12.74Z" fill="#FFDFCD"/>
</svg>
