<svg width="28" height="28" viewBox="0 0 28 28" fill="none" xmlns="http://www.w3.org/2000/svg">
<path fill-rule="evenodd" clip-rule="evenodd" d="M15.2017 6.37004C15.1954 6.85066 14.8073 7.23876 14.3267 7.24504C13.846 7.23876 13.4579 6.85066 13.4517 6.37004V3.20837C13.4517 2.72512 13.8434 2.33337 14.3267 2.33337C14.8099 2.33337 15.2017 2.72512 15.2017 3.20837V6.37004ZM14.4083 8.31837H14.3266C12.0982 8.27798 10.0416 9.51089 9.02701 11.4954C8.01245 13.4798 8.21734 15.869 9.55497 17.6517C10.7203 19.211 11.3688 21.0956 11.41 23.0417C11.5962 24.5107 12.8459 25.612 14.3266 25.612C15.8074 25.612 17.0571 24.5107 17.2433 23.0417C17.1815 21.1739 17.7621 19.3414 18.8883 17.85C19.6832 16.8536 20.1299 15.6243 20.16 14.35C20.2 11.1107 17.6459 8.43224 14.4083 8.31837ZM14.3266 8.31837L14.385 10.0684C15.9583 10.092 17.3815 11.0075 18.0552 12.4293C18.729 13.8512 18.5363 15.5325 17.5583 16.765C16.6138 17.9869 15.9811 19.4204 15.715 20.9417H12.915C12.5641 19.3731 11.8972 17.8924 10.955 16.59C10.0597 15.3297 9.94332 13.6749 10.6533 12.3017C11.3633 10.9284 12.7807 10.0666 14.3266 10.0684V8.31837ZM14.3266 24.2084C13.6823 24.2084 13.16 23.686 13.16 23.0417V22.7384H15.5633V23.065C15.5575 23.3829 15.4223 23.6847 15.1888 23.9005C14.9554 24.1163 14.644 24.2275 14.3266 24.2084ZM22.855 5.6817C22.5134 5.34051 21.96 5.34051 21.6183 5.6817L19.4367 7.8517C19.1003 8.19985 19.1003 8.75189 19.4367 9.10004C19.7894 9.42473 20.3322 9.42473 20.685 9.10004L22.855 6.91837C23.1962 6.57675 23.1962 6.02332 22.855 5.6817ZM22.1666 12.8684H25.235C25.7182 12.8684 26.11 13.2601 26.11 13.7434C26.11 14.2266 25.7182 14.6184 25.235 14.6184H22.1666C21.6834 14.6184 21.2917 14.2266 21.2917 13.7434C21.2917 13.2601 21.6834 12.8684 22.1666 12.8684ZM6.27665 12.8684H3.20831C2.72506 12.8684 2.33331 13.2601 2.33331 13.7434C2.33331 14.2266 2.72506 14.6184 3.20831 14.6184H6.27665C6.75989 14.6184 7.15165 14.2266 7.15165 13.7434C7.15165 13.2601 6.75989 12.8684 6.27665 12.8684ZM9.3501 8.47587C9.3501 8.71061 9.25577 8.93552 9.08832 9.10003C8.9218 9.25884 8.70008 9.34669 8.46998 9.34503C8.24012 9.34548 8.01883 9.2578 7.85165 9.10003L5.68165 6.91837C5.44755 6.70023 5.35119 6.37172 5.43037 6.0617C5.50954 5.75167 5.75162 5.50959 6.06165 5.43042C6.37167 5.35124 6.70018 5.4476 6.91832 5.6817L9.08832 7.8517C9.25577 8.01622 9.3501 8.24112 9.3501 8.47587Z" fill="#82654D"/>
</svg>
