<svg width="28" height="28" viewBox="0 0 28 28" fill="none" xmlns="http://www.w3.org/2000/svg">
<path fill-rule="evenodd" clip-rule="evenodd" d="M23.66 4.45665L25.5967 9.83498C26.018 10.8764 25.9139 12.0568 25.3167 13.0083C24.8085 13.7295 24.0732 14.2594 23.2283 14.5133V22.4466C23.21 23.3378 22.8382 24.1852 22.1949 24.8022C21.5516 25.4193 20.6895 25.7554 19.7983 25.7366H8.52833C7.62609 25.7713 6.74766 25.4426 6.08978 24.8241C5.4319 24.2057 5.04954 23.3493 5.02833 22.4466V14.63C4.20695 14.4419 3.46711 13.9963 2.91667 13.3583C2.12519 12.3703 1.92889 11.032 2.40333 9.85831L4.32833 4.46832C4.78233 3.31881 5.9044 2.57386 7.14 2.60165H20.8483C22.082 2.56858 23.205 3.30948 23.66 4.45665ZM15.5767 23.835H15.5867V23.87C15.5839 23.8607 15.5812 23.8514 15.5786 23.8421C15.578 23.8397 15.5773 23.8373 15.5767 23.835ZM15.5767 23.835H12.6117C12.6228 23.7459 12.6228 23.6557 12.6117 23.5666V21.105C12.632 20.7348 12.8033 20.3892 13.0855 20.1488C13.3678 19.9084 13.7363 19.7944 14.105 19.8333C14.8382 19.7795 15.478 20.3258 15.54 21.0583V23.555C15.54 23.6495 15.5523 23.7437 15.5767 23.835ZM19.74 23.835H17.2783C17.2894 23.7459 17.2894 23.6558 17.2783 23.5667V21.105C17.215 19.3871 15.7766 18.0425 14.0583 18.095C12.3356 18.0359 10.89 19.3824 10.8267 21.105V23.6017C10.8156 23.6908 10.8156 23.7809 10.8267 23.87H8.47C7.61062 23.9096 6.88069 23.2475 6.83666 22.3883V14.6067C8.39109 14.372 9.63951 13.2025 9.975 11.6667C10.3859 13.5299 12.0961 14.8138 14 14.6883C15.8695 14.7667 17.5263 13.4934 17.9317 11.6667C18.2599 13.2992 19.612 14.5284 21.2683 14.7V22.4467C21.197 23.2417 20.5381 23.8553 19.74 23.87V23.835ZM22.0733 12.6467C22.6918 12.6304 23.2648 12.3179 23.6133 11.8067V11.8417C23.8554 11.4338 23.8858 10.9342 23.695 10.5L21.77 5.19166C21.5992 4.84448 21.2341 4.63648 20.8483 4.66666H7.14C6.76888 4.63272 6.41248 4.82006 6.23 5.14499L4.305 10.5C4.05481 10.9951 4.09974 11.5882 4.42166 12.04C4.71244 12.3973 5.13086 12.6274 5.58833 12.6817C5.73561 12.6988 5.88439 12.6988 6.03166 12.6817C6.92937 12.7307 7.74013 12.1481 7.98 11.2817C8.158 10.2955 9.00802 9.57246 10.01 9.55499C11.0228 9.55451 11.8846 10.2925 12.04 11.2933C12.2775 12.1651 13.0988 12.7469 14 12.6817C14.9086 12.7422 15.7298 12.1423 15.9483 11.2583C16.1171 10.2651 16.9709 9.5339 17.9783 9.51999C18.9873 9.51861 19.8478 10.2505 20.0083 11.2467C20.246 12.1249 21.0725 12.7117 21.98 12.6467H22.0733Z" fill="#8A6A54"/>
</svg>
